G75*
G70*
%OFA0B0*%
%FSLAX24Y24*%
%IPPOS*%
%LPD*%
%AMOC8*
5,1,8,0,0,1.08239X$1,22.5*
%
%ADD10C,0.0000*%
%ADD11C,0.0140*%
%ADD12C,0.0060*%
%ADD13R,0.0720X0.0230*%
%ADD14C,0.0080*%
%ADD15C,0.0040*%
%ADD16R,0.0669X0.0295*%
%ADD17R,0.0140X0.0400*%
%ADD18R,0.0230X0.0720*%
%ADD19R,0.0295X0.0669*%
%ADD20R,0.0276X0.0217*%
%ADD21R,0.0217X0.0276*%
%ADD22R,0.0400X0.0140*%
%ADD23C,0.0100*%
%ADD24R,0.0531X0.0098*%
%ADD25R,0.0827X0.0118*%
D10*
X000142Y000180D02*
X000142Y050680D01*
X014892Y050680D01*
X014892Y000180D01*
X000142Y000180D01*
X000986Y001330D02*
X000988Y001376D01*
X000994Y001421D01*
X001004Y001466D01*
X001017Y001509D01*
X001034Y001552D01*
X001055Y001592D01*
X001079Y001631D01*
X001107Y001667D01*
X001138Y001701D01*
X001171Y001733D01*
X001207Y001761D01*
X001245Y001786D01*
X001285Y001808D01*
X001327Y001826D01*
X001370Y001840D01*
X001415Y001851D01*
X001460Y001858D01*
X001506Y001861D01*
X001551Y001860D01*
X001597Y001855D01*
X001642Y001846D01*
X001685Y001834D01*
X001728Y001817D01*
X001769Y001797D01*
X001808Y001774D01*
X001846Y001747D01*
X001880Y001717D01*
X001912Y001685D01*
X001941Y001649D01*
X001967Y001612D01*
X001990Y001572D01*
X002009Y001531D01*
X002024Y001488D01*
X002036Y001443D01*
X002044Y001398D01*
X002048Y001353D01*
X002048Y001307D01*
X002044Y001262D01*
X002036Y001217D01*
X002024Y001172D01*
X002009Y001129D01*
X001990Y001088D01*
X001967Y001048D01*
X001941Y001011D01*
X001912Y000975D01*
X001880Y000943D01*
X001846Y000913D01*
X001808Y000886D01*
X001769Y000863D01*
X001728Y000843D01*
X001685Y000826D01*
X001642Y000814D01*
X001597Y000805D01*
X001551Y000800D01*
X001506Y000799D01*
X001460Y000802D01*
X001415Y000809D01*
X001370Y000820D01*
X001327Y000834D01*
X001285Y000852D01*
X001245Y000874D01*
X001207Y000899D01*
X001171Y000927D01*
X001138Y000959D01*
X001107Y000993D01*
X001079Y001029D01*
X001055Y001068D01*
X001034Y001108D01*
X001017Y001151D01*
X001004Y001194D01*
X000994Y001239D01*
X000988Y001284D01*
X000986Y001330D01*
X002692Y013680D02*
X002694Y013759D01*
X002700Y013838D01*
X002710Y013917D01*
X002724Y013995D01*
X002741Y014072D01*
X002763Y014148D01*
X002788Y014223D01*
X002818Y014296D01*
X002850Y014368D01*
X002887Y014439D01*
X002927Y014507D01*
X002970Y014573D01*
X003016Y014637D01*
X003066Y014699D01*
X003119Y014758D01*
X003174Y014814D01*
X003233Y014868D01*
X003294Y014918D01*
X003357Y014966D01*
X003423Y015010D01*
X003491Y015051D01*
X003561Y015088D01*
X003632Y015122D01*
X003706Y015152D01*
X003780Y015178D01*
X003856Y015200D01*
X003933Y015219D01*
X004011Y015234D01*
X004089Y015245D01*
X004168Y015252D01*
X004247Y015255D01*
X004326Y015254D01*
X004405Y015249D01*
X004484Y015240D01*
X004562Y015227D01*
X004639Y015210D01*
X004716Y015190D01*
X004791Y015165D01*
X004865Y015137D01*
X004938Y015105D01*
X005008Y015070D01*
X005077Y015031D01*
X005144Y014988D01*
X005209Y014942D01*
X005271Y014894D01*
X005331Y014842D01*
X005388Y014787D01*
X005442Y014729D01*
X005493Y014669D01*
X005541Y014606D01*
X005586Y014541D01*
X005628Y014473D01*
X005666Y014404D01*
X005700Y014333D01*
X005731Y014260D01*
X005759Y014185D01*
X005782Y014110D01*
X005802Y014033D01*
X005818Y013956D01*
X005830Y013877D01*
X005838Y013799D01*
X005842Y013720D01*
X005842Y013640D01*
X005838Y013561D01*
X005830Y013483D01*
X005818Y013404D01*
X005802Y013327D01*
X005782Y013250D01*
X005759Y013175D01*
X005731Y013100D01*
X005700Y013027D01*
X005666Y012956D01*
X005628Y012887D01*
X005586Y012819D01*
X005541Y012754D01*
X005493Y012691D01*
X005442Y012631D01*
X005388Y012573D01*
X005331Y012518D01*
X005271Y012466D01*
X005209Y012418D01*
X005144Y012372D01*
X005077Y012329D01*
X005008Y012290D01*
X004938Y012255D01*
X004865Y012223D01*
X004791Y012195D01*
X004716Y012170D01*
X004639Y012150D01*
X004562Y012133D01*
X004484Y012120D01*
X004405Y012111D01*
X004326Y012106D01*
X004247Y012105D01*
X004168Y012108D01*
X004089Y012115D01*
X004011Y012126D01*
X003933Y012141D01*
X003856Y012160D01*
X003780Y012182D01*
X003706Y012208D01*
X003632Y012238D01*
X003561Y012272D01*
X003491Y012309D01*
X003423Y012350D01*
X003357Y012394D01*
X003294Y012442D01*
X003233Y012492D01*
X003174Y012546D01*
X003119Y012602D01*
X003066Y012661D01*
X003016Y012723D01*
X002970Y012787D01*
X002927Y012853D01*
X002887Y012921D01*
X002850Y012992D01*
X002818Y013064D01*
X002788Y013137D01*
X002763Y013212D01*
X002741Y013288D01*
X002724Y013365D01*
X002710Y013443D01*
X002700Y013522D01*
X002694Y013601D01*
X002692Y013680D01*
X009192Y013680D02*
X009194Y013759D01*
X009200Y013838D01*
X009210Y013917D01*
X009224Y013995D01*
X009241Y014072D01*
X009263Y014148D01*
X009288Y014223D01*
X009318Y014296D01*
X009350Y014368D01*
X009387Y014439D01*
X009427Y014507D01*
X009470Y014573D01*
X009516Y014637D01*
X009566Y014699D01*
X009619Y014758D01*
X009674Y014814D01*
X009733Y014868D01*
X009794Y014918D01*
X009857Y014966D01*
X009923Y015010D01*
X009991Y015051D01*
X010061Y015088D01*
X010132Y015122D01*
X010206Y015152D01*
X010280Y015178D01*
X010356Y015200D01*
X010433Y015219D01*
X010511Y015234D01*
X010589Y015245D01*
X010668Y015252D01*
X010747Y015255D01*
X010826Y015254D01*
X010905Y015249D01*
X010984Y015240D01*
X011062Y015227D01*
X011139Y015210D01*
X011216Y015190D01*
X011291Y015165D01*
X011365Y015137D01*
X011438Y015105D01*
X011508Y015070D01*
X011577Y015031D01*
X011644Y014988D01*
X011709Y014942D01*
X011771Y014894D01*
X011831Y014842D01*
X011888Y014787D01*
X011942Y014729D01*
X011993Y014669D01*
X012041Y014606D01*
X012086Y014541D01*
X012128Y014473D01*
X012166Y014404D01*
X012200Y014333D01*
X012231Y014260D01*
X012259Y014185D01*
X012282Y014110D01*
X012302Y014033D01*
X012318Y013956D01*
X012330Y013877D01*
X012338Y013799D01*
X012342Y013720D01*
X012342Y013640D01*
X012338Y013561D01*
X012330Y013483D01*
X012318Y013404D01*
X012302Y013327D01*
X012282Y013250D01*
X012259Y013175D01*
X012231Y013100D01*
X012200Y013027D01*
X012166Y012956D01*
X012128Y012887D01*
X012086Y012819D01*
X012041Y012754D01*
X011993Y012691D01*
X011942Y012631D01*
X011888Y012573D01*
X011831Y012518D01*
X011771Y012466D01*
X011709Y012418D01*
X011644Y012372D01*
X011577Y012329D01*
X011508Y012290D01*
X011438Y012255D01*
X011365Y012223D01*
X011291Y012195D01*
X011216Y012170D01*
X011139Y012150D01*
X011062Y012133D01*
X010984Y012120D01*
X010905Y012111D01*
X010826Y012106D01*
X010747Y012105D01*
X010668Y012108D01*
X010589Y012115D01*
X010511Y012126D01*
X010433Y012141D01*
X010356Y012160D01*
X010280Y012182D01*
X010206Y012208D01*
X010132Y012238D01*
X010061Y012272D01*
X009991Y012309D01*
X009923Y012350D01*
X009857Y012394D01*
X009794Y012442D01*
X009733Y012492D01*
X009674Y012546D01*
X009619Y012602D01*
X009566Y012661D01*
X009516Y012723D01*
X009470Y012787D01*
X009427Y012853D01*
X009387Y012921D01*
X009350Y012992D01*
X009318Y013064D01*
X009288Y013137D01*
X009263Y013212D01*
X009241Y013288D01*
X009224Y013365D01*
X009210Y013443D01*
X009200Y013522D01*
X009194Y013601D01*
X009192Y013680D01*
X012986Y001330D02*
X012988Y001376D01*
X012994Y001421D01*
X013004Y001466D01*
X013017Y001509D01*
X013034Y001552D01*
X013055Y001592D01*
X013079Y001631D01*
X013107Y001667D01*
X013138Y001701D01*
X013171Y001733D01*
X013207Y001761D01*
X013245Y001786D01*
X013285Y001808D01*
X013327Y001826D01*
X013370Y001840D01*
X013415Y001851D01*
X013460Y001858D01*
X013506Y001861D01*
X013551Y001860D01*
X013597Y001855D01*
X013642Y001846D01*
X013685Y001834D01*
X013728Y001817D01*
X013769Y001797D01*
X013808Y001774D01*
X013846Y001747D01*
X013880Y001717D01*
X013912Y001685D01*
X013941Y001649D01*
X013967Y001612D01*
X013990Y001572D01*
X014009Y001531D01*
X014024Y001488D01*
X014036Y001443D01*
X014044Y001398D01*
X014048Y001353D01*
X014048Y001307D01*
X014044Y001262D01*
X014036Y001217D01*
X014024Y001172D01*
X014009Y001129D01*
X013990Y001088D01*
X013967Y001048D01*
X013941Y001011D01*
X013912Y000975D01*
X013880Y000943D01*
X013846Y000913D01*
X013808Y000886D01*
X013769Y000863D01*
X013728Y000843D01*
X013685Y000826D01*
X013642Y000814D01*
X013597Y000805D01*
X013551Y000800D01*
X013506Y000799D01*
X013460Y000802D01*
X013415Y000809D01*
X013370Y000820D01*
X013327Y000834D01*
X013285Y000852D01*
X013245Y000874D01*
X013207Y000899D01*
X013171Y000927D01*
X013138Y000959D01*
X013107Y000993D01*
X013079Y001029D01*
X013055Y001068D01*
X013034Y001108D01*
X013017Y001151D01*
X013004Y001194D01*
X012994Y001239D01*
X012988Y001284D01*
X012986Y001330D01*
X009192Y043180D02*
X009194Y043259D01*
X009200Y043338D01*
X009210Y043417D01*
X009224Y043495D01*
X009241Y043572D01*
X009263Y043648D01*
X009288Y043723D01*
X009318Y043796D01*
X009350Y043868D01*
X009387Y043939D01*
X009427Y044007D01*
X009470Y044073D01*
X009516Y044137D01*
X009566Y044199D01*
X009619Y044258D01*
X009674Y044314D01*
X009733Y044368D01*
X009794Y044418D01*
X009857Y044466D01*
X009923Y044510D01*
X009991Y044551D01*
X010061Y044588D01*
X010132Y044622D01*
X010206Y044652D01*
X010280Y044678D01*
X010356Y044700D01*
X010433Y044719D01*
X010511Y044734D01*
X010589Y044745D01*
X010668Y044752D01*
X010747Y044755D01*
X010826Y044754D01*
X010905Y044749D01*
X010984Y044740D01*
X011062Y044727D01*
X011139Y044710D01*
X011216Y044690D01*
X011291Y044665D01*
X011365Y044637D01*
X011438Y044605D01*
X011508Y044570D01*
X011577Y044531D01*
X011644Y044488D01*
X011709Y044442D01*
X011771Y044394D01*
X011831Y044342D01*
X011888Y044287D01*
X011942Y044229D01*
X011993Y044169D01*
X012041Y044106D01*
X012086Y044041D01*
X012128Y043973D01*
X012166Y043904D01*
X012200Y043833D01*
X012231Y043760D01*
X012259Y043685D01*
X012282Y043610D01*
X012302Y043533D01*
X012318Y043456D01*
X012330Y043377D01*
X012338Y043299D01*
X012342Y043220D01*
X012342Y043140D01*
X012338Y043061D01*
X012330Y042983D01*
X012318Y042904D01*
X012302Y042827D01*
X012282Y042750D01*
X012259Y042675D01*
X012231Y042600D01*
X012200Y042527D01*
X012166Y042456D01*
X012128Y042387D01*
X012086Y042319D01*
X012041Y042254D01*
X011993Y042191D01*
X011942Y042131D01*
X011888Y042073D01*
X011831Y042018D01*
X011771Y041966D01*
X011709Y041918D01*
X011644Y041872D01*
X011577Y041829D01*
X011508Y041790D01*
X011438Y041755D01*
X011365Y041723D01*
X011291Y041695D01*
X011216Y041670D01*
X011139Y041650D01*
X011062Y041633D01*
X010984Y041620D01*
X010905Y041611D01*
X010826Y041606D01*
X010747Y041605D01*
X010668Y041608D01*
X010589Y041615D01*
X010511Y041626D01*
X010433Y041641D01*
X010356Y041660D01*
X010280Y041682D01*
X010206Y041708D01*
X010132Y041738D01*
X010061Y041772D01*
X009991Y041809D01*
X009923Y041850D01*
X009857Y041894D01*
X009794Y041942D01*
X009733Y041992D01*
X009674Y042046D01*
X009619Y042102D01*
X009566Y042161D01*
X009516Y042223D01*
X009470Y042287D01*
X009427Y042353D01*
X009387Y042421D01*
X009350Y042492D01*
X009318Y042564D01*
X009288Y042637D01*
X009263Y042712D01*
X009241Y042788D01*
X009224Y042865D01*
X009210Y042943D01*
X009200Y043022D01*
X009194Y043101D01*
X009192Y043180D01*
X012986Y049530D02*
X012988Y049576D01*
X012994Y049621D01*
X013004Y049666D01*
X013017Y049709D01*
X013034Y049752D01*
X013055Y049792D01*
X013079Y049831D01*
X013107Y049867D01*
X013138Y049901D01*
X013171Y049933D01*
X013207Y049961D01*
X013245Y049986D01*
X013285Y050008D01*
X013327Y050026D01*
X013370Y050040D01*
X013415Y050051D01*
X013460Y050058D01*
X013506Y050061D01*
X013551Y050060D01*
X013597Y050055D01*
X013642Y050046D01*
X013685Y050034D01*
X013728Y050017D01*
X013769Y049997D01*
X013808Y049974D01*
X013846Y049947D01*
X013880Y049917D01*
X013912Y049885D01*
X013941Y049849D01*
X013967Y049812D01*
X013990Y049772D01*
X014009Y049731D01*
X014024Y049688D01*
X014036Y049643D01*
X014044Y049598D01*
X014048Y049553D01*
X014048Y049507D01*
X014044Y049462D01*
X014036Y049417D01*
X014024Y049372D01*
X014009Y049329D01*
X013990Y049288D01*
X013967Y049248D01*
X013941Y049211D01*
X013912Y049175D01*
X013880Y049143D01*
X013846Y049113D01*
X013808Y049086D01*
X013769Y049063D01*
X013728Y049043D01*
X013685Y049026D01*
X013642Y049014D01*
X013597Y049005D01*
X013551Y049000D01*
X013506Y048999D01*
X013460Y049002D01*
X013415Y049009D01*
X013370Y049020D01*
X013327Y049034D01*
X013285Y049052D01*
X013245Y049074D01*
X013207Y049099D01*
X013171Y049127D01*
X013138Y049159D01*
X013107Y049193D01*
X013079Y049229D01*
X013055Y049268D01*
X013034Y049308D01*
X013017Y049351D01*
X013004Y049394D01*
X012994Y049439D01*
X012988Y049484D01*
X012986Y049530D01*
X002692Y043180D02*
X002694Y043259D01*
X002700Y043338D01*
X002710Y043417D01*
X002724Y043495D01*
X002741Y043572D01*
X002763Y043648D01*
X002788Y043723D01*
X002818Y043796D01*
X002850Y043868D01*
X002887Y043939D01*
X002927Y044007D01*
X002970Y044073D01*
X003016Y044137D01*
X003066Y044199D01*
X003119Y044258D01*
X003174Y044314D01*
X003233Y044368D01*
X003294Y044418D01*
X003357Y044466D01*
X003423Y044510D01*
X003491Y044551D01*
X003561Y044588D01*
X003632Y044622D01*
X003706Y044652D01*
X003780Y044678D01*
X003856Y044700D01*
X003933Y044719D01*
X004011Y044734D01*
X004089Y044745D01*
X004168Y044752D01*
X004247Y044755D01*
X004326Y044754D01*
X004405Y044749D01*
X004484Y044740D01*
X004562Y044727D01*
X004639Y044710D01*
X004716Y044690D01*
X004791Y044665D01*
X004865Y044637D01*
X004938Y044605D01*
X005008Y044570D01*
X005077Y044531D01*
X005144Y044488D01*
X005209Y044442D01*
X005271Y044394D01*
X005331Y044342D01*
X005388Y044287D01*
X005442Y044229D01*
X005493Y044169D01*
X005541Y044106D01*
X005586Y044041D01*
X005628Y043973D01*
X005666Y043904D01*
X005700Y043833D01*
X005731Y043760D01*
X005759Y043685D01*
X005782Y043610D01*
X005802Y043533D01*
X005818Y043456D01*
X005830Y043377D01*
X005838Y043299D01*
X005842Y043220D01*
X005842Y043140D01*
X005838Y043061D01*
X005830Y042983D01*
X005818Y042904D01*
X005802Y042827D01*
X005782Y042750D01*
X005759Y042675D01*
X005731Y042600D01*
X005700Y042527D01*
X005666Y042456D01*
X005628Y042387D01*
X005586Y042319D01*
X005541Y042254D01*
X005493Y042191D01*
X005442Y042131D01*
X005388Y042073D01*
X005331Y042018D01*
X005271Y041966D01*
X005209Y041918D01*
X005144Y041872D01*
X005077Y041829D01*
X005008Y041790D01*
X004938Y041755D01*
X004865Y041723D01*
X004791Y041695D01*
X004716Y041670D01*
X004639Y041650D01*
X004562Y041633D01*
X004484Y041620D01*
X004405Y041611D01*
X004326Y041606D01*
X004247Y041605D01*
X004168Y041608D01*
X004089Y041615D01*
X004011Y041626D01*
X003933Y041641D01*
X003856Y041660D01*
X003780Y041682D01*
X003706Y041708D01*
X003632Y041738D01*
X003561Y041772D01*
X003491Y041809D01*
X003423Y041850D01*
X003357Y041894D01*
X003294Y041942D01*
X003233Y041992D01*
X003174Y042046D01*
X003119Y042102D01*
X003066Y042161D01*
X003016Y042223D01*
X002970Y042287D01*
X002927Y042353D01*
X002887Y042421D01*
X002850Y042492D01*
X002818Y042564D01*
X002788Y042637D01*
X002763Y042712D01*
X002741Y042788D01*
X002724Y042865D01*
X002710Y042943D01*
X002700Y043022D01*
X002694Y043101D01*
X002692Y043180D01*
X000986Y049530D02*
X000988Y049576D01*
X000994Y049621D01*
X001004Y049666D01*
X001017Y049709D01*
X001034Y049752D01*
X001055Y049792D01*
X001079Y049831D01*
X001107Y049867D01*
X001138Y049901D01*
X001171Y049933D01*
X001207Y049961D01*
X001245Y049986D01*
X001285Y050008D01*
X001327Y050026D01*
X001370Y050040D01*
X001415Y050051D01*
X001460Y050058D01*
X001506Y050061D01*
X001551Y050060D01*
X001597Y050055D01*
X001642Y050046D01*
X001685Y050034D01*
X001728Y050017D01*
X001769Y049997D01*
X001808Y049974D01*
X001846Y049947D01*
X001880Y049917D01*
X001912Y049885D01*
X001941Y049849D01*
X001967Y049812D01*
X001990Y049772D01*
X002009Y049731D01*
X002024Y049688D01*
X002036Y049643D01*
X002044Y049598D01*
X002048Y049553D01*
X002048Y049507D01*
X002044Y049462D01*
X002036Y049417D01*
X002024Y049372D01*
X002009Y049329D01*
X001990Y049288D01*
X001967Y049248D01*
X001941Y049211D01*
X001912Y049175D01*
X001880Y049143D01*
X001846Y049113D01*
X001808Y049086D01*
X001769Y049063D01*
X001728Y049043D01*
X001685Y049026D01*
X001642Y049014D01*
X001597Y049005D01*
X001551Y049000D01*
X001506Y048999D01*
X001460Y049002D01*
X001415Y049009D01*
X001370Y049020D01*
X001327Y049034D01*
X001285Y049052D01*
X001245Y049074D01*
X001207Y049099D01*
X001171Y049127D01*
X001138Y049159D01*
X001107Y049193D01*
X001079Y049229D01*
X001055Y049268D01*
X001034Y049308D01*
X001017Y049351D01*
X001004Y049394D01*
X000994Y049439D01*
X000988Y049484D01*
X000986Y049530D01*
D11*
X011044Y010611D02*
X011044Y010037D01*
X011331Y009750D01*
X011617Y010037D01*
X011617Y010611D01*
X011964Y010611D02*
X012538Y010611D01*
X012538Y010180D01*
X012251Y010324D01*
X012108Y010324D01*
X011964Y010180D01*
X011964Y009893D01*
X012108Y009750D01*
X012395Y009750D01*
X012538Y009893D01*
X012885Y009750D02*
X013459Y009750D01*
X013459Y010324D02*
X013172Y010611D01*
X013172Y009750D01*
X013806Y010180D02*
X014380Y010180D01*
X013239Y004861D02*
X013239Y004000D01*
X013526Y004000D02*
X012952Y004000D01*
X012605Y004143D02*
X012462Y004000D01*
X012175Y004000D01*
X012031Y004143D01*
X012031Y004430D01*
X012175Y004574D01*
X012318Y004574D01*
X012605Y004430D01*
X012605Y004861D01*
X012031Y004861D01*
X011684Y004861D02*
X011684Y004287D01*
X011397Y004000D01*
X011110Y004287D01*
X011110Y004861D01*
X013239Y004861D02*
X013526Y004574D01*
X013873Y004430D02*
X014447Y004430D01*
X014160Y004717D02*
X014160Y004143D01*
D12*
X011847Y018480D02*
X011847Y019380D01*
X011467Y020100D02*
X010567Y020100D01*
X010567Y020760D02*
X011467Y020760D01*
X011187Y019380D02*
X011187Y018480D01*
X010337Y022220D02*
X010337Y023640D01*
X012197Y023640D01*
X012197Y022220D01*
X010337Y022220D01*
X009467Y019760D02*
X008567Y019760D01*
X008567Y019100D02*
X009467Y019100D01*
X010187Y025480D02*
X010187Y026380D01*
X010847Y026380D02*
X010847Y025480D01*
X011067Y028350D02*
X011967Y028350D01*
X011967Y029010D02*
X011067Y029010D01*
X011067Y031850D02*
X011967Y031850D01*
X011967Y032510D02*
X011067Y032510D01*
X010587Y033720D02*
X010587Y035140D01*
X012447Y035140D01*
X012447Y033720D01*
X010587Y033720D01*
X010967Y036350D02*
X010067Y036350D01*
X010067Y037010D02*
X010967Y037010D01*
X010967Y037350D02*
X010067Y037350D01*
X010067Y038010D02*
X010967Y038010D01*
X011937Y037630D02*
X011937Y036730D01*
X012597Y036730D02*
X012597Y037630D01*
X012937Y037980D02*
X012937Y038880D01*
X013597Y038880D02*
X013597Y037980D01*
X013967Y032510D02*
X013067Y032510D01*
X013067Y031850D02*
X013967Y031850D01*
X012847Y026380D02*
X012847Y025480D01*
X012187Y025480D02*
X012187Y026380D01*
X013437Y020380D02*
X013437Y019480D01*
X014097Y019480D02*
X014097Y020380D01*
X010097Y029980D02*
X010097Y030880D01*
X009437Y030880D02*
X009437Y029980D01*
X008227Y029110D02*
X008227Y027250D01*
X006807Y027250D01*
X006807Y029110D01*
X008227Y029110D01*
X006717Y030600D02*
X005817Y030600D01*
X005817Y031260D02*
X006717Y031260D01*
X005947Y033720D02*
X004087Y033720D01*
X004087Y035140D01*
X005947Y035140D01*
X005947Y033720D01*
X005467Y032510D02*
X004567Y032510D01*
X004567Y031850D02*
X005467Y031850D01*
X004847Y031130D02*
X004847Y030230D01*
X004187Y030230D02*
X004187Y031130D01*
X003717Y029010D02*
X002817Y029010D01*
X002817Y028350D02*
X003717Y028350D01*
X003847Y026380D02*
X003847Y025480D01*
X004447Y023640D02*
X004447Y022220D01*
X002587Y022220D01*
X002587Y023640D01*
X004447Y023640D01*
X004067Y020760D02*
X004967Y020760D01*
X004967Y020100D02*
X004067Y020100D01*
X004347Y019380D02*
X004347Y018480D01*
X003687Y018480D02*
X003687Y019380D01*
X002347Y019480D02*
X002347Y020380D01*
X001687Y020380D02*
X001687Y019480D01*
X001847Y025480D02*
X001847Y026380D01*
X001187Y026380D02*
X001187Y025480D01*
X003187Y025480D02*
X003187Y026380D01*
X006067Y020760D02*
X006967Y020760D01*
X006967Y020100D02*
X006067Y020100D01*
X005092Y005260D02*
X004192Y005260D01*
X004192Y004600D02*
X005092Y004600D01*
X004467Y036350D02*
X003567Y036350D01*
X003567Y037010D02*
X004467Y037010D01*
X004467Y037350D02*
X003567Y037350D01*
X003567Y038010D02*
X004467Y038010D01*
X005437Y037630D02*
X005437Y036730D01*
X006097Y036730D02*
X006097Y037630D01*
X006437Y037980D02*
X006437Y038880D01*
X007097Y038880D02*
X007097Y037980D01*
X008687Y037730D02*
X008687Y038630D01*
X009347Y038630D02*
X009347Y037730D01*
X002847Y037730D02*
X002847Y038630D01*
X002187Y038630D02*
X002187Y037730D01*
D13*
X002517Y037625D03*
X002517Y038735D03*
X004517Y031235D03*
X004517Y030125D03*
X003517Y026485D03*
X003517Y025375D03*
X002017Y020485D03*
X002017Y019375D03*
X001517Y025375D03*
X001517Y026485D03*
X004017Y019485D03*
X004017Y018375D03*
X005767Y036625D03*
X005767Y037735D03*
X006767Y037875D03*
X006767Y038985D03*
X009017Y038735D03*
X009017Y037625D03*
X009767Y030985D03*
X009767Y029875D03*
X010517Y026485D03*
X010517Y025375D03*
X011517Y019485D03*
X011517Y018375D03*
X012517Y025375D03*
X012517Y026485D03*
X013767Y020485D03*
X013767Y019375D03*
X012267Y036625D03*
X012267Y037735D03*
X013267Y037875D03*
X013267Y038985D03*
D14*
X010750Y034820D02*
X010752Y034835D01*
X010758Y034848D01*
X010767Y034860D01*
X010778Y034869D01*
X010792Y034875D01*
X010807Y034877D01*
X010822Y034875D01*
X010835Y034869D01*
X010847Y034860D01*
X010856Y034849D01*
X010862Y034835D01*
X010864Y034820D01*
X010862Y034805D01*
X010856Y034792D01*
X010847Y034780D01*
X010836Y034771D01*
X010822Y034765D01*
X010807Y034763D01*
X010792Y034765D01*
X010779Y034771D01*
X010767Y034780D01*
X010758Y034791D01*
X010752Y034805D01*
X010750Y034820D01*
X010500Y023320D02*
X010502Y023335D01*
X010508Y023348D01*
X010517Y023360D01*
X010528Y023369D01*
X010542Y023375D01*
X010557Y023377D01*
X010572Y023375D01*
X010585Y023369D01*
X010597Y023360D01*
X010606Y023349D01*
X010612Y023335D01*
X010614Y023320D01*
X010612Y023305D01*
X010606Y023292D01*
X010597Y023280D01*
X010586Y023271D01*
X010572Y023265D01*
X010557Y023263D01*
X010542Y023265D01*
X010529Y023271D01*
X010517Y023280D01*
X010508Y023291D01*
X010502Y023305D01*
X010500Y023320D01*
X007070Y027470D02*
X007072Y027485D01*
X007078Y027498D01*
X007087Y027510D01*
X007098Y027519D01*
X007112Y027525D01*
X007127Y027527D01*
X007142Y027525D01*
X007155Y027519D01*
X007167Y027510D01*
X007176Y027499D01*
X007182Y027485D01*
X007184Y027470D01*
X007182Y027455D01*
X007176Y027442D01*
X007167Y027430D01*
X007156Y027421D01*
X007142Y027415D01*
X007127Y027413D01*
X007112Y027415D01*
X007099Y027421D01*
X007087Y027430D01*
X007078Y027441D01*
X007072Y027455D01*
X007070Y027470D01*
X004250Y034820D02*
X004252Y034835D01*
X004258Y034848D01*
X004267Y034860D01*
X004278Y034869D01*
X004292Y034875D01*
X004307Y034877D01*
X004322Y034875D01*
X004335Y034869D01*
X004347Y034860D01*
X004356Y034849D01*
X004362Y034835D01*
X004364Y034820D01*
X004362Y034805D01*
X004356Y034792D01*
X004347Y034780D01*
X004336Y034771D01*
X004322Y034765D01*
X004307Y034763D01*
X004292Y034765D01*
X004279Y034771D01*
X004267Y034780D01*
X004258Y034791D01*
X004252Y034805D01*
X004250Y034820D01*
X004170Y022540D02*
X004172Y022555D01*
X004178Y022568D01*
X004187Y022580D01*
X004198Y022589D01*
X004212Y022595D01*
X004227Y022597D01*
X004242Y022595D01*
X004255Y022589D01*
X004267Y022580D01*
X004276Y022569D01*
X004282Y022555D01*
X004284Y022540D01*
X004282Y022525D01*
X004276Y022512D01*
X004267Y022500D01*
X004256Y022491D01*
X004242Y022485D01*
X004227Y022483D01*
X004212Y022485D01*
X004199Y022491D01*
X004187Y022500D01*
X004178Y022511D01*
X004172Y022525D01*
X004170Y022540D01*
X004072Y009418D02*
X000962Y009418D01*
X000528Y008985D01*
X000528Y005442D01*
X004505Y005442D01*
X004505Y008985D01*
X004072Y009418D01*
X004778Y009418D02*
X008755Y009418D01*
X008755Y005875D01*
X008322Y005442D01*
X005212Y005442D01*
X004778Y005875D01*
X004778Y009418D01*
X005492Y008798D02*
X005330Y008631D01*
X008204Y008631D01*
X008007Y008816D01*
X007788Y008975D01*
X007550Y009105D01*
X007298Y009203D01*
X007035Y009269D01*
X006767Y009300D01*
X006534Y009283D01*
X006305Y009239D01*
X006083Y009167D01*
X005872Y009068D01*
X005674Y008945D01*
X007830Y008945D01*
X007938Y008866D02*
X005577Y008866D01*
X005492Y008798D02*
X005674Y008945D01*
X005800Y009023D02*
X007700Y009023D01*
X007556Y009102D02*
X005945Y009102D01*
X006126Y009180D02*
X007357Y009180D01*
X007075Y009259D02*
X006409Y009259D01*
X004877Y007430D02*
X004879Y007523D01*
X004886Y007615D01*
X004897Y007707D01*
X004913Y007799D01*
X004934Y007889D01*
X004958Y007979D01*
X004987Y008067D01*
X005021Y008153D01*
X005058Y008238D01*
X005100Y008321D01*
X005146Y008402D01*
X005196Y008480D01*
X005249Y008556D01*
X005306Y008629D01*
X005367Y008699D01*
X005431Y008766D01*
X005498Y008830D01*
X005568Y008891D01*
X005641Y008948D01*
X005717Y009001D01*
X005795Y009051D01*
X005876Y009097D01*
X005959Y009139D01*
X006044Y009176D01*
X006130Y009210D01*
X006218Y009239D01*
X006308Y009263D01*
X006398Y009284D01*
X006490Y009300D01*
X006582Y009311D01*
X006674Y009318D01*
X006767Y009320D01*
X006860Y009318D01*
X006952Y009311D01*
X007044Y009300D01*
X007136Y009284D01*
X007226Y009263D01*
X007316Y009239D01*
X007404Y009210D01*
X007490Y009176D01*
X007575Y009139D01*
X007658Y009097D01*
X007739Y009051D01*
X007817Y009001D01*
X007893Y008948D01*
X007966Y008891D01*
X008036Y008830D01*
X008103Y008766D01*
X008167Y008699D01*
X008228Y008629D01*
X008285Y008556D01*
X008338Y008480D01*
X008388Y008402D01*
X008434Y008321D01*
X008476Y008238D01*
X008513Y008153D01*
X008547Y008067D01*
X008576Y007979D01*
X008600Y007889D01*
X008621Y007799D01*
X008637Y007707D01*
X008648Y007615D01*
X008655Y007523D01*
X008657Y007430D01*
X008655Y007337D01*
X008648Y007245D01*
X008637Y007153D01*
X008621Y007061D01*
X008600Y006971D01*
X008576Y006881D01*
X008547Y006793D01*
X008513Y006707D01*
X008476Y006622D01*
X008434Y006539D01*
X008388Y006458D01*
X008338Y006380D01*
X008285Y006304D01*
X008228Y006231D01*
X008167Y006161D01*
X008103Y006094D01*
X008036Y006030D01*
X007966Y005969D01*
X007893Y005912D01*
X007817Y005859D01*
X007739Y005809D01*
X007658Y005763D01*
X007575Y005721D01*
X007490Y005684D01*
X007404Y005650D01*
X007316Y005621D01*
X007226Y005597D01*
X007136Y005576D01*
X007044Y005560D01*
X006952Y005549D01*
X006860Y005542D01*
X006767Y005540D01*
X006674Y005542D01*
X006582Y005549D01*
X006490Y005560D01*
X006398Y005576D01*
X006308Y005597D01*
X006218Y005621D01*
X006130Y005650D01*
X006044Y005684D01*
X005959Y005721D01*
X005876Y005763D01*
X005795Y005809D01*
X005717Y005859D01*
X005641Y005912D01*
X005568Y005969D01*
X005498Y006030D01*
X005431Y006094D01*
X005367Y006161D01*
X005306Y006231D01*
X005249Y006304D01*
X005196Y006380D01*
X005146Y006458D01*
X005100Y006539D01*
X005058Y006622D01*
X005021Y006707D01*
X004987Y006793D01*
X004958Y006881D01*
X004934Y006971D01*
X004913Y007061D01*
X004897Y007153D01*
X004886Y007245D01*
X004879Y007337D01*
X004877Y007430D01*
X005330Y008631D02*
X008204Y008631D01*
X008120Y008709D02*
X005406Y008709D01*
X005482Y008788D02*
X008037Y008788D01*
X003954Y006229D02*
X003791Y006062D01*
X003610Y005915D01*
X003412Y005792D01*
X003200Y005693D01*
X002978Y005621D01*
X002749Y005577D01*
X002517Y005560D01*
X002248Y005591D01*
X001985Y005657D01*
X001733Y005755D01*
X001496Y005885D01*
X001277Y006044D01*
X001080Y006229D01*
X003954Y006229D01*
X003923Y006197D02*
X001113Y006197D01*
X001197Y006119D02*
X003847Y006119D01*
X003765Y006040D02*
X001281Y006040D01*
X001389Y005962D02*
X003667Y005962D01*
X003558Y005883D02*
X001498Y005883D01*
X001642Y005805D02*
X003432Y005805D01*
X003271Y005726D02*
X001806Y005726D01*
X002020Y005648D02*
X003060Y005648D01*
X002649Y005569D02*
X002435Y005569D01*
X000627Y007430D02*
X000629Y007523D01*
X000636Y007615D01*
X000647Y007707D01*
X000663Y007799D01*
X000684Y007889D01*
X000708Y007979D01*
X000737Y008067D01*
X000771Y008153D01*
X000808Y008238D01*
X000850Y008321D01*
X000896Y008402D01*
X000946Y008480D01*
X000999Y008556D01*
X001056Y008629D01*
X001117Y008699D01*
X001181Y008766D01*
X001248Y008830D01*
X001318Y008891D01*
X001391Y008948D01*
X001467Y009001D01*
X001545Y009051D01*
X001626Y009097D01*
X001709Y009139D01*
X001794Y009176D01*
X001880Y009210D01*
X001968Y009239D01*
X002058Y009263D01*
X002148Y009284D01*
X002240Y009300D01*
X002332Y009311D01*
X002424Y009318D01*
X002517Y009320D01*
X002610Y009318D01*
X002702Y009311D01*
X002794Y009300D01*
X002886Y009284D01*
X002976Y009263D01*
X003066Y009239D01*
X003154Y009210D01*
X003240Y009176D01*
X003325Y009139D01*
X003408Y009097D01*
X003489Y009051D01*
X003567Y009001D01*
X003643Y008948D01*
X003716Y008891D01*
X003786Y008830D01*
X003853Y008766D01*
X003917Y008699D01*
X003978Y008629D01*
X004035Y008556D01*
X004088Y008480D01*
X004138Y008402D01*
X004184Y008321D01*
X004226Y008238D01*
X004263Y008153D01*
X004297Y008067D01*
X004326Y007979D01*
X004350Y007889D01*
X004371Y007799D01*
X004387Y007707D01*
X004398Y007615D01*
X004405Y007523D01*
X004407Y007430D01*
X004405Y007337D01*
X004398Y007245D01*
X004387Y007153D01*
X004371Y007061D01*
X004350Y006971D01*
X004326Y006881D01*
X004297Y006793D01*
X004263Y006707D01*
X004226Y006622D01*
X004184Y006539D01*
X004138Y006458D01*
X004088Y006380D01*
X004035Y006304D01*
X003978Y006231D01*
X003917Y006161D01*
X003853Y006094D01*
X003786Y006030D01*
X003716Y005969D01*
X003643Y005912D01*
X003567Y005859D01*
X003489Y005809D01*
X003408Y005763D01*
X003325Y005721D01*
X003240Y005684D01*
X003154Y005650D01*
X003066Y005621D01*
X002976Y005597D01*
X002886Y005576D01*
X002794Y005560D01*
X002702Y005549D01*
X002610Y005542D01*
X002517Y005540D01*
X002424Y005542D01*
X002332Y005549D01*
X002240Y005560D01*
X002148Y005576D01*
X002058Y005597D01*
X001968Y005621D01*
X001880Y005650D01*
X001794Y005684D01*
X001709Y005721D01*
X001626Y005763D01*
X001545Y005809D01*
X001467Y005859D01*
X001391Y005912D01*
X001318Y005969D01*
X001248Y006030D01*
X001181Y006094D01*
X001117Y006161D01*
X001056Y006231D01*
X000999Y006304D01*
X000946Y006380D01*
X000896Y006458D01*
X000850Y006539D01*
X000808Y006622D01*
X000771Y006707D01*
X000737Y006793D01*
X000708Y006881D01*
X000684Y006971D01*
X000663Y007061D01*
X000647Y007153D01*
X000636Y007245D01*
X000629Y007337D01*
X000627Y007430D01*
X012315Y006643D02*
X012315Y005816D01*
X012433Y005816D01*
X012303Y005816D02*
X014311Y005816D01*
X014311Y009084D01*
X012303Y009084D01*
X012303Y005816D01*
X012315Y008217D02*
X012315Y009084D01*
X012472Y009084D01*
X014047Y009084D02*
X014323Y009084D01*
X014323Y005816D01*
X014047Y005816D01*
D15*
X011827Y005550D02*
X011827Y006310D01*
X011207Y006310D02*
X011207Y005550D01*
X011207Y008550D02*
X011207Y009310D01*
X011827Y009310D02*
X011827Y008550D01*
X009577Y008800D02*
X009577Y009560D01*
X008957Y009560D02*
X008957Y008800D01*
X008957Y006060D02*
X008957Y005300D01*
X009577Y005300D02*
X009577Y006060D01*
X009647Y016370D02*
X008887Y016370D01*
X008887Y016990D02*
X009647Y016990D01*
X009397Y020120D02*
X008637Y020120D01*
X008637Y020740D02*
X009397Y020740D01*
X009457Y022050D02*
X009457Y022810D01*
X009077Y022800D02*
X009077Y023560D01*
X008457Y023560D02*
X008457Y022800D01*
X008397Y026370D02*
X007637Y026370D01*
X007637Y026990D02*
X008397Y026990D01*
X007397Y029370D02*
X006637Y029370D01*
X006637Y029990D02*
X007397Y029990D01*
X006743Y031656D02*
X008259Y031656D01*
X008790Y032188D01*
X008790Y032306D01*
X008790Y032188D02*
X008790Y033172D01*
X008259Y033704D01*
X006743Y033704D01*
X006743Y033054D01*
X006881Y032976D02*
X007137Y032976D01*
X007137Y032938D02*
X006871Y032938D01*
X006881Y032975D02*
X006802Y032660D01*
X006881Y032385D01*
X006979Y032149D01*
X007137Y031971D01*
X007137Y033389D01*
X006999Y033211D01*
X006881Y032975D01*
X006900Y033015D02*
X007137Y033015D01*
X007137Y033053D02*
X006920Y033053D01*
X006939Y033092D02*
X007137Y033092D01*
X007137Y033130D02*
X006958Y033130D01*
X006977Y033169D02*
X007137Y033169D01*
X007137Y033207D02*
X006997Y033207D01*
X007025Y033246D02*
X007137Y033246D01*
X007137Y033284D02*
X007055Y033284D01*
X007085Y033323D02*
X007137Y033323D01*
X007137Y033361D02*
X007115Y033361D01*
X007156Y033408D02*
X007156Y031952D01*
X007137Y031975D02*
X007133Y031975D01*
X007137Y032014D02*
X007099Y032014D01*
X007065Y032052D02*
X007137Y032052D01*
X007137Y032091D02*
X007031Y032091D01*
X006997Y032129D02*
X007137Y032129D01*
X007137Y032168D02*
X006971Y032168D01*
X006955Y032206D02*
X007137Y032206D01*
X007137Y032245D02*
X006939Y032245D01*
X006923Y032283D02*
X007137Y032283D01*
X007137Y032322D02*
X006907Y032322D01*
X006891Y032360D02*
X007137Y032360D01*
X007137Y032399D02*
X006877Y032399D01*
X006866Y032437D02*
X007137Y032437D01*
X007137Y032476D02*
X006855Y032476D01*
X006844Y032514D02*
X007137Y032514D01*
X007137Y032553D02*
X006833Y032553D01*
X006822Y032591D02*
X007137Y032591D01*
X007137Y032630D02*
X006811Y032630D01*
X006804Y032668D02*
X007137Y032668D01*
X007137Y032707D02*
X006814Y032707D01*
X006823Y032745D02*
X007137Y032745D01*
X007137Y032784D02*
X006833Y032784D01*
X006843Y032822D02*
X007137Y032822D01*
X007137Y032861D02*
X006852Y032861D01*
X006862Y032899D02*
X007137Y032899D01*
X006743Y032306D02*
X006743Y031656D01*
X006743Y033704D01*
X008259Y033704D01*
X008790Y033172D01*
X008790Y033054D01*
X008790Y032188D02*
X008259Y031656D01*
X006743Y031656D01*
X006827Y034550D02*
X006827Y035310D01*
X007243Y034938D02*
X007775Y034406D01*
X007893Y034406D01*
X007775Y034406D02*
X008759Y034406D01*
X009290Y034938D01*
X009290Y036454D01*
X008641Y036454D01*
X008562Y036316D02*
X008798Y036198D01*
X008975Y036060D01*
X007558Y036060D01*
X007735Y036217D01*
X007971Y036316D01*
X008247Y036395D01*
X008562Y036316D01*
X008523Y036326D02*
X008005Y036326D01*
X007902Y036287D02*
X008619Y036287D01*
X008696Y036249D02*
X007810Y036249D01*
X007727Y036210D02*
X008773Y036210D01*
X008832Y036172D02*
X007684Y036172D01*
X007640Y036133D02*
X008881Y036133D01*
X008931Y036095D02*
X007597Y036095D01*
X007538Y036040D02*
X008995Y036040D01*
X009290Y036454D02*
X009290Y034938D01*
X008759Y034406D01*
X008641Y034406D01*
X007302Y035430D02*
X007304Y035492D01*
X007310Y035553D01*
X007320Y035614D01*
X007334Y035675D01*
X007351Y035734D01*
X007373Y035792D01*
X007398Y035849D01*
X007426Y035904D01*
X007458Y035956D01*
X007494Y036007D01*
X007532Y036056D01*
X007574Y036101D01*
X007618Y036144D01*
X007665Y036184D01*
X007715Y036221D01*
X007767Y036255D01*
X007821Y036286D01*
X007876Y036312D01*
X007934Y036336D01*
X007992Y036355D01*
X008052Y036371D01*
X008113Y036383D01*
X008174Y036391D01*
X008236Y036395D01*
X008298Y036395D01*
X008360Y036391D01*
X008421Y036383D01*
X008482Y036371D01*
X008542Y036355D01*
X008600Y036336D01*
X008658Y036312D01*
X008713Y036286D01*
X008767Y036255D01*
X008819Y036221D01*
X008869Y036184D01*
X008916Y036144D01*
X008960Y036101D01*
X009002Y036056D01*
X009040Y036007D01*
X009076Y035956D01*
X009108Y035904D01*
X009136Y035849D01*
X009161Y035792D01*
X009183Y035734D01*
X009200Y035675D01*
X009214Y035614D01*
X009224Y035553D01*
X009230Y035492D01*
X009232Y035430D01*
X009230Y035368D01*
X009224Y035307D01*
X009214Y035246D01*
X009200Y035185D01*
X009183Y035126D01*
X009161Y035068D01*
X009136Y035011D01*
X009108Y034956D01*
X009076Y034904D01*
X009040Y034853D01*
X009002Y034804D01*
X008960Y034759D01*
X008916Y034716D01*
X008869Y034676D01*
X008819Y034639D01*
X008767Y034605D01*
X008713Y034574D01*
X008658Y034548D01*
X008600Y034524D01*
X008542Y034505D01*
X008482Y034489D01*
X008421Y034477D01*
X008360Y034469D01*
X008298Y034465D01*
X008236Y034465D01*
X008174Y034469D01*
X008113Y034477D01*
X008052Y034489D01*
X007992Y034505D01*
X007934Y034524D01*
X007876Y034548D01*
X007821Y034574D01*
X007767Y034605D01*
X007715Y034639D01*
X007665Y034676D01*
X007618Y034716D01*
X007574Y034759D01*
X007532Y034804D01*
X007494Y034853D01*
X007458Y034904D01*
X007426Y034956D01*
X007398Y035011D01*
X007373Y035068D01*
X007351Y035126D01*
X007334Y035185D01*
X007320Y035246D01*
X007310Y035307D01*
X007304Y035368D01*
X007302Y035430D01*
X007243Y034938D02*
X007243Y036454D01*
X007893Y036454D01*
X008140Y036364D02*
X008369Y036364D01*
X008602Y036335D02*
X008659Y036312D01*
X008714Y036285D01*
X008768Y036255D01*
X008820Y036221D01*
X008869Y036184D01*
X008916Y036144D01*
X008961Y036101D01*
X009002Y036055D01*
X009041Y036007D01*
X009076Y035956D01*
X009108Y035903D01*
X009137Y035848D01*
X009162Y035792D01*
X009183Y035734D01*
X009201Y035675D01*
X009214Y035614D01*
X009224Y035553D01*
X009230Y035492D01*
X009232Y035430D01*
X009230Y035368D01*
X009224Y035307D01*
X009214Y035246D01*
X009201Y035185D01*
X009183Y035126D01*
X009162Y035068D01*
X009137Y035012D01*
X009108Y034957D01*
X009076Y034904D01*
X009041Y034853D01*
X009002Y034805D01*
X008961Y034759D01*
X008916Y034716D01*
X008869Y034676D01*
X008820Y034639D01*
X008768Y034605D01*
X008714Y034575D01*
X008659Y034548D01*
X008602Y034525D01*
X007932Y034525D02*
X007875Y034548D01*
X007820Y034575D01*
X007766Y034605D01*
X007714Y034639D01*
X007665Y034676D01*
X007618Y034716D01*
X007573Y034759D01*
X007532Y034805D01*
X007493Y034853D01*
X007458Y034904D01*
X007426Y034957D01*
X007397Y035012D01*
X007372Y035068D01*
X007351Y035126D01*
X007333Y035185D01*
X007320Y035246D01*
X007310Y035307D01*
X007304Y035368D01*
X007302Y035430D01*
X007304Y035492D01*
X007310Y035553D01*
X007320Y035614D01*
X007333Y035675D01*
X007351Y035734D01*
X007372Y035792D01*
X007397Y035848D01*
X007426Y035903D01*
X007458Y035956D01*
X007493Y036007D01*
X007532Y036055D01*
X007573Y036101D01*
X007618Y036144D01*
X007665Y036184D01*
X007714Y036221D01*
X007766Y036255D01*
X007820Y036285D01*
X007875Y036312D01*
X007932Y036335D01*
X007243Y036454D02*
X007243Y034938D01*
X007775Y034406D01*
X006802Y032680D02*
X006804Y032742D01*
X006810Y032803D01*
X006820Y032864D01*
X006834Y032925D01*
X006851Y032984D01*
X006873Y033042D01*
X006898Y033099D01*
X006926Y033154D01*
X006958Y033206D01*
X006994Y033257D01*
X007032Y033306D01*
X007074Y033351D01*
X007118Y033394D01*
X007165Y033434D01*
X007215Y033471D01*
X007267Y033505D01*
X007321Y033536D01*
X007376Y033562D01*
X007434Y033586D01*
X007492Y033605D01*
X007552Y033621D01*
X007613Y033633D01*
X007674Y033641D01*
X007736Y033645D01*
X007798Y033645D01*
X007860Y033641D01*
X007921Y033633D01*
X007982Y033621D01*
X008042Y033605D01*
X008100Y033586D01*
X008158Y033562D01*
X008213Y033536D01*
X008267Y033505D01*
X008319Y033471D01*
X008369Y033434D01*
X008416Y033394D01*
X008460Y033351D01*
X008502Y033306D01*
X008540Y033257D01*
X008576Y033206D01*
X008608Y033154D01*
X008636Y033099D01*
X008661Y033042D01*
X008683Y032984D01*
X008700Y032925D01*
X008714Y032864D01*
X008724Y032803D01*
X008730Y032742D01*
X008732Y032680D01*
X008730Y032618D01*
X008724Y032557D01*
X008714Y032496D01*
X008700Y032435D01*
X008683Y032376D01*
X008661Y032318D01*
X008636Y032261D01*
X008608Y032206D01*
X008576Y032154D01*
X008540Y032103D01*
X008502Y032054D01*
X008460Y032009D01*
X008416Y031966D01*
X008369Y031926D01*
X008319Y031889D01*
X008267Y031855D01*
X008213Y031824D01*
X008158Y031798D01*
X008100Y031774D01*
X008042Y031755D01*
X007982Y031739D01*
X007921Y031727D01*
X007860Y031719D01*
X007798Y031715D01*
X007736Y031715D01*
X007674Y031719D01*
X007613Y031727D01*
X007552Y031739D01*
X007492Y031755D01*
X007434Y031774D01*
X007376Y031798D01*
X007321Y031824D01*
X007267Y031855D01*
X007215Y031889D01*
X007165Y031926D01*
X007118Y031966D01*
X007074Y032009D01*
X007032Y032054D01*
X006994Y032103D01*
X006958Y032154D01*
X006926Y032206D01*
X006898Y032261D01*
X006873Y032318D01*
X006851Y032376D01*
X006834Y032435D01*
X006820Y032496D01*
X006810Y032557D01*
X006804Y032618D01*
X006802Y032680D01*
X006207Y034550D02*
X006207Y035310D01*
X007243Y036454D02*
X009290Y036454D01*
X009707Y034310D02*
X009707Y033550D01*
X010327Y033550D02*
X010327Y034310D01*
X010457Y030810D02*
X010457Y030050D01*
X010327Y028560D02*
X010327Y027800D01*
X009707Y027800D02*
X009707Y028560D01*
X011137Y027990D02*
X011897Y027990D01*
X011897Y027370D02*
X011137Y027370D01*
X011207Y026310D02*
X011207Y025550D01*
X011827Y025550D02*
X011827Y026310D01*
X012457Y023810D02*
X012457Y023050D01*
X013077Y023050D02*
X013077Y023810D01*
X013077Y020310D02*
X013077Y019550D01*
X012457Y019550D02*
X012457Y020310D01*
X010077Y022050D02*
X010077Y022810D01*
X012275Y029406D02*
X011743Y029938D01*
X011743Y030056D01*
X011743Y029938D02*
X012275Y029406D01*
X013790Y029406D01*
X013790Y030056D01*
X013649Y030127D02*
X013397Y030127D01*
X013397Y030089D02*
X013629Y030089D01*
X013610Y030050D02*
X013397Y030050D01*
X013397Y030012D02*
X013591Y030012D01*
X013572Y029973D02*
X013397Y029973D01*
X013397Y029935D02*
X013552Y029935D01*
X013534Y029899D02*
X013397Y029721D01*
X013397Y031139D01*
X013554Y030961D01*
X013652Y030725D01*
X013731Y030450D01*
X013652Y030135D01*
X013534Y029899D01*
X013532Y029896D02*
X013397Y029896D01*
X013397Y029858D02*
X013503Y029858D01*
X013473Y029819D02*
X013397Y029819D01*
X013397Y029781D02*
X013443Y029781D01*
X013413Y029742D02*
X013397Y029742D01*
X013377Y029702D02*
X013377Y031158D01*
X013397Y031128D02*
X013406Y031128D01*
X013397Y031090D02*
X013440Y031090D01*
X013474Y031051D02*
X013397Y031051D01*
X013397Y031013D02*
X013509Y031013D01*
X013543Y030974D02*
X013397Y030974D01*
X013397Y030936D02*
X013565Y030936D01*
X013581Y030897D02*
X013397Y030897D01*
X013397Y030859D02*
X013597Y030859D01*
X013613Y030820D02*
X013397Y030820D01*
X013397Y030782D02*
X013629Y030782D01*
X013645Y030743D02*
X013397Y030743D01*
X013397Y030705D02*
X013658Y030705D01*
X013669Y030666D02*
X013397Y030666D01*
X013397Y030628D02*
X013680Y030628D01*
X013691Y030589D02*
X013397Y030589D01*
X013397Y030551D02*
X013702Y030551D01*
X013713Y030512D02*
X013397Y030512D01*
X013397Y030474D02*
X013724Y030474D01*
X013728Y030435D02*
X013397Y030435D01*
X013397Y030397D02*
X013718Y030397D01*
X013708Y030358D02*
X013397Y030358D01*
X013397Y030320D02*
X013699Y030320D01*
X013689Y030281D02*
X013397Y030281D01*
X013397Y030243D02*
X013679Y030243D01*
X013670Y030204D02*
X013397Y030204D01*
X013397Y030166D02*
X013660Y030166D01*
X013790Y030804D02*
X013790Y031454D01*
X012275Y031454D01*
X011743Y030922D01*
X011743Y030804D01*
X011743Y030922D02*
X011743Y029938D01*
X011743Y030922D02*
X012275Y031454D01*
X013790Y031454D01*
X013790Y029406D01*
X012275Y029406D01*
X011862Y030095D02*
X011885Y030038D01*
X011912Y029983D01*
X011942Y029929D01*
X011976Y029877D01*
X012013Y029828D01*
X012053Y029781D01*
X012096Y029736D01*
X012142Y029695D01*
X012190Y029656D01*
X012241Y029621D01*
X012294Y029589D01*
X012349Y029560D01*
X012405Y029535D01*
X012463Y029514D01*
X012522Y029496D01*
X012583Y029483D01*
X012644Y029473D01*
X012705Y029467D01*
X012767Y029465D01*
X012829Y029467D01*
X012890Y029473D01*
X012951Y029483D01*
X013012Y029496D01*
X013071Y029514D01*
X013129Y029535D01*
X013185Y029560D01*
X013240Y029589D01*
X013293Y029621D01*
X013344Y029656D01*
X013392Y029695D01*
X013438Y029736D01*
X013481Y029781D01*
X013521Y029828D01*
X013558Y029877D01*
X013592Y029929D01*
X013622Y029983D01*
X013649Y030038D01*
X013672Y030095D01*
X011802Y030430D02*
X011804Y030492D01*
X011810Y030553D01*
X011820Y030614D01*
X011834Y030675D01*
X011851Y030734D01*
X011873Y030792D01*
X011898Y030849D01*
X011926Y030904D01*
X011958Y030956D01*
X011994Y031007D01*
X012032Y031056D01*
X012074Y031101D01*
X012118Y031144D01*
X012165Y031184D01*
X012215Y031221D01*
X012267Y031255D01*
X012321Y031286D01*
X012376Y031312D01*
X012434Y031336D01*
X012492Y031355D01*
X012552Y031371D01*
X012613Y031383D01*
X012674Y031391D01*
X012736Y031395D01*
X012798Y031395D01*
X012860Y031391D01*
X012921Y031383D01*
X012982Y031371D01*
X013042Y031355D01*
X013100Y031336D01*
X013158Y031312D01*
X013213Y031286D01*
X013267Y031255D01*
X013319Y031221D01*
X013369Y031184D01*
X013416Y031144D01*
X013460Y031101D01*
X013502Y031056D01*
X013540Y031007D01*
X013576Y030956D01*
X013608Y030904D01*
X013636Y030849D01*
X013661Y030792D01*
X013683Y030734D01*
X013700Y030675D01*
X013714Y030614D01*
X013724Y030553D01*
X013730Y030492D01*
X013732Y030430D01*
X013730Y030368D01*
X013724Y030307D01*
X013714Y030246D01*
X013700Y030185D01*
X013683Y030126D01*
X013661Y030068D01*
X013636Y030011D01*
X013608Y029956D01*
X013576Y029904D01*
X013540Y029853D01*
X013502Y029804D01*
X013460Y029759D01*
X013416Y029716D01*
X013369Y029676D01*
X013319Y029639D01*
X013267Y029605D01*
X013213Y029574D01*
X013158Y029548D01*
X013100Y029524D01*
X013042Y029505D01*
X012982Y029489D01*
X012921Y029477D01*
X012860Y029469D01*
X012798Y029465D01*
X012736Y029465D01*
X012674Y029469D01*
X012613Y029477D01*
X012552Y029489D01*
X012492Y029505D01*
X012434Y029524D01*
X012376Y029548D01*
X012321Y029574D01*
X012267Y029605D01*
X012215Y029639D01*
X012165Y029676D01*
X012118Y029716D01*
X012074Y029759D01*
X012032Y029804D01*
X011994Y029853D01*
X011958Y029904D01*
X011926Y029956D01*
X011898Y030011D01*
X011873Y030068D01*
X011851Y030126D01*
X011834Y030185D01*
X011820Y030246D01*
X011810Y030307D01*
X011804Y030368D01*
X011802Y030430D01*
X011077Y030810D02*
X011077Y030050D01*
X011862Y030765D02*
X011885Y030822D01*
X011912Y030877D01*
X011942Y030931D01*
X011976Y030983D01*
X012013Y031032D01*
X012053Y031079D01*
X012096Y031124D01*
X012142Y031165D01*
X012190Y031204D01*
X012241Y031239D01*
X012294Y031271D01*
X012349Y031300D01*
X012405Y031325D01*
X012463Y031346D01*
X012522Y031364D01*
X012583Y031377D01*
X012644Y031387D01*
X012705Y031393D01*
X012767Y031395D01*
X012829Y031393D01*
X012890Y031387D01*
X012951Y031377D01*
X013012Y031364D01*
X013071Y031346D01*
X013129Y031325D01*
X013185Y031300D01*
X013240Y031271D01*
X013293Y031239D01*
X013344Y031204D01*
X013392Y031165D01*
X013438Y031124D01*
X013481Y031079D01*
X013521Y031032D01*
X013558Y030983D01*
X013592Y030931D01*
X013622Y030877D01*
X013649Y030822D01*
X013672Y030765D01*
X013327Y034550D02*
X013327Y035310D01*
X012707Y035310D02*
X012707Y034550D01*
X012577Y038800D02*
X012577Y039560D01*
X011957Y039560D02*
X011957Y038800D01*
X010897Y038990D02*
X010137Y038990D01*
X010137Y038370D02*
X010897Y038370D01*
X008672Y033015D02*
X008649Y033072D01*
X008622Y033127D01*
X008592Y033181D01*
X008558Y033233D01*
X008521Y033282D01*
X008481Y033329D01*
X008438Y033374D01*
X008392Y033415D01*
X008344Y033454D01*
X008293Y033489D01*
X008240Y033521D01*
X008185Y033550D01*
X008129Y033575D01*
X008071Y033596D01*
X008012Y033614D01*
X007951Y033627D01*
X007890Y033637D01*
X007829Y033643D01*
X007767Y033645D01*
X007705Y033643D01*
X007644Y033637D01*
X007583Y033627D01*
X007522Y033614D01*
X007463Y033596D01*
X007405Y033575D01*
X007349Y033550D01*
X007294Y033521D01*
X007241Y033489D01*
X007190Y033454D01*
X007142Y033415D01*
X007096Y033374D01*
X007053Y033329D01*
X007013Y033282D01*
X006976Y033233D01*
X006942Y033181D01*
X006912Y033127D01*
X006885Y033072D01*
X006862Y033015D01*
X006862Y032345D02*
X006885Y032288D01*
X006912Y032233D01*
X006942Y032179D01*
X006976Y032127D01*
X007013Y032078D01*
X007053Y032031D01*
X007096Y031986D01*
X007142Y031945D01*
X007190Y031906D01*
X007241Y031871D01*
X007294Y031839D01*
X007349Y031810D01*
X007405Y031785D01*
X007463Y031764D01*
X007522Y031746D01*
X007583Y031733D01*
X007644Y031723D01*
X007705Y031717D01*
X007767Y031715D01*
X007829Y031717D01*
X007890Y031723D01*
X007951Y031733D01*
X008012Y031746D01*
X008071Y031764D01*
X008129Y031785D01*
X008185Y031810D01*
X008240Y031839D01*
X008293Y031871D01*
X008344Y031906D01*
X008392Y031945D01*
X008438Y031986D01*
X008481Y032031D01*
X008521Y032078D01*
X008558Y032127D01*
X008592Y032179D01*
X008622Y032233D01*
X008649Y032288D01*
X008672Y032345D01*
X006077Y038800D02*
X006077Y039560D01*
X005457Y039560D02*
X005457Y038800D01*
X004397Y038990D02*
X003637Y038990D01*
X003637Y038370D02*
X004397Y038370D01*
X003827Y034310D02*
X003827Y033550D01*
X003827Y031060D02*
X003827Y030300D01*
X004457Y028560D02*
X004457Y027800D01*
X005077Y027800D02*
X005077Y028560D01*
X003647Y027990D02*
X002887Y027990D01*
X002887Y027370D02*
X003647Y027370D01*
X002827Y026310D02*
X002827Y025550D01*
X002207Y025550D02*
X002207Y026310D01*
X002327Y022810D02*
X002327Y022050D01*
X001707Y022050D02*
X001707Y022810D01*
X002707Y020310D02*
X002707Y019550D01*
X003327Y019550D02*
X003327Y020310D01*
X004707Y023050D02*
X004707Y023810D01*
X005327Y023810D02*
X005327Y023050D01*
X005707Y022810D02*
X005707Y022050D01*
X006327Y022050D02*
X006327Y022810D01*
X005897Y019740D02*
X005137Y019740D01*
X005137Y019120D02*
X005897Y019120D01*
X006147Y016990D02*
X005387Y016990D01*
X005387Y016370D02*
X006147Y016370D01*
X003207Y030300D02*
X003207Y031060D01*
X003207Y033550D02*
X003207Y034310D01*
X002790Y034938D02*
X002790Y036454D01*
X002141Y036454D01*
X002062Y036316D02*
X002298Y036198D01*
X002475Y036060D01*
X001058Y036060D01*
X001235Y036217D01*
X001471Y036316D01*
X001747Y036395D01*
X002062Y036316D01*
X002023Y036326D02*
X001505Y036326D01*
X001402Y036287D02*
X002119Y036287D01*
X002196Y036249D02*
X001310Y036249D01*
X001227Y036210D02*
X002273Y036210D01*
X002332Y036172D02*
X001184Y036172D01*
X001140Y036133D02*
X002381Y036133D01*
X002431Y036095D02*
X001097Y036095D01*
X001038Y036040D02*
X002495Y036040D01*
X002790Y036454D02*
X002790Y034938D01*
X002259Y034406D01*
X002141Y034406D01*
X002259Y034406D02*
X002790Y034938D01*
X002790Y036454D02*
X000743Y036454D01*
X000743Y034938D01*
X001275Y034406D01*
X001393Y034406D01*
X001275Y034406D02*
X002259Y034406D01*
X000802Y035430D02*
X000804Y035492D01*
X000810Y035553D01*
X000820Y035614D01*
X000834Y035675D01*
X000851Y035734D01*
X000873Y035792D01*
X000898Y035849D01*
X000926Y035904D01*
X000958Y035956D01*
X000994Y036007D01*
X001032Y036056D01*
X001074Y036101D01*
X001118Y036144D01*
X001165Y036184D01*
X001215Y036221D01*
X001267Y036255D01*
X001321Y036286D01*
X001376Y036312D01*
X001434Y036336D01*
X001492Y036355D01*
X001552Y036371D01*
X001613Y036383D01*
X001674Y036391D01*
X001736Y036395D01*
X001798Y036395D01*
X001860Y036391D01*
X001921Y036383D01*
X001982Y036371D01*
X002042Y036355D01*
X002100Y036336D01*
X002158Y036312D01*
X002213Y036286D01*
X002267Y036255D01*
X002319Y036221D01*
X002369Y036184D01*
X002416Y036144D01*
X002460Y036101D01*
X002502Y036056D01*
X002540Y036007D01*
X002576Y035956D01*
X002608Y035904D01*
X002636Y035849D01*
X002661Y035792D01*
X002683Y035734D01*
X002700Y035675D01*
X002714Y035614D01*
X002724Y035553D01*
X002730Y035492D01*
X002732Y035430D01*
X002730Y035368D01*
X002724Y035307D01*
X002714Y035246D01*
X002700Y035185D01*
X002683Y035126D01*
X002661Y035068D01*
X002636Y035011D01*
X002608Y034956D01*
X002576Y034904D01*
X002540Y034853D01*
X002502Y034804D01*
X002460Y034759D01*
X002416Y034716D01*
X002369Y034676D01*
X002319Y034639D01*
X002267Y034605D01*
X002213Y034574D01*
X002158Y034548D01*
X002100Y034524D01*
X002042Y034505D01*
X001982Y034489D01*
X001921Y034477D01*
X001860Y034469D01*
X001798Y034465D01*
X001736Y034465D01*
X001674Y034469D01*
X001613Y034477D01*
X001552Y034489D01*
X001492Y034505D01*
X001434Y034524D01*
X001376Y034548D01*
X001321Y034574D01*
X001267Y034605D01*
X001215Y034639D01*
X001165Y034676D01*
X001118Y034716D01*
X001074Y034759D01*
X001032Y034804D01*
X000994Y034853D01*
X000958Y034904D01*
X000926Y034956D01*
X000898Y035011D01*
X000873Y035068D01*
X000851Y035126D01*
X000834Y035185D01*
X000820Y035246D01*
X000810Y035307D01*
X000804Y035368D01*
X000802Y035430D01*
X000743Y034938D02*
X001275Y034406D01*
X002102Y034525D02*
X002159Y034548D01*
X002214Y034575D01*
X002268Y034605D01*
X002320Y034639D01*
X002369Y034676D01*
X002416Y034716D01*
X002461Y034759D01*
X002502Y034805D01*
X002541Y034853D01*
X002576Y034904D01*
X002608Y034957D01*
X002637Y035012D01*
X002662Y035068D01*
X002683Y035126D01*
X002701Y035185D01*
X002714Y035246D01*
X002724Y035307D01*
X002730Y035368D01*
X002732Y035430D01*
X002730Y035492D01*
X002724Y035553D01*
X002714Y035614D01*
X002701Y035675D01*
X002683Y035734D01*
X002662Y035792D01*
X002637Y035848D01*
X002608Y035903D01*
X002576Y035956D01*
X002541Y036007D01*
X002502Y036055D01*
X002461Y036101D01*
X002416Y036144D01*
X002369Y036184D01*
X002320Y036221D01*
X002268Y036255D01*
X002214Y036285D01*
X002159Y036312D01*
X002102Y036335D01*
X001869Y036364D02*
X001640Y036364D01*
X001393Y036454D02*
X000743Y036454D01*
X000743Y034938D01*
X001432Y034525D02*
X001375Y034548D01*
X001320Y034575D01*
X001266Y034605D01*
X001214Y034639D01*
X001165Y034676D01*
X001118Y034716D01*
X001073Y034759D01*
X001032Y034805D01*
X000993Y034853D01*
X000958Y034904D01*
X000926Y034957D01*
X000897Y035012D01*
X000872Y035068D01*
X000851Y035126D01*
X000833Y035185D01*
X000820Y035246D01*
X000810Y035307D01*
X000804Y035368D01*
X000802Y035430D01*
X000804Y035492D01*
X000810Y035553D01*
X000820Y035614D01*
X000833Y035675D01*
X000851Y035734D01*
X000872Y035792D01*
X000897Y035848D01*
X000926Y035903D01*
X000958Y035956D01*
X000993Y036007D01*
X001032Y036055D01*
X001073Y036101D01*
X001118Y036144D01*
X001165Y036184D01*
X001214Y036221D01*
X001266Y036255D01*
X001320Y036285D01*
X001375Y036312D01*
X001432Y036335D01*
D16*
X003517Y034452D03*
X003516Y033408D03*
X003517Y031202D03*
X003516Y030158D03*
X002517Y026452D03*
X002516Y025408D03*
X002017Y022952D03*
X002016Y021908D03*
X003017Y020452D03*
X003016Y019408D03*
X005016Y022908D03*
X005017Y023952D03*
X006017Y022952D03*
X006016Y021908D03*
X004766Y027658D03*
X004767Y028702D03*
X006516Y034408D03*
X006517Y035452D03*
X005766Y038658D03*
X005767Y039702D03*
X010017Y034452D03*
X010016Y033408D03*
X010767Y030952D03*
X010766Y029908D03*
X010017Y028702D03*
X010016Y027658D03*
X008767Y023702D03*
X008766Y022658D03*
X009767Y022952D03*
X009766Y021908D03*
X011516Y025408D03*
X011517Y026452D03*
X012767Y023952D03*
X012766Y022908D03*
X012767Y020452D03*
X012766Y019408D03*
X011517Y009452D03*
X011516Y008408D03*
X011517Y006452D03*
X011516Y005408D03*
X009266Y005158D03*
X009267Y006202D03*
X009266Y008658D03*
X009267Y009702D03*
X013016Y034408D03*
X013017Y035452D03*
X012266Y038658D03*
X012267Y039702D03*
D17*
X012267Y035360D03*
X011767Y035360D03*
X011267Y035360D03*
X010767Y035360D03*
X010767Y033500D03*
X011267Y033500D03*
X011767Y033500D03*
X012267Y033500D03*
X012017Y023860D03*
X011517Y023860D03*
X011017Y023860D03*
X011017Y022000D03*
X011517Y022000D03*
X012017Y022000D03*
X010517Y022000D03*
X010517Y023860D03*
X005767Y033500D03*
X005267Y033500D03*
X004767Y033500D03*
X004267Y033500D03*
X004267Y035360D03*
X004767Y035360D03*
X005267Y035360D03*
X005767Y035360D03*
X004267Y023860D03*
X003767Y023860D03*
X003267Y023860D03*
X002767Y023860D03*
X002767Y022000D03*
X003267Y022000D03*
X003767Y022000D03*
X004267Y022000D03*
D18*
X003962Y020430D03*
X005072Y020430D03*
X005962Y020430D03*
X007072Y020430D03*
X008462Y019430D03*
X009572Y019430D03*
X010462Y020430D03*
X011572Y020430D03*
X012072Y028680D03*
X012072Y032180D03*
X012962Y032180D03*
X014072Y032180D03*
X011072Y036680D03*
X011072Y037680D03*
X009962Y037680D03*
X009962Y036680D03*
X010962Y032180D03*
X010962Y028680D03*
X006822Y030930D03*
X005712Y030930D03*
X005572Y032180D03*
X004462Y032180D03*
X003822Y028680D03*
X002712Y028680D03*
X003462Y036680D03*
X003462Y037680D03*
X004572Y037680D03*
X004572Y036680D03*
X004087Y004930D03*
X005197Y004930D03*
D19*
X005244Y016680D03*
X004994Y019430D03*
X006039Y019430D03*
X006289Y016680D03*
X008494Y020430D03*
X009539Y020430D03*
X009789Y016680D03*
X008744Y016680D03*
X008539Y026680D03*
X007494Y026680D03*
X007539Y029680D03*
X006494Y029680D03*
X003789Y027680D03*
X002744Y027680D03*
X003494Y038680D03*
X004539Y038680D03*
X009994Y038680D03*
X011039Y038680D03*
X010994Y027680D03*
X012039Y027680D03*
D20*
X008267Y034377D03*
X008267Y036483D03*
X001767Y036483D03*
X001767Y034377D03*
D21*
X006714Y032680D03*
X008820Y032680D03*
X011714Y030430D03*
X013820Y030430D03*
D22*
X008447Y028930D03*
X008447Y028430D03*
X008447Y027930D03*
X008447Y027430D03*
X006587Y027430D03*
X006587Y027930D03*
X006587Y028430D03*
X006587Y028930D03*
D23*
X009834Y009875D02*
X009834Y007985D01*
X010700Y007985D01*
X010700Y009875D01*
X009834Y009875D01*
X009991Y008950D02*
X010267Y008458D01*
X010542Y008950D01*
X009991Y008950D01*
X009834Y006875D02*
X009834Y004985D01*
X010700Y004985D01*
X010700Y006875D01*
X009834Y006875D01*
X009991Y005950D02*
X010267Y005458D01*
X010542Y005950D01*
X009991Y005950D01*
D24*
X010257Y006963D03*
X010257Y007897D03*
X010257Y009963D03*
X010257Y004897D03*
D25*
X010267Y005438D03*
X010267Y008438D03*
M02*
