G75*
G70*
%OFA0B0*%
%FSLAX24Y24*%
%IPPOS*%
%LPD*%
%AMOC8*
5,1,8,0,0,1.08239X$1,22.5*
%
%ADD10C,0.0000*%
%ADD11C,0.0180*%
%ADD12C,0.0320*%
%ADD13R,0.1750X0.0500*%
%ADD14C,0.0500*%
%ADD15C,0.0140*%
%ADD16C,0.0160*%
%ADD17C,0.0100*%
%ADD18C,0.0120*%
%ADD19C,0.0040*%
%ADD20R,0.0197X0.0049*%
%ADD21R,0.0089X0.0128*%
%ADD22R,0.0049X0.0089*%
%ADD23R,0.0167X0.0049*%
%ADD24R,0.0197X0.0138*%
%ADD25R,0.0236X0.0049*%
%ADD26R,0.0669X0.0118*%
%ADD27R,0.0669X0.0276*%
%ADD28R,0.0128X0.0167*%
%ADD29R,0.0138X0.0138*%
D10*
X000142Y000180D02*
X000142Y050680D01*
X014892Y050680D01*
X014892Y000180D01*
X000142Y000180D01*
X000986Y001330D02*
X000988Y001376D01*
X000994Y001421D01*
X001004Y001466D01*
X001017Y001509D01*
X001034Y001552D01*
X001055Y001592D01*
X001079Y001631D01*
X001107Y001667D01*
X001138Y001701D01*
X001171Y001733D01*
X001207Y001761D01*
X001245Y001786D01*
X001285Y001808D01*
X001327Y001826D01*
X001370Y001840D01*
X001415Y001851D01*
X001460Y001858D01*
X001506Y001861D01*
X001551Y001860D01*
X001597Y001855D01*
X001642Y001846D01*
X001685Y001834D01*
X001728Y001817D01*
X001769Y001797D01*
X001808Y001774D01*
X001846Y001747D01*
X001880Y001717D01*
X001912Y001685D01*
X001941Y001649D01*
X001967Y001612D01*
X001990Y001572D01*
X002009Y001531D01*
X002024Y001488D01*
X002036Y001443D01*
X002044Y001398D01*
X002048Y001353D01*
X002048Y001307D01*
X002044Y001262D01*
X002036Y001217D01*
X002024Y001172D01*
X002009Y001129D01*
X001990Y001088D01*
X001967Y001048D01*
X001941Y001011D01*
X001912Y000975D01*
X001880Y000943D01*
X001846Y000913D01*
X001808Y000886D01*
X001769Y000863D01*
X001728Y000843D01*
X001685Y000826D01*
X001642Y000814D01*
X001597Y000805D01*
X001551Y000800D01*
X001506Y000799D01*
X001460Y000802D01*
X001415Y000809D01*
X001370Y000820D01*
X001327Y000834D01*
X001285Y000852D01*
X001245Y000874D01*
X001207Y000899D01*
X001171Y000927D01*
X001138Y000959D01*
X001107Y000993D01*
X001079Y001029D01*
X001055Y001068D01*
X001034Y001108D01*
X001017Y001151D01*
X001004Y001194D01*
X000994Y001239D01*
X000988Y001284D01*
X000986Y001330D01*
X002692Y013680D02*
X002694Y013759D01*
X002700Y013838D01*
X002710Y013917D01*
X002724Y013995D01*
X002741Y014072D01*
X002763Y014148D01*
X002788Y014223D01*
X002818Y014296D01*
X002850Y014368D01*
X002887Y014439D01*
X002927Y014507D01*
X002970Y014573D01*
X003016Y014637D01*
X003066Y014699D01*
X003119Y014758D01*
X003174Y014814D01*
X003233Y014868D01*
X003294Y014918D01*
X003357Y014966D01*
X003423Y015010D01*
X003491Y015051D01*
X003561Y015088D01*
X003632Y015122D01*
X003706Y015152D01*
X003780Y015178D01*
X003856Y015200D01*
X003933Y015219D01*
X004011Y015234D01*
X004089Y015245D01*
X004168Y015252D01*
X004247Y015255D01*
X004326Y015254D01*
X004405Y015249D01*
X004484Y015240D01*
X004562Y015227D01*
X004639Y015210D01*
X004716Y015190D01*
X004791Y015165D01*
X004865Y015137D01*
X004938Y015105D01*
X005008Y015070D01*
X005077Y015031D01*
X005144Y014988D01*
X005209Y014942D01*
X005271Y014894D01*
X005331Y014842D01*
X005388Y014787D01*
X005442Y014729D01*
X005493Y014669D01*
X005541Y014606D01*
X005586Y014541D01*
X005628Y014473D01*
X005666Y014404D01*
X005700Y014333D01*
X005731Y014260D01*
X005759Y014185D01*
X005782Y014110D01*
X005802Y014033D01*
X005818Y013956D01*
X005830Y013877D01*
X005838Y013799D01*
X005842Y013720D01*
X005842Y013640D01*
X005838Y013561D01*
X005830Y013483D01*
X005818Y013404D01*
X005802Y013327D01*
X005782Y013250D01*
X005759Y013175D01*
X005731Y013100D01*
X005700Y013027D01*
X005666Y012956D01*
X005628Y012887D01*
X005586Y012819D01*
X005541Y012754D01*
X005493Y012691D01*
X005442Y012631D01*
X005388Y012573D01*
X005331Y012518D01*
X005271Y012466D01*
X005209Y012418D01*
X005144Y012372D01*
X005077Y012329D01*
X005008Y012290D01*
X004938Y012255D01*
X004865Y012223D01*
X004791Y012195D01*
X004716Y012170D01*
X004639Y012150D01*
X004562Y012133D01*
X004484Y012120D01*
X004405Y012111D01*
X004326Y012106D01*
X004247Y012105D01*
X004168Y012108D01*
X004089Y012115D01*
X004011Y012126D01*
X003933Y012141D01*
X003856Y012160D01*
X003780Y012182D01*
X003706Y012208D01*
X003632Y012238D01*
X003561Y012272D01*
X003491Y012309D01*
X003423Y012350D01*
X003357Y012394D01*
X003294Y012442D01*
X003233Y012492D01*
X003174Y012546D01*
X003119Y012602D01*
X003066Y012661D01*
X003016Y012723D01*
X002970Y012787D01*
X002927Y012853D01*
X002887Y012921D01*
X002850Y012992D01*
X002818Y013064D01*
X002788Y013137D01*
X002763Y013212D01*
X002741Y013288D01*
X002724Y013365D01*
X002710Y013443D01*
X002700Y013522D01*
X002694Y013601D01*
X002692Y013680D01*
X009192Y013680D02*
X009194Y013759D01*
X009200Y013838D01*
X009210Y013917D01*
X009224Y013995D01*
X009241Y014072D01*
X009263Y014148D01*
X009288Y014223D01*
X009318Y014296D01*
X009350Y014368D01*
X009387Y014439D01*
X009427Y014507D01*
X009470Y014573D01*
X009516Y014637D01*
X009566Y014699D01*
X009619Y014758D01*
X009674Y014814D01*
X009733Y014868D01*
X009794Y014918D01*
X009857Y014966D01*
X009923Y015010D01*
X009991Y015051D01*
X010061Y015088D01*
X010132Y015122D01*
X010206Y015152D01*
X010280Y015178D01*
X010356Y015200D01*
X010433Y015219D01*
X010511Y015234D01*
X010589Y015245D01*
X010668Y015252D01*
X010747Y015255D01*
X010826Y015254D01*
X010905Y015249D01*
X010984Y015240D01*
X011062Y015227D01*
X011139Y015210D01*
X011216Y015190D01*
X011291Y015165D01*
X011365Y015137D01*
X011438Y015105D01*
X011508Y015070D01*
X011577Y015031D01*
X011644Y014988D01*
X011709Y014942D01*
X011771Y014894D01*
X011831Y014842D01*
X011888Y014787D01*
X011942Y014729D01*
X011993Y014669D01*
X012041Y014606D01*
X012086Y014541D01*
X012128Y014473D01*
X012166Y014404D01*
X012200Y014333D01*
X012231Y014260D01*
X012259Y014185D01*
X012282Y014110D01*
X012302Y014033D01*
X012318Y013956D01*
X012330Y013877D01*
X012338Y013799D01*
X012342Y013720D01*
X012342Y013640D01*
X012338Y013561D01*
X012330Y013483D01*
X012318Y013404D01*
X012302Y013327D01*
X012282Y013250D01*
X012259Y013175D01*
X012231Y013100D01*
X012200Y013027D01*
X012166Y012956D01*
X012128Y012887D01*
X012086Y012819D01*
X012041Y012754D01*
X011993Y012691D01*
X011942Y012631D01*
X011888Y012573D01*
X011831Y012518D01*
X011771Y012466D01*
X011709Y012418D01*
X011644Y012372D01*
X011577Y012329D01*
X011508Y012290D01*
X011438Y012255D01*
X011365Y012223D01*
X011291Y012195D01*
X011216Y012170D01*
X011139Y012150D01*
X011062Y012133D01*
X010984Y012120D01*
X010905Y012111D01*
X010826Y012106D01*
X010747Y012105D01*
X010668Y012108D01*
X010589Y012115D01*
X010511Y012126D01*
X010433Y012141D01*
X010356Y012160D01*
X010280Y012182D01*
X010206Y012208D01*
X010132Y012238D01*
X010061Y012272D01*
X009991Y012309D01*
X009923Y012350D01*
X009857Y012394D01*
X009794Y012442D01*
X009733Y012492D01*
X009674Y012546D01*
X009619Y012602D01*
X009566Y012661D01*
X009516Y012723D01*
X009470Y012787D01*
X009427Y012853D01*
X009387Y012921D01*
X009350Y012992D01*
X009318Y013064D01*
X009288Y013137D01*
X009263Y013212D01*
X009241Y013288D01*
X009224Y013365D01*
X009210Y013443D01*
X009200Y013522D01*
X009194Y013601D01*
X009192Y013680D01*
X012986Y001330D02*
X012988Y001376D01*
X012994Y001421D01*
X013004Y001466D01*
X013017Y001509D01*
X013034Y001552D01*
X013055Y001592D01*
X013079Y001631D01*
X013107Y001667D01*
X013138Y001701D01*
X013171Y001733D01*
X013207Y001761D01*
X013245Y001786D01*
X013285Y001808D01*
X013327Y001826D01*
X013370Y001840D01*
X013415Y001851D01*
X013460Y001858D01*
X013506Y001861D01*
X013551Y001860D01*
X013597Y001855D01*
X013642Y001846D01*
X013685Y001834D01*
X013728Y001817D01*
X013769Y001797D01*
X013808Y001774D01*
X013846Y001747D01*
X013880Y001717D01*
X013912Y001685D01*
X013941Y001649D01*
X013967Y001612D01*
X013990Y001572D01*
X014009Y001531D01*
X014024Y001488D01*
X014036Y001443D01*
X014044Y001398D01*
X014048Y001353D01*
X014048Y001307D01*
X014044Y001262D01*
X014036Y001217D01*
X014024Y001172D01*
X014009Y001129D01*
X013990Y001088D01*
X013967Y001048D01*
X013941Y001011D01*
X013912Y000975D01*
X013880Y000943D01*
X013846Y000913D01*
X013808Y000886D01*
X013769Y000863D01*
X013728Y000843D01*
X013685Y000826D01*
X013642Y000814D01*
X013597Y000805D01*
X013551Y000800D01*
X013506Y000799D01*
X013460Y000802D01*
X013415Y000809D01*
X013370Y000820D01*
X013327Y000834D01*
X013285Y000852D01*
X013245Y000874D01*
X013207Y000899D01*
X013171Y000927D01*
X013138Y000959D01*
X013107Y000993D01*
X013079Y001029D01*
X013055Y001068D01*
X013034Y001108D01*
X013017Y001151D01*
X013004Y001194D01*
X012994Y001239D01*
X012988Y001284D01*
X012986Y001330D01*
X009192Y043180D02*
X009194Y043259D01*
X009200Y043338D01*
X009210Y043417D01*
X009224Y043495D01*
X009241Y043572D01*
X009263Y043648D01*
X009288Y043723D01*
X009318Y043796D01*
X009350Y043868D01*
X009387Y043939D01*
X009427Y044007D01*
X009470Y044073D01*
X009516Y044137D01*
X009566Y044199D01*
X009619Y044258D01*
X009674Y044314D01*
X009733Y044368D01*
X009794Y044418D01*
X009857Y044466D01*
X009923Y044510D01*
X009991Y044551D01*
X010061Y044588D01*
X010132Y044622D01*
X010206Y044652D01*
X010280Y044678D01*
X010356Y044700D01*
X010433Y044719D01*
X010511Y044734D01*
X010589Y044745D01*
X010668Y044752D01*
X010747Y044755D01*
X010826Y044754D01*
X010905Y044749D01*
X010984Y044740D01*
X011062Y044727D01*
X011139Y044710D01*
X011216Y044690D01*
X011291Y044665D01*
X011365Y044637D01*
X011438Y044605D01*
X011508Y044570D01*
X011577Y044531D01*
X011644Y044488D01*
X011709Y044442D01*
X011771Y044394D01*
X011831Y044342D01*
X011888Y044287D01*
X011942Y044229D01*
X011993Y044169D01*
X012041Y044106D01*
X012086Y044041D01*
X012128Y043973D01*
X012166Y043904D01*
X012200Y043833D01*
X012231Y043760D01*
X012259Y043685D01*
X012282Y043610D01*
X012302Y043533D01*
X012318Y043456D01*
X012330Y043377D01*
X012338Y043299D01*
X012342Y043220D01*
X012342Y043140D01*
X012338Y043061D01*
X012330Y042983D01*
X012318Y042904D01*
X012302Y042827D01*
X012282Y042750D01*
X012259Y042675D01*
X012231Y042600D01*
X012200Y042527D01*
X012166Y042456D01*
X012128Y042387D01*
X012086Y042319D01*
X012041Y042254D01*
X011993Y042191D01*
X011942Y042131D01*
X011888Y042073D01*
X011831Y042018D01*
X011771Y041966D01*
X011709Y041918D01*
X011644Y041872D01*
X011577Y041829D01*
X011508Y041790D01*
X011438Y041755D01*
X011365Y041723D01*
X011291Y041695D01*
X011216Y041670D01*
X011139Y041650D01*
X011062Y041633D01*
X010984Y041620D01*
X010905Y041611D01*
X010826Y041606D01*
X010747Y041605D01*
X010668Y041608D01*
X010589Y041615D01*
X010511Y041626D01*
X010433Y041641D01*
X010356Y041660D01*
X010280Y041682D01*
X010206Y041708D01*
X010132Y041738D01*
X010061Y041772D01*
X009991Y041809D01*
X009923Y041850D01*
X009857Y041894D01*
X009794Y041942D01*
X009733Y041992D01*
X009674Y042046D01*
X009619Y042102D01*
X009566Y042161D01*
X009516Y042223D01*
X009470Y042287D01*
X009427Y042353D01*
X009387Y042421D01*
X009350Y042492D01*
X009318Y042564D01*
X009288Y042637D01*
X009263Y042712D01*
X009241Y042788D01*
X009224Y042865D01*
X009210Y042943D01*
X009200Y043022D01*
X009194Y043101D01*
X009192Y043180D01*
X012986Y049530D02*
X012988Y049576D01*
X012994Y049621D01*
X013004Y049666D01*
X013017Y049709D01*
X013034Y049752D01*
X013055Y049792D01*
X013079Y049831D01*
X013107Y049867D01*
X013138Y049901D01*
X013171Y049933D01*
X013207Y049961D01*
X013245Y049986D01*
X013285Y050008D01*
X013327Y050026D01*
X013370Y050040D01*
X013415Y050051D01*
X013460Y050058D01*
X013506Y050061D01*
X013551Y050060D01*
X013597Y050055D01*
X013642Y050046D01*
X013685Y050034D01*
X013728Y050017D01*
X013769Y049997D01*
X013808Y049974D01*
X013846Y049947D01*
X013880Y049917D01*
X013912Y049885D01*
X013941Y049849D01*
X013967Y049812D01*
X013990Y049772D01*
X014009Y049731D01*
X014024Y049688D01*
X014036Y049643D01*
X014044Y049598D01*
X014048Y049553D01*
X014048Y049507D01*
X014044Y049462D01*
X014036Y049417D01*
X014024Y049372D01*
X014009Y049329D01*
X013990Y049288D01*
X013967Y049248D01*
X013941Y049211D01*
X013912Y049175D01*
X013880Y049143D01*
X013846Y049113D01*
X013808Y049086D01*
X013769Y049063D01*
X013728Y049043D01*
X013685Y049026D01*
X013642Y049014D01*
X013597Y049005D01*
X013551Y049000D01*
X013506Y048999D01*
X013460Y049002D01*
X013415Y049009D01*
X013370Y049020D01*
X013327Y049034D01*
X013285Y049052D01*
X013245Y049074D01*
X013207Y049099D01*
X013171Y049127D01*
X013138Y049159D01*
X013107Y049193D01*
X013079Y049229D01*
X013055Y049268D01*
X013034Y049308D01*
X013017Y049351D01*
X013004Y049394D01*
X012994Y049439D01*
X012988Y049484D01*
X012986Y049530D01*
X002692Y043180D02*
X002694Y043259D01*
X002700Y043338D01*
X002710Y043417D01*
X002724Y043495D01*
X002741Y043572D01*
X002763Y043648D01*
X002788Y043723D01*
X002818Y043796D01*
X002850Y043868D01*
X002887Y043939D01*
X002927Y044007D01*
X002970Y044073D01*
X003016Y044137D01*
X003066Y044199D01*
X003119Y044258D01*
X003174Y044314D01*
X003233Y044368D01*
X003294Y044418D01*
X003357Y044466D01*
X003423Y044510D01*
X003491Y044551D01*
X003561Y044588D01*
X003632Y044622D01*
X003706Y044652D01*
X003780Y044678D01*
X003856Y044700D01*
X003933Y044719D01*
X004011Y044734D01*
X004089Y044745D01*
X004168Y044752D01*
X004247Y044755D01*
X004326Y044754D01*
X004405Y044749D01*
X004484Y044740D01*
X004562Y044727D01*
X004639Y044710D01*
X004716Y044690D01*
X004791Y044665D01*
X004865Y044637D01*
X004938Y044605D01*
X005008Y044570D01*
X005077Y044531D01*
X005144Y044488D01*
X005209Y044442D01*
X005271Y044394D01*
X005331Y044342D01*
X005388Y044287D01*
X005442Y044229D01*
X005493Y044169D01*
X005541Y044106D01*
X005586Y044041D01*
X005628Y043973D01*
X005666Y043904D01*
X005700Y043833D01*
X005731Y043760D01*
X005759Y043685D01*
X005782Y043610D01*
X005802Y043533D01*
X005818Y043456D01*
X005830Y043377D01*
X005838Y043299D01*
X005842Y043220D01*
X005842Y043140D01*
X005838Y043061D01*
X005830Y042983D01*
X005818Y042904D01*
X005802Y042827D01*
X005782Y042750D01*
X005759Y042675D01*
X005731Y042600D01*
X005700Y042527D01*
X005666Y042456D01*
X005628Y042387D01*
X005586Y042319D01*
X005541Y042254D01*
X005493Y042191D01*
X005442Y042131D01*
X005388Y042073D01*
X005331Y042018D01*
X005271Y041966D01*
X005209Y041918D01*
X005144Y041872D01*
X005077Y041829D01*
X005008Y041790D01*
X004938Y041755D01*
X004865Y041723D01*
X004791Y041695D01*
X004716Y041670D01*
X004639Y041650D01*
X004562Y041633D01*
X004484Y041620D01*
X004405Y041611D01*
X004326Y041606D01*
X004247Y041605D01*
X004168Y041608D01*
X004089Y041615D01*
X004011Y041626D01*
X003933Y041641D01*
X003856Y041660D01*
X003780Y041682D01*
X003706Y041708D01*
X003632Y041738D01*
X003561Y041772D01*
X003491Y041809D01*
X003423Y041850D01*
X003357Y041894D01*
X003294Y041942D01*
X003233Y041992D01*
X003174Y042046D01*
X003119Y042102D01*
X003066Y042161D01*
X003016Y042223D01*
X002970Y042287D01*
X002927Y042353D01*
X002887Y042421D01*
X002850Y042492D01*
X002818Y042564D01*
X002788Y042637D01*
X002763Y042712D01*
X002741Y042788D01*
X002724Y042865D01*
X002710Y042943D01*
X002700Y043022D01*
X002694Y043101D01*
X002692Y043180D01*
X000986Y049530D02*
X000988Y049576D01*
X000994Y049621D01*
X001004Y049666D01*
X001017Y049709D01*
X001034Y049752D01*
X001055Y049792D01*
X001079Y049831D01*
X001107Y049867D01*
X001138Y049901D01*
X001171Y049933D01*
X001207Y049961D01*
X001245Y049986D01*
X001285Y050008D01*
X001327Y050026D01*
X001370Y050040D01*
X001415Y050051D01*
X001460Y050058D01*
X001506Y050061D01*
X001551Y050060D01*
X001597Y050055D01*
X001642Y050046D01*
X001685Y050034D01*
X001728Y050017D01*
X001769Y049997D01*
X001808Y049974D01*
X001846Y049947D01*
X001880Y049917D01*
X001912Y049885D01*
X001941Y049849D01*
X001967Y049812D01*
X001990Y049772D01*
X002009Y049731D01*
X002024Y049688D01*
X002036Y049643D01*
X002044Y049598D01*
X002048Y049553D01*
X002048Y049507D01*
X002044Y049462D01*
X002036Y049417D01*
X002024Y049372D01*
X002009Y049329D01*
X001990Y049288D01*
X001967Y049248D01*
X001941Y049211D01*
X001912Y049175D01*
X001880Y049143D01*
X001846Y049113D01*
X001808Y049086D01*
X001769Y049063D01*
X001728Y049043D01*
X001685Y049026D01*
X001642Y049014D01*
X001597Y049005D01*
X001551Y049000D01*
X001506Y048999D01*
X001460Y049002D01*
X001415Y049009D01*
X001370Y049020D01*
X001327Y049034D01*
X001285Y049052D01*
X001245Y049074D01*
X001207Y049099D01*
X001171Y049127D01*
X001138Y049159D01*
X001107Y049193D01*
X001079Y049229D01*
X001055Y049268D01*
X001034Y049308D01*
X001017Y049351D01*
X001004Y049394D01*
X000994Y049439D01*
X000988Y049484D01*
X000986Y049530D01*
D11*
X002357Y003941D02*
X002817Y003941D01*
X002971Y003787D01*
X002971Y003480D01*
X002817Y003327D01*
X002357Y003327D01*
X002357Y003020D02*
X002357Y003941D01*
X003370Y003941D02*
X003370Y003020D01*
X003370Y003480D02*
X003983Y003480D01*
X003983Y003020D02*
X003983Y003941D01*
X004382Y003787D02*
X004382Y003173D01*
X004536Y003020D01*
X004843Y003020D01*
X004996Y003173D01*
X004996Y003787D01*
X004843Y003941D01*
X004536Y003941D01*
X004382Y003787D01*
X005395Y003941D02*
X005395Y003020D01*
X006009Y003020D02*
X005395Y003941D01*
X006009Y003941D02*
X006009Y003020D01*
X006408Y003173D02*
X006408Y003787D01*
X006562Y003941D01*
X006869Y003941D01*
X007022Y003787D01*
X007022Y003173D01*
X006869Y003020D01*
X006562Y003020D01*
X006408Y003173D01*
X008434Y003020D02*
X008434Y003941D01*
X008894Y003941D01*
X009048Y003787D01*
X009048Y003480D01*
X008894Y003327D01*
X008434Y003327D01*
X009447Y003327D02*
X009907Y003327D01*
X010061Y003480D01*
X010061Y003787D01*
X009907Y003941D01*
X009447Y003941D01*
X009447Y003020D01*
X009754Y003327D02*
X010061Y003020D01*
X010460Y003020D02*
X011073Y003020D01*
X010767Y003480D02*
X010460Y003480D01*
X010460Y003020D02*
X010460Y003941D01*
X011073Y003941D01*
X011472Y003634D02*
X011472Y003020D01*
X011472Y003480D02*
X012086Y003480D01*
X012086Y003634D02*
X012086Y003020D01*
X012485Y003020D02*
X012485Y003941D01*
X012792Y003634D01*
X013099Y003941D01*
X013099Y003020D01*
X013498Y003020D02*
X013498Y003941D01*
X013959Y003941D01*
X014112Y003787D01*
X014112Y003480D01*
X013959Y003327D01*
X013498Y003327D01*
X012086Y003634D02*
X011779Y003941D01*
X011472Y003634D01*
D12*
X009420Y016840D02*
X009420Y018521D01*
X008860Y018521D02*
X009981Y018521D01*
X008139Y018521D02*
X008139Y017120D01*
X007859Y016840D01*
X007298Y016840D01*
X007018Y017120D01*
X007018Y018521D01*
X006298Y018241D02*
X006298Y017120D01*
X006017Y016840D01*
X005457Y016840D01*
X005177Y017120D01*
X005177Y018241D01*
X005457Y018521D01*
X006017Y018521D01*
X006298Y018241D01*
X006427Y046340D02*
X006987Y046340D01*
X006707Y046340D02*
X006707Y048021D01*
X006427Y048021D02*
X006987Y048021D01*
X007654Y048021D02*
X007654Y046340D01*
X008775Y046340D02*
X007654Y048021D01*
X008775Y048021D02*
X008775Y046340D01*
D13*
X010267Y047180D03*
X004892Y047180D03*
X003642Y017680D03*
X011017Y017680D03*
D14*
X012767Y017680D01*
X012835Y017678D01*
X012902Y017673D01*
X012969Y017664D01*
X013036Y017651D01*
X013101Y017634D01*
X013166Y017615D01*
X013230Y017591D01*
X013292Y017564D01*
X013353Y017534D01*
X013411Y017501D01*
X013468Y017465D01*
X013523Y017425D01*
X013576Y017383D01*
X013627Y017337D01*
X013674Y017290D01*
X013720Y017239D01*
X013762Y017186D01*
X013802Y017131D01*
X013838Y017074D01*
X013871Y017016D01*
X013901Y016955D01*
X013928Y016893D01*
X013952Y016829D01*
X013971Y016764D01*
X013988Y016699D01*
X014001Y016632D01*
X014010Y016565D01*
X014015Y016498D01*
X014017Y016430D01*
X014017Y011430D01*
X014015Y011362D01*
X014010Y011295D01*
X014001Y011228D01*
X013988Y011161D01*
X013971Y011096D01*
X013952Y011031D01*
X013928Y010967D01*
X013901Y010905D01*
X013871Y010844D01*
X013838Y010786D01*
X013802Y010729D01*
X013762Y010674D01*
X013720Y010621D01*
X013674Y010570D01*
X013627Y010523D01*
X013576Y010477D01*
X013523Y010435D01*
X013468Y010395D01*
X013411Y010359D01*
X013353Y010326D01*
X013292Y010296D01*
X013230Y010269D01*
X013166Y010245D01*
X013101Y010226D01*
X013036Y010209D01*
X012969Y010196D01*
X012902Y010187D01*
X012835Y010182D01*
X012767Y010180D01*
X002267Y010180D01*
X002199Y010182D01*
X002132Y010187D01*
X002065Y010196D01*
X001998Y010209D01*
X001933Y010226D01*
X001868Y010245D01*
X001804Y010269D01*
X001742Y010296D01*
X001681Y010326D01*
X001623Y010359D01*
X001566Y010395D01*
X001511Y010435D01*
X001458Y010477D01*
X001407Y010523D01*
X001360Y010570D01*
X001314Y010621D01*
X001272Y010674D01*
X001232Y010729D01*
X001196Y010786D01*
X001163Y010844D01*
X001133Y010905D01*
X001106Y010967D01*
X001082Y011031D01*
X001063Y011096D01*
X001046Y011161D01*
X001033Y011228D01*
X001024Y011295D01*
X001019Y011362D01*
X001017Y011430D01*
X001017Y016430D01*
X001019Y016498D01*
X001024Y016565D01*
X001033Y016632D01*
X001046Y016699D01*
X001063Y016764D01*
X001082Y016829D01*
X001106Y016893D01*
X001133Y016955D01*
X001163Y017016D01*
X001196Y017074D01*
X001232Y017131D01*
X001272Y017186D01*
X001314Y017239D01*
X001360Y017290D01*
X001407Y017337D01*
X001458Y017383D01*
X001511Y017425D01*
X001566Y017465D01*
X001623Y017501D01*
X001681Y017534D01*
X001742Y017564D01*
X001804Y017591D01*
X001868Y017615D01*
X001933Y017634D01*
X001998Y017651D01*
X002065Y017664D01*
X002132Y017673D01*
X002199Y017678D01*
X002267Y017680D01*
X003517Y017680D01*
X002267Y039680D02*
X012767Y039680D01*
X012835Y039682D01*
X012902Y039687D01*
X012969Y039696D01*
X013036Y039709D01*
X013101Y039726D01*
X013166Y039745D01*
X013230Y039769D01*
X013292Y039796D01*
X013353Y039826D01*
X013411Y039859D01*
X013468Y039895D01*
X013523Y039935D01*
X013576Y039977D01*
X013627Y040023D01*
X013674Y040070D01*
X013720Y040121D01*
X013762Y040174D01*
X013802Y040229D01*
X013838Y040286D01*
X013871Y040344D01*
X013901Y040405D01*
X013928Y040467D01*
X013952Y040531D01*
X013971Y040596D01*
X013988Y040661D01*
X014001Y040728D01*
X014010Y040795D01*
X014015Y040862D01*
X014017Y040930D01*
X014017Y045930D01*
X014015Y045998D01*
X014010Y046065D01*
X014001Y046132D01*
X013988Y046199D01*
X013971Y046264D01*
X013952Y046329D01*
X013928Y046393D01*
X013901Y046455D01*
X013871Y046516D01*
X013838Y046574D01*
X013802Y046631D01*
X013762Y046686D01*
X013720Y046739D01*
X013674Y046790D01*
X013627Y046837D01*
X013576Y046883D01*
X013523Y046925D01*
X013468Y046965D01*
X013411Y047001D01*
X013353Y047034D01*
X013292Y047064D01*
X013230Y047091D01*
X013166Y047115D01*
X013101Y047134D01*
X013036Y047151D01*
X012969Y047164D01*
X012902Y047173D01*
X012835Y047178D01*
X012767Y047180D01*
X010517Y047180D01*
X004767Y047180D02*
X002267Y047180D01*
X002199Y047178D01*
X002132Y047173D01*
X002065Y047164D01*
X001998Y047151D01*
X001933Y047134D01*
X001868Y047115D01*
X001804Y047091D01*
X001742Y047064D01*
X001681Y047034D01*
X001623Y047001D01*
X001566Y046965D01*
X001511Y046925D01*
X001458Y046883D01*
X001407Y046837D01*
X001360Y046790D01*
X001314Y046739D01*
X001272Y046686D01*
X001232Y046631D01*
X001196Y046574D01*
X001163Y046516D01*
X001133Y046455D01*
X001106Y046393D01*
X001082Y046329D01*
X001063Y046264D01*
X001046Y046199D01*
X001033Y046132D01*
X001024Y046065D01*
X001019Y045998D01*
X001017Y045930D01*
X001017Y040930D01*
X001019Y040862D01*
X001024Y040795D01*
X001033Y040728D01*
X001046Y040661D01*
X001063Y040596D01*
X001082Y040531D01*
X001106Y040467D01*
X001133Y040405D01*
X001163Y040344D01*
X001196Y040286D01*
X001232Y040229D01*
X001272Y040174D01*
X001314Y040121D01*
X001360Y040070D01*
X001407Y040023D01*
X001458Y039977D01*
X001511Y039935D01*
X001566Y039895D01*
X001623Y039859D01*
X001681Y039826D01*
X001742Y039796D01*
X001804Y039769D01*
X001868Y039745D01*
X001933Y039726D01*
X001998Y039709D01*
X002065Y039696D01*
X002132Y039687D01*
X002199Y039682D01*
X002267Y039680D01*
D15*
X002277Y045750D02*
X001837Y045750D01*
X001837Y046411D01*
X001837Y016911D02*
X001837Y016250D01*
X002277Y016250D01*
X012837Y016250D02*
X012837Y016911D01*
X013167Y016911D01*
X013277Y016800D01*
X013277Y016580D01*
X013167Y016470D01*
X012837Y016470D01*
X013057Y016470D02*
X013277Y016250D01*
X013277Y045750D02*
X013057Y045970D01*
X013167Y045970D02*
X012837Y045970D01*
X012837Y045750D02*
X012837Y046411D01*
X013167Y046411D01*
X013277Y046300D01*
X013277Y046080D01*
X013167Y045970D01*
D16*
X012435Y030820D02*
X012015Y030820D01*
X012015Y029980D01*
X012015Y030260D02*
X012435Y030260D01*
X012575Y030400D01*
X012575Y030680D01*
X012435Y030820D01*
X011655Y030680D02*
X011655Y030260D01*
X011655Y030680D02*
X011514Y030820D01*
X011374Y030680D01*
X011374Y030260D01*
X011374Y030680D02*
X011234Y030820D01*
X011094Y030820D01*
X011094Y030260D01*
X010734Y030260D02*
X010313Y030260D01*
X010173Y030400D01*
X010313Y030540D01*
X010734Y030540D01*
X010734Y030680D02*
X010734Y030260D01*
X010734Y030680D02*
X010594Y030820D01*
X010313Y030820D01*
X009813Y030680D02*
X009253Y030680D01*
X008892Y030680D02*
X008892Y030540D01*
X008332Y030540D01*
X008332Y030400D02*
X008332Y030680D01*
X008472Y030820D01*
X008752Y030820D01*
X008892Y030680D01*
X008752Y030260D02*
X008472Y030260D01*
X008332Y030400D01*
X007985Y030820D02*
X007845Y030820D01*
X007564Y030540D01*
X007564Y030260D02*
X007564Y030820D01*
X007204Y030680D02*
X007204Y030400D01*
X007064Y030260D01*
X006644Y030260D01*
X006644Y029980D02*
X006644Y030820D01*
X007064Y030820D01*
X007204Y030680D01*
X007290Y027695D02*
X007150Y027555D01*
X007150Y027275D01*
X007290Y027135D01*
X007570Y027135D01*
X007710Y027275D01*
X007710Y027555D01*
X007570Y027695D01*
X007290Y027695D01*
X006790Y027695D02*
X006790Y027275D01*
X006649Y027135D01*
X006509Y027275D01*
X006369Y027135D01*
X006229Y027275D01*
X006229Y027695D01*
X005882Y027695D02*
X005742Y027695D01*
X005462Y027415D01*
X005462Y027135D02*
X005462Y027695D01*
X005101Y027555D02*
X005101Y027415D01*
X004541Y027415D01*
X004541Y027275D02*
X004541Y027555D01*
X004681Y027695D01*
X004961Y027695D01*
X005101Y027555D01*
X004961Y027135D02*
X004681Y027135D01*
X004541Y027275D01*
X004207Y027135D02*
X004067Y027275D01*
X004067Y027836D01*
X003927Y027695D02*
X004207Y027695D01*
X004782Y026351D02*
X004502Y026211D01*
X004222Y025930D01*
X004642Y025930D01*
X004782Y025790D01*
X004782Y025650D01*
X004642Y025510D01*
X004362Y025510D01*
X004222Y025650D01*
X004222Y025930D01*
X003593Y027135D02*
X003453Y027275D01*
X003453Y027836D01*
X003313Y027695D02*
X003593Y027695D01*
X002953Y027695D02*
X002953Y027135D01*
X002533Y027135D01*
X002392Y027275D01*
X002392Y027695D01*
X002032Y027695D02*
X001892Y027555D01*
X001472Y027555D01*
X001472Y027135D02*
X001892Y027135D01*
X002032Y027275D01*
X002032Y027415D01*
X001892Y027555D01*
X002032Y027695D02*
X002032Y027836D01*
X001892Y027976D01*
X001472Y027976D01*
X001472Y027135D01*
X002347Y030260D02*
X002347Y031101D01*
X002767Y031101D01*
X002907Y030961D01*
X002907Y030680D01*
X002767Y030540D01*
X002347Y030540D01*
X002627Y030540D02*
X002907Y030260D01*
X003267Y030260D02*
X003548Y030260D01*
X003408Y030260D02*
X003408Y031101D01*
X003548Y031101D02*
X003267Y031101D01*
X003881Y030820D02*
X003881Y030260D01*
X003881Y030680D02*
X004442Y030680D01*
X004442Y030820D02*
X004442Y030260D01*
X004442Y030820D02*
X004162Y031101D01*
X003881Y030820D01*
X004802Y030820D02*
X004802Y030260D01*
X004802Y030680D02*
X005363Y030680D01*
X005363Y030820D02*
X005363Y030260D01*
X005363Y030820D02*
X005082Y031101D01*
X004802Y030820D01*
X005756Y026351D02*
X005756Y025510D01*
X005756Y025930D02*
X005896Y026070D01*
X006177Y026070D01*
X006317Y025930D01*
X006317Y025510D01*
X006098Y024445D02*
X006658Y024445D01*
X006658Y024165D02*
X006098Y024165D01*
X005423Y025510D02*
X005283Y025650D01*
X005283Y026211D01*
X005423Y026070D02*
X005142Y026070D01*
X003002Y024726D02*
X002862Y024586D01*
X002862Y023885D01*
X002722Y024305D02*
X003002Y024305D01*
X007347Y024445D02*
X007627Y024726D01*
X007627Y023885D01*
X007347Y023885D02*
X007907Y023885D01*
X008267Y024025D02*
X008267Y024165D01*
X008408Y024305D01*
X008688Y024305D01*
X008828Y024165D01*
X008828Y024025D01*
X008688Y023885D01*
X008408Y023885D01*
X008267Y024025D01*
X008408Y024305D02*
X008267Y024445D01*
X008267Y024586D01*
X008408Y024726D01*
X008688Y024726D01*
X008828Y024586D01*
X008828Y024445D01*
X008688Y024305D01*
X008519Y025510D02*
X008519Y026070D01*
X008519Y025790D02*
X008799Y026070D01*
X008939Y026070D01*
X009286Y025930D02*
X009426Y026070D01*
X009846Y026070D01*
X009846Y026351D02*
X009846Y025510D01*
X009426Y025510D01*
X009286Y025650D01*
X009286Y025930D01*
X009597Y024726D02*
X009597Y023885D01*
X009597Y024305D02*
X010157Y024305D01*
X010157Y023885D02*
X010157Y024726D01*
X010517Y024445D02*
X011078Y024445D01*
X010517Y023885D01*
X011078Y023885D01*
X011128Y025510D02*
X011128Y026070D01*
X011128Y025790D02*
X011408Y026070D01*
X011548Y026070D01*
X011293Y027135D02*
X011293Y027976D01*
X011293Y027555D02*
X011854Y027555D01*
X011854Y027135D02*
X011854Y027976D01*
X012214Y027976D02*
X012214Y027135D01*
X012214Y027415D02*
X012635Y027415D01*
X012775Y027555D01*
X012775Y027836D01*
X012635Y027976D01*
X012214Y027976D01*
X013135Y027976D02*
X013135Y027135D01*
X013135Y027555D02*
X013415Y027555D01*
X013135Y027976D02*
X013695Y027976D01*
X010767Y025930D02*
X010767Y025790D01*
X010207Y025790D01*
X010207Y025650D02*
X010207Y025930D01*
X010347Y026070D01*
X010627Y026070D01*
X010767Y025930D01*
X010627Y025510D02*
X010347Y025510D01*
X010207Y025650D01*
X010012Y027135D02*
X010012Y027555D01*
X009872Y027695D01*
X009592Y027695D01*
X009452Y027555D01*
X009452Y027135D02*
X009452Y027976D01*
X009118Y027695D02*
X008838Y027695D01*
X008978Y027836D02*
X008978Y027275D01*
X009118Y027135D01*
X008491Y027695D02*
X008351Y027695D01*
X008071Y027415D01*
X008071Y027135D02*
X008071Y027695D01*
X008018Y026070D02*
X007738Y026070D01*
X007598Y025930D01*
X007598Y025650D01*
X007738Y025510D01*
X008018Y025510D01*
X008158Y025650D01*
X008158Y025930D01*
X008018Y026070D01*
D17*
X014767Y050430D02*
X014767Y000430D01*
X000267Y000430D02*
X000267Y050430D01*
D18*
X004008Y024131D02*
X003901Y024024D01*
X004008Y024131D02*
X004222Y024131D01*
X004328Y024024D01*
X004328Y023917D01*
X004222Y023810D01*
X004328Y023704D01*
X004328Y023597D01*
X004222Y023490D01*
X004008Y023490D01*
X003901Y023597D01*
X004115Y023810D02*
X004222Y023810D01*
X004601Y023810D02*
X004708Y023917D01*
X005028Y023917D01*
X005028Y024131D02*
X005028Y023490D01*
X004708Y023490D01*
X004601Y023597D01*
X004601Y023810D01*
X005301Y023810D02*
X005621Y023810D01*
X005728Y023704D01*
X005728Y023597D01*
X005621Y023490D01*
X005301Y023490D01*
X005301Y024131D01*
X005621Y024131D01*
X005728Y024024D01*
X005728Y023917D01*
X005621Y023810D01*
X003629Y023810D02*
X003202Y023810D01*
D19*
X001425Y004060D02*
X001421Y004036D01*
X001415Y004014D01*
X001404Y003992D01*
X001391Y003972D01*
X001375Y003955D01*
X001357Y003940D01*
X001336Y003928D01*
X001314Y003919D01*
X001291Y003914D01*
X001267Y003912D01*
X001243Y003914D01*
X001220Y003919D01*
X001198Y003928D01*
X001177Y003940D01*
X001159Y003955D01*
X001143Y003972D01*
X001130Y003992D01*
X001119Y004014D01*
X001113Y004036D01*
X001109Y004060D01*
X001011Y003991D02*
X001013Y004003D01*
X001018Y004014D01*
X001027Y004023D01*
X001038Y004028D01*
X001050Y004030D01*
X001062Y004028D01*
X001073Y004023D01*
X001082Y004014D01*
X001087Y004003D01*
X001089Y003991D01*
X001087Y003979D01*
X001082Y003968D01*
X001073Y003959D01*
X001062Y003954D01*
X001050Y003952D01*
X001038Y003954D01*
X001027Y003959D01*
X001018Y003968D01*
X001013Y003979D01*
X001011Y003991D01*
X000952Y003804D02*
X000952Y003056D01*
X001582Y003056D02*
X001582Y003804D01*
D20*
X001030Y004055D03*
D21*
X000976Y003976D03*
D22*
X001114Y003957D03*
D23*
X001094Y003937D03*
D24*
X001503Y004011D03*
D25*
X001483Y003937D03*
D26*
X001267Y003863D03*
D27*
X001267Y002918D03*
D28*
X001537Y003651D03*
X000996Y003651D03*
D29*
X001267Y003499D03*
M02*
