G75*
G70*
%OFA0B0*%
%FSLAX24Y24*%
%IPPOS*%
%LPD*%
%AMOC8*
5,1,8,0,0,1.08239X$1,22.5*
%
%ADD10C,0.0000*%
%ADD11C,0.1181*%
%ADD12C,0.5315*%
%ADD13R,0.0787X0.0630*%
%ADD14R,0.1969X0.2362*%
%ADD15R,0.0709X0.0630*%
%ADD16R,0.0240X0.0870*%
%ADD17R,0.0630X0.0787*%
%ADD18R,0.1575X0.1024*%
%ADD19R,0.2165X0.0315*%
%ADD20R,0.0630X0.0709*%
%ADD21R,0.0551X0.1024*%
%ADD22R,0.1024X0.0551*%
%ADD23R,0.0870X0.0240*%
%ADD24R,0.0866X0.0709*%
%ADD25C,0.0320*%
%ADD26C,0.0160*%
%ADD27C,0.0400*%
D10*
X000142Y000180D02*
X000142Y050680D01*
X014892Y050680D01*
X014892Y000180D01*
X000142Y000180D01*
X000986Y001330D02*
X000988Y001376D01*
X000994Y001421D01*
X001004Y001466D01*
X001017Y001509D01*
X001034Y001552D01*
X001055Y001592D01*
X001079Y001631D01*
X001107Y001667D01*
X001138Y001701D01*
X001171Y001733D01*
X001207Y001761D01*
X001245Y001786D01*
X001285Y001808D01*
X001327Y001826D01*
X001370Y001840D01*
X001415Y001851D01*
X001460Y001858D01*
X001506Y001861D01*
X001551Y001860D01*
X001597Y001855D01*
X001642Y001846D01*
X001685Y001834D01*
X001728Y001817D01*
X001769Y001797D01*
X001808Y001774D01*
X001846Y001747D01*
X001880Y001717D01*
X001912Y001685D01*
X001941Y001649D01*
X001967Y001612D01*
X001990Y001572D01*
X002009Y001531D01*
X002024Y001488D01*
X002036Y001443D01*
X002044Y001398D01*
X002048Y001353D01*
X002048Y001307D01*
X002044Y001262D01*
X002036Y001217D01*
X002024Y001172D01*
X002009Y001129D01*
X001990Y001088D01*
X001967Y001048D01*
X001941Y001011D01*
X001912Y000975D01*
X001880Y000943D01*
X001846Y000913D01*
X001808Y000886D01*
X001769Y000863D01*
X001728Y000843D01*
X001685Y000826D01*
X001642Y000814D01*
X001597Y000805D01*
X001551Y000800D01*
X001506Y000799D01*
X001460Y000802D01*
X001415Y000809D01*
X001370Y000820D01*
X001327Y000834D01*
X001285Y000852D01*
X001245Y000874D01*
X001207Y000899D01*
X001171Y000927D01*
X001138Y000959D01*
X001107Y000993D01*
X001079Y001029D01*
X001055Y001068D01*
X001034Y001108D01*
X001017Y001151D01*
X001004Y001194D01*
X000994Y001239D01*
X000988Y001284D01*
X000986Y001330D01*
X002692Y013680D02*
X002694Y013759D01*
X002700Y013838D01*
X002710Y013917D01*
X002724Y013995D01*
X002741Y014072D01*
X002763Y014148D01*
X002788Y014223D01*
X002818Y014296D01*
X002850Y014368D01*
X002887Y014439D01*
X002927Y014507D01*
X002970Y014573D01*
X003016Y014637D01*
X003066Y014699D01*
X003119Y014758D01*
X003174Y014814D01*
X003233Y014868D01*
X003294Y014918D01*
X003357Y014966D01*
X003423Y015010D01*
X003491Y015051D01*
X003561Y015088D01*
X003632Y015122D01*
X003706Y015152D01*
X003780Y015178D01*
X003856Y015200D01*
X003933Y015219D01*
X004011Y015234D01*
X004089Y015245D01*
X004168Y015252D01*
X004247Y015255D01*
X004326Y015254D01*
X004405Y015249D01*
X004484Y015240D01*
X004562Y015227D01*
X004639Y015210D01*
X004716Y015190D01*
X004791Y015165D01*
X004865Y015137D01*
X004938Y015105D01*
X005008Y015070D01*
X005077Y015031D01*
X005144Y014988D01*
X005209Y014942D01*
X005271Y014894D01*
X005331Y014842D01*
X005388Y014787D01*
X005442Y014729D01*
X005493Y014669D01*
X005541Y014606D01*
X005586Y014541D01*
X005628Y014473D01*
X005666Y014404D01*
X005700Y014333D01*
X005731Y014260D01*
X005759Y014185D01*
X005782Y014110D01*
X005802Y014033D01*
X005818Y013956D01*
X005830Y013877D01*
X005838Y013799D01*
X005842Y013720D01*
X005842Y013640D01*
X005838Y013561D01*
X005830Y013483D01*
X005818Y013404D01*
X005802Y013327D01*
X005782Y013250D01*
X005759Y013175D01*
X005731Y013100D01*
X005700Y013027D01*
X005666Y012956D01*
X005628Y012887D01*
X005586Y012819D01*
X005541Y012754D01*
X005493Y012691D01*
X005442Y012631D01*
X005388Y012573D01*
X005331Y012518D01*
X005271Y012466D01*
X005209Y012418D01*
X005144Y012372D01*
X005077Y012329D01*
X005008Y012290D01*
X004938Y012255D01*
X004865Y012223D01*
X004791Y012195D01*
X004716Y012170D01*
X004639Y012150D01*
X004562Y012133D01*
X004484Y012120D01*
X004405Y012111D01*
X004326Y012106D01*
X004247Y012105D01*
X004168Y012108D01*
X004089Y012115D01*
X004011Y012126D01*
X003933Y012141D01*
X003856Y012160D01*
X003780Y012182D01*
X003706Y012208D01*
X003632Y012238D01*
X003561Y012272D01*
X003491Y012309D01*
X003423Y012350D01*
X003357Y012394D01*
X003294Y012442D01*
X003233Y012492D01*
X003174Y012546D01*
X003119Y012602D01*
X003066Y012661D01*
X003016Y012723D01*
X002970Y012787D01*
X002927Y012853D01*
X002887Y012921D01*
X002850Y012992D01*
X002818Y013064D01*
X002788Y013137D01*
X002763Y013212D01*
X002741Y013288D01*
X002724Y013365D01*
X002710Y013443D01*
X002700Y013522D01*
X002694Y013601D01*
X002692Y013680D01*
X009192Y013680D02*
X009194Y013759D01*
X009200Y013838D01*
X009210Y013917D01*
X009224Y013995D01*
X009241Y014072D01*
X009263Y014148D01*
X009288Y014223D01*
X009318Y014296D01*
X009350Y014368D01*
X009387Y014439D01*
X009427Y014507D01*
X009470Y014573D01*
X009516Y014637D01*
X009566Y014699D01*
X009619Y014758D01*
X009674Y014814D01*
X009733Y014868D01*
X009794Y014918D01*
X009857Y014966D01*
X009923Y015010D01*
X009991Y015051D01*
X010061Y015088D01*
X010132Y015122D01*
X010206Y015152D01*
X010280Y015178D01*
X010356Y015200D01*
X010433Y015219D01*
X010511Y015234D01*
X010589Y015245D01*
X010668Y015252D01*
X010747Y015255D01*
X010826Y015254D01*
X010905Y015249D01*
X010984Y015240D01*
X011062Y015227D01*
X011139Y015210D01*
X011216Y015190D01*
X011291Y015165D01*
X011365Y015137D01*
X011438Y015105D01*
X011508Y015070D01*
X011577Y015031D01*
X011644Y014988D01*
X011709Y014942D01*
X011771Y014894D01*
X011831Y014842D01*
X011888Y014787D01*
X011942Y014729D01*
X011993Y014669D01*
X012041Y014606D01*
X012086Y014541D01*
X012128Y014473D01*
X012166Y014404D01*
X012200Y014333D01*
X012231Y014260D01*
X012259Y014185D01*
X012282Y014110D01*
X012302Y014033D01*
X012318Y013956D01*
X012330Y013877D01*
X012338Y013799D01*
X012342Y013720D01*
X012342Y013640D01*
X012338Y013561D01*
X012330Y013483D01*
X012318Y013404D01*
X012302Y013327D01*
X012282Y013250D01*
X012259Y013175D01*
X012231Y013100D01*
X012200Y013027D01*
X012166Y012956D01*
X012128Y012887D01*
X012086Y012819D01*
X012041Y012754D01*
X011993Y012691D01*
X011942Y012631D01*
X011888Y012573D01*
X011831Y012518D01*
X011771Y012466D01*
X011709Y012418D01*
X011644Y012372D01*
X011577Y012329D01*
X011508Y012290D01*
X011438Y012255D01*
X011365Y012223D01*
X011291Y012195D01*
X011216Y012170D01*
X011139Y012150D01*
X011062Y012133D01*
X010984Y012120D01*
X010905Y012111D01*
X010826Y012106D01*
X010747Y012105D01*
X010668Y012108D01*
X010589Y012115D01*
X010511Y012126D01*
X010433Y012141D01*
X010356Y012160D01*
X010280Y012182D01*
X010206Y012208D01*
X010132Y012238D01*
X010061Y012272D01*
X009991Y012309D01*
X009923Y012350D01*
X009857Y012394D01*
X009794Y012442D01*
X009733Y012492D01*
X009674Y012546D01*
X009619Y012602D01*
X009566Y012661D01*
X009516Y012723D01*
X009470Y012787D01*
X009427Y012853D01*
X009387Y012921D01*
X009350Y012992D01*
X009318Y013064D01*
X009288Y013137D01*
X009263Y013212D01*
X009241Y013288D01*
X009224Y013365D01*
X009210Y013443D01*
X009200Y013522D01*
X009194Y013601D01*
X009192Y013680D01*
X012986Y001330D02*
X012988Y001376D01*
X012994Y001421D01*
X013004Y001466D01*
X013017Y001509D01*
X013034Y001552D01*
X013055Y001592D01*
X013079Y001631D01*
X013107Y001667D01*
X013138Y001701D01*
X013171Y001733D01*
X013207Y001761D01*
X013245Y001786D01*
X013285Y001808D01*
X013327Y001826D01*
X013370Y001840D01*
X013415Y001851D01*
X013460Y001858D01*
X013506Y001861D01*
X013551Y001860D01*
X013597Y001855D01*
X013642Y001846D01*
X013685Y001834D01*
X013728Y001817D01*
X013769Y001797D01*
X013808Y001774D01*
X013846Y001747D01*
X013880Y001717D01*
X013912Y001685D01*
X013941Y001649D01*
X013967Y001612D01*
X013990Y001572D01*
X014009Y001531D01*
X014024Y001488D01*
X014036Y001443D01*
X014044Y001398D01*
X014048Y001353D01*
X014048Y001307D01*
X014044Y001262D01*
X014036Y001217D01*
X014024Y001172D01*
X014009Y001129D01*
X013990Y001088D01*
X013967Y001048D01*
X013941Y001011D01*
X013912Y000975D01*
X013880Y000943D01*
X013846Y000913D01*
X013808Y000886D01*
X013769Y000863D01*
X013728Y000843D01*
X013685Y000826D01*
X013642Y000814D01*
X013597Y000805D01*
X013551Y000800D01*
X013506Y000799D01*
X013460Y000802D01*
X013415Y000809D01*
X013370Y000820D01*
X013327Y000834D01*
X013285Y000852D01*
X013245Y000874D01*
X013207Y000899D01*
X013171Y000927D01*
X013138Y000959D01*
X013107Y000993D01*
X013079Y001029D01*
X013055Y001068D01*
X013034Y001108D01*
X013017Y001151D01*
X013004Y001194D01*
X012994Y001239D01*
X012988Y001284D01*
X012986Y001330D01*
X009192Y043180D02*
X009194Y043259D01*
X009200Y043338D01*
X009210Y043417D01*
X009224Y043495D01*
X009241Y043572D01*
X009263Y043648D01*
X009288Y043723D01*
X009318Y043796D01*
X009350Y043868D01*
X009387Y043939D01*
X009427Y044007D01*
X009470Y044073D01*
X009516Y044137D01*
X009566Y044199D01*
X009619Y044258D01*
X009674Y044314D01*
X009733Y044368D01*
X009794Y044418D01*
X009857Y044466D01*
X009923Y044510D01*
X009991Y044551D01*
X010061Y044588D01*
X010132Y044622D01*
X010206Y044652D01*
X010280Y044678D01*
X010356Y044700D01*
X010433Y044719D01*
X010511Y044734D01*
X010589Y044745D01*
X010668Y044752D01*
X010747Y044755D01*
X010826Y044754D01*
X010905Y044749D01*
X010984Y044740D01*
X011062Y044727D01*
X011139Y044710D01*
X011216Y044690D01*
X011291Y044665D01*
X011365Y044637D01*
X011438Y044605D01*
X011508Y044570D01*
X011577Y044531D01*
X011644Y044488D01*
X011709Y044442D01*
X011771Y044394D01*
X011831Y044342D01*
X011888Y044287D01*
X011942Y044229D01*
X011993Y044169D01*
X012041Y044106D01*
X012086Y044041D01*
X012128Y043973D01*
X012166Y043904D01*
X012200Y043833D01*
X012231Y043760D01*
X012259Y043685D01*
X012282Y043610D01*
X012302Y043533D01*
X012318Y043456D01*
X012330Y043377D01*
X012338Y043299D01*
X012342Y043220D01*
X012342Y043140D01*
X012338Y043061D01*
X012330Y042983D01*
X012318Y042904D01*
X012302Y042827D01*
X012282Y042750D01*
X012259Y042675D01*
X012231Y042600D01*
X012200Y042527D01*
X012166Y042456D01*
X012128Y042387D01*
X012086Y042319D01*
X012041Y042254D01*
X011993Y042191D01*
X011942Y042131D01*
X011888Y042073D01*
X011831Y042018D01*
X011771Y041966D01*
X011709Y041918D01*
X011644Y041872D01*
X011577Y041829D01*
X011508Y041790D01*
X011438Y041755D01*
X011365Y041723D01*
X011291Y041695D01*
X011216Y041670D01*
X011139Y041650D01*
X011062Y041633D01*
X010984Y041620D01*
X010905Y041611D01*
X010826Y041606D01*
X010747Y041605D01*
X010668Y041608D01*
X010589Y041615D01*
X010511Y041626D01*
X010433Y041641D01*
X010356Y041660D01*
X010280Y041682D01*
X010206Y041708D01*
X010132Y041738D01*
X010061Y041772D01*
X009991Y041809D01*
X009923Y041850D01*
X009857Y041894D01*
X009794Y041942D01*
X009733Y041992D01*
X009674Y042046D01*
X009619Y042102D01*
X009566Y042161D01*
X009516Y042223D01*
X009470Y042287D01*
X009427Y042353D01*
X009387Y042421D01*
X009350Y042492D01*
X009318Y042564D01*
X009288Y042637D01*
X009263Y042712D01*
X009241Y042788D01*
X009224Y042865D01*
X009210Y042943D01*
X009200Y043022D01*
X009194Y043101D01*
X009192Y043180D01*
X012986Y049530D02*
X012988Y049576D01*
X012994Y049621D01*
X013004Y049666D01*
X013017Y049709D01*
X013034Y049752D01*
X013055Y049792D01*
X013079Y049831D01*
X013107Y049867D01*
X013138Y049901D01*
X013171Y049933D01*
X013207Y049961D01*
X013245Y049986D01*
X013285Y050008D01*
X013327Y050026D01*
X013370Y050040D01*
X013415Y050051D01*
X013460Y050058D01*
X013506Y050061D01*
X013551Y050060D01*
X013597Y050055D01*
X013642Y050046D01*
X013685Y050034D01*
X013728Y050017D01*
X013769Y049997D01*
X013808Y049974D01*
X013846Y049947D01*
X013880Y049917D01*
X013912Y049885D01*
X013941Y049849D01*
X013967Y049812D01*
X013990Y049772D01*
X014009Y049731D01*
X014024Y049688D01*
X014036Y049643D01*
X014044Y049598D01*
X014048Y049553D01*
X014048Y049507D01*
X014044Y049462D01*
X014036Y049417D01*
X014024Y049372D01*
X014009Y049329D01*
X013990Y049288D01*
X013967Y049248D01*
X013941Y049211D01*
X013912Y049175D01*
X013880Y049143D01*
X013846Y049113D01*
X013808Y049086D01*
X013769Y049063D01*
X013728Y049043D01*
X013685Y049026D01*
X013642Y049014D01*
X013597Y049005D01*
X013551Y049000D01*
X013506Y048999D01*
X013460Y049002D01*
X013415Y049009D01*
X013370Y049020D01*
X013327Y049034D01*
X013285Y049052D01*
X013245Y049074D01*
X013207Y049099D01*
X013171Y049127D01*
X013138Y049159D01*
X013107Y049193D01*
X013079Y049229D01*
X013055Y049268D01*
X013034Y049308D01*
X013017Y049351D01*
X013004Y049394D01*
X012994Y049439D01*
X012988Y049484D01*
X012986Y049530D01*
X002692Y043180D02*
X002694Y043259D01*
X002700Y043338D01*
X002710Y043417D01*
X002724Y043495D01*
X002741Y043572D01*
X002763Y043648D01*
X002788Y043723D01*
X002818Y043796D01*
X002850Y043868D01*
X002887Y043939D01*
X002927Y044007D01*
X002970Y044073D01*
X003016Y044137D01*
X003066Y044199D01*
X003119Y044258D01*
X003174Y044314D01*
X003233Y044368D01*
X003294Y044418D01*
X003357Y044466D01*
X003423Y044510D01*
X003491Y044551D01*
X003561Y044588D01*
X003632Y044622D01*
X003706Y044652D01*
X003780Y044678D01*
X003856Y044700D01*
X003933Y044719D01*
X004011Y044734D01*
X004089Y044745D01*
X004168Y044752D01*
X004247Y044755D01*
X004326Y044754D01*
X004405Y044749D01*
X004484Y044740D01*
X004562Y044727D01*
X004639Y044710D01*
X004716Y044690D01*
X004791Y044665D01*
X004865Y044637D01*
X004938Y044605D01*
X005008Y044570D01*
X005077Y044531D01*
X005144Y044488D01*
X005209Y044442D01*
X005271Y044394D01*
X005331Y044342D01*
X005388Y044287D01*
X005442Y044229D01*
X005493Y044169D01*
X005541Y044106D01*
X005586Y044041D01*
X005628Y043973D01*
X005666Y043904D01*
X005700Y043833D01*
X005731Y043760D01*
X005759Y043685D01*
X005782Y043610D01*
X005802Y043533D01*
X005818Y043456D01*
X005830Y043377D01*
X005838Y043299D01*
X005842Y043220D01*
X005842Y043140D01*
X005838Y043061D01*
X005830Y042983D01*
X005818Y042904D01*
X005802Y042827D01*
X005782Y042750D01*
X005759Y042675D01*
X005731Y042600D01*
X005700Y042527D01*
X005666Y042456D01*
X005628Y042387D01*
X005586Y042319D01*
X005541Y042254D01*
X005493Y042191D01*
X005442Y042131D01*
X005388Y042073D01*
X005331Y042018D01*
X005271Y041966D01*
X005209Y041918D01*
X005144Y041872D01*
X005077Y041829D01*
X005008Y041790D01*
X004938Y041755D01*
X004865Y041723D01*
X004791Y041695D01*
X004716Y041670D01*
X004639Y041650D01*
X004562Y041633D01*
X004484Y041620D01*
X004405Y041611D01*
X004326Y041606D01*
X004247Y041605D01*
X004168Y041608D01*
X004089Y041615D01*
X004011Y041626D01*
X003933Y041641D01*
X003856Y041660D01*
X003780Y041682D01*
X003706Y041708D01*
X003632Y041738D01*
X003561Y041772D01*
X003491Y041809D01*
X003423Y041850D01*
X003357Y041894D01*
X003294Y041942D01*
X003233Y041992D01*
X003174Y042046D01*
X003119Y042102D01*
X003066Y042161D01*
X003016Y042223D01*
X002970Y042287D01*
X002927Y042353D01*
X002887Y042421D01*
X002850Y042492D01*
X002818Y042564D01*
X002788Y042637D01*
X002763Y042712D01*
X002741Y042788D01*
X002724Y042865D01*
X002710Y042943D01*
X002700Y043022D01*
X002694Y043101D01*
X002692Y043180D01*
X000986Y049530D02*
X000988Y049576D01*
X000994Y049621D01*
X001004Y049666D01*
X001017Y049709D01*
X001034Y049752D01*
X001055Y049792D01*
X001079Y049831D01*
X001107Y049867D01*
X001138Y049901D01*
X001171Y049933D01*
X001207Y049961D01*
X001245Y049986D01*
X001285Y050008D01*
X001327Y050026D01*
X001370Y050040D01*
X001415Y050051D01*
X001460Y050058D01*
X001506Y050061D01*
X001551Y050060D01*
X001597Y050055D01*
X001642Y050046D01*
X001685Y050034D01*
X001728Y050017D01*
X001769Y049997D01*
X001808Y049974D01*
X001846Y049947D01*
X001880Y049917D01*
X001912Y049885D01*
X001941Y049849D01*
X001967Y049812D01*
X001990Y049772D01*
X002009Y049731D01*
X002024Y049688D01*
X002036Y049643D01*
X002044Y049598D01*
X002048Y049553D01*
X002048Y049507D01*
X002044Y049462D01*
X002036Y049417D01*
X002024Y049372D01*
X002009Y049329D01*
X001990Y049288D01*
X001967Y049248D01*
X001941Y049211D01*
X001912Y049175D01*
X001880Y049143D01*
X001846Y049113D01*
X001808Y049086D01*
X001769Y049063D01*
X001728Y049043D01*
X001685Y049026D01*
X001642Y049014D01*
X001597Y049005D01*
X001551Y049000D01*
X001506Y048999D01*
X001460Y049002D01*
X001415Y049009D01*
X001370Y049020D01*
X001327Y049034D01*
X001285Y049052D01*
X001245Y049074D01*
X001207Y049099D01*
X001171Y049127D01*
X001138Y049159D01*
X001107Y049193D01*
X001079Y049229D01*
X001055Y049268D01*
X001034Y049308D01*
X001017Y049351D01*
X001004Y049394D01*
X000994Y049439D01*
X000988Y049484D01*
X000986Y049530D01*
D11*
X006767Y040680D03*
X013267Y040680D03*
X013267Y016180D03*
X001767Y016180D03*
D12*
X004267Y013680D03*
X010767Y013680D03*
X010767Y043180D03*
X004267Y043180D03*
D13*
X005767Y037731D03*
X005767Y036629D03*
X006767Y037879D03*
X006767Y038981D03*
X009017Y038731D03*
X009017Y037629D03*
X009767Y030981D03*
X009767Y029879D03*
X010517Y026481D03*
X010517Y025379D03*
X011517Y019481D03*
X011517Y018379D03*
X012517Y025379D03*
X012517Y026481D03*
X013767Y020481D03*
X013767Y019379D03*
X012267Y036629D03*
X012267Y037731D03*
X013267Y037879D03*
X013267Y038981D03*
X004517Y031231D03*
X004517Y030129D03*
X003517Y026481D03*
X003517Y025379D03*
X002017Y020481D03*
X002017Y019379D03*
X001517Y025379D03*
X001517Y026481D03*
X004017Y019481D03*
X004017Y018379D03*
X002517Y037629D03*
X002517Y038731D03*
D14*
X002517Y009202D03*
X002517Y005658D03*
X006767Y005658D03*
X006767Y009202D03*
D15*
X009267Y009731D03*
X009267Y008629D03*
X009267Y006231D03*
X009267Y005129D03*
X011517Y005379D03*
X011517Y006481D03*
X011517Y008379D03*
X011517Y009481D03*
X012767Y019379D03*
X012767Y020481D03*
X012767Y022879D03*
X012767Y023981D03*
X011517Y025379D03*
X011517Y026481D03*
X010767Y029879D03*
X010767Y030981D03*
X010017Y028731D03*
X010017Y027629D03*
X008767Y023731D03*
X008767Y022629D03*
X009767Y022981D03*
X009767Y021879D03*
X010017Y033379D03*
X010017Y034481D03*
X012267Y038629D03*
X012267Y039731D03*
X013017Y035481D03*
X013017Y034379D03*
X006517Y034379D03*
X006517Y035481D03*
X005767Y038629D03*
X005767Y039731D03*
X003517Y034481D03*
X003517Y033379D03*
X003517Y031231D03*
X003517Y030129D03*
X002517Y026481D03*
X002517Y025379D03*
X002017Y022981D03*
X002017Y021879D03*
X003017Y020481D03*
X003017Y019379D03*
X005017Y022879D03*
X005017Y023981D03*
X006017Y022981D03*
X006017Y021879D03*
X004767Y027629D03*
X004767Y028731D03*
D16*
X004767Y033400D03*
X005267Y033400D03*
X005767Y033400D03*
X005767Y035460D03*
X005267Y035460D03*
X004767Y035460D03*
X004267Y035460D03*
X004267Y033400D03*
X004267Y023960D03*
X003767Y023960D03*
X003267Y023960D03*
X002767Y023960D03*
X002767Y021900D03*
X003267Y021900D03*
X003767Y021900D03*
X004267Y021900D03*
X010517Y021900D03*
X011017Y021900D03*
X011517Y021900D03*
X012017Y021900D03*
X012017Y023960D03*
X011517Y023960D03*
X011017Y023960D03*
X010517Y023960D03*
X010767Y033400D03*
X011267Y033400D03*
X011767Y033400D03*
X012267Y033400D03*
X012267Y035460D03*
X011767Y035460D03*
X011267Y035460D03*
X010767Y035460D03*
D17*
X011068Y036680D03*
X011068Y037680D03*
X009965Y037680D03*
X009965Y036680D03*
X010965Y032180D03*
X012068Y032180D03*
X012965Y032180D03*
X012068Y028680D03*
X010965Y028680D03*
X010465Y020430D03*
X009568Y019430D03*
X008465Y019430D03*
X007068Y020430D03*
X005965Y020430D03*
X005068Y020430D03*
X003965Y020430D03*
X003818Y028680D03*
X002715Y028680D03*
X004465Y032180D03*
X005568Y032180D03*
X005715Y030930D03*
X006818Y030930D03*
X004568Y036680D03*
X004568Y037680D03*
X003465Y037680D03*
X003465Y036680D03*
X011568Y020430D03*
X014068Y032180D03*
X005193Y004930D03*
X004090Y004930D03*
D18*
X013248Y005855D03*
X013248Y009005D03*
D19*
X012354Y007922D03*
X012354Y007430D03*
X012354Y006938D03*
D20*
X009818Y016680D03*
X008715Y016680D03*
X008465Y020430D03*
X009568Y020430D03*
X008568Y026680D03*
X007568Y029680D03*
X007465Y026680D03*
X006465Y029680D03*
X003818Y027680D03*
X002715Y027680D03*
X004965Y019430D03*
X005215Y016680D03*
X006068Y019430D03*
X006318Y016680D03*
X010965Y027680D03*
X012068Y027680D03*
X011068Y038680D03*
X009965Y038680D03*
X004568Y038680D03*
X003465Y038680D03*
D21*
X001767Y036237D03*
X001767Y034623D03*
X008267Y034623D03*
X008267Y036237D03*
D22*
X008574Y032680D03*
X006960Y032680D03*
X011960Y030430D03*
X013574Y030430D03*
D23*
X008547Y028930D03*
X008547Y028430D03*
X008547Y027930D03*
X008547Y027430D03*
X006487Y027430D03*
X006487Y027930D03*
X006487Y028430D03*
X006487Y028930D03*
D24*
X010267Y009934D03*
X010267Y007926D03*
X010267Y006934D03*
X010267Y004926D03*
D25*
X009469Y004926D01*
X009267Y005129D01*
X008568Y005129D01*
X008267Y005430D01*
X008267Y006930D01*
X007767Y007430D01*
X008267Y007930D01*
X008267Y011680D01*
X007767Y012180D01*
X007767Y021680D01*
X007017Y019430D02*
X007017Y017930D01*
X007267Y017680D01*
X007267Y012180D01*
X006767Y011680D01*
X006767Y009430D01*
X006767Y009202D01*
X007546Y009731D01*
X007767Y007430D02*
X005517Y007430D01*
X005193Y007106D01*
X005193Y004930D01*
X005517Y007430D02*
X004288Y007430D01*
X002517Y009202D01*
X002017Y021430D02*
X002017Y021879D01*
X005017Y023981D02*
X005017Y024430D01*
X005017Y025430D02*
X007517Y025430D01*
X007767Y025180D01*
X008267Y024930D02*
X007767Y024430D01*
X007017Y024430D01*
X006465Y029680D02*
X006267Y029680D01*
X006568Y035430D02*
X006517Y035481D01*
X006568Y035430D02*
X006767Y035430D01*
X007017Y035680D01*
X007017Y036930D01*
X010017Y033379D02*
X010017Y033180D01*
X008767Y026680D02*
X008568Y026481D01*
X008568Y026680D01*
X009767Y021879D02*
X009818Y021879D01*
X009767Y021430D01*
X012767Y023981D02*
X012767Y024430D01*
X013017Y035481D02*
X013017Y035680D01*
X010267Y009934D02*
X009219Y009934D01*
X009017Y009731D01*
X010267Y007926D02*
X011763Y007926D01*
X011767Y007930D01*
X011973Y007922D02*
X011517Y008379D01*
X011973Y007922D02*
X012354Y007922D01*
X012354Y006938D02*
X012017Y006938D01*
X012013Y006934D01*
X010267Y006934D01*
X011517Y006481D02*
X011973Y006938D01*
X012017Y006938D01*
X003568Y033379D02*
X003517Y033430D01*
X003517Y033379D02*
X003568Y033379D01*
D26*
X004245Y033379D01*
X004267Y033400D01*
X003943Y033971D02*
X004011Y034038D01*
X004099Y034075D01*
X004169Y034075D01*
X004051Y034193D01*
X004051Y034143D01*
X004039Y034097D01*
X004015Y034056D01*
X003982Y034022D01*
X003940Y033998D01*
X003895Y033986D01*
X003594Y033986D01*
X003594Y034404D01*
X003439Y034404D01*
X002982Y034404D01*
X002982Y034143D01*
X002995Y034097D01*
X003018Y034056D01*
X003052Y034022D01*
X003093Y033998D01*
X003139Y033986D01*
X003439Y033986D01*
X003439Y034404D01*
X003439Y034559D01*
X003439Y034976D01*
X003139Y034976D01*
X003093Y034964D01*
X003052Y034940D01*
X003018Y034907D01*
X002995Y034866D01*
X002982Y034820D01*
X002982Y034559D01*
X003439Y034559D01*
X003594Y034559D01*
X003594Y034976D01*
X003895Y034976D01*
X003909Y034972D01*
X003907Y034977D01*
X003907Y035587D01*
X003745Y035749D01*
X003697Y035866D01*
X003697Y036046D01*
X003103Y036046D01*
X003015Y036083D01*
X002987Y036110D01*
X002282Y036110D01*
X002282Y035678D01*
X002246Y035589D01*
X002178Y035522D01*
X002090Y035485D01*
X001443Y035485D01*
X001355Y035522D01*
X001288Y035589D01*
X001251Y035678D01*
X001251Y036797D01*
X001288Y036885D01*
X001355Y036952D01*
X001443Y036989D01*
X002090Y036989D01*
X002178Y036952D01*
X002246Y036885D01*
X002282Y036797D01*
X002282Y036750D01*
X002911Y036750D01*
X002911Y037074D01*
X002075Y037074D01*
X001987Y037110D01*
X001920Y037178D01*
X001883Y037266D01*
X001883Y037992D01*
X001920Y038080D01*
X001987Y038147D01*
X002066Y038180D01*
X001987Y038213D01*
X001920Y038280D01*
X001883Y038368D01*
X001883Y039094D01*
X001920Y039182D01*
X001987Y039250D01*
X002075Y039286D01*
X002958Y039286D01*
X003045Y039250D01*
X003103Y039274D01*
X003828Y039274D01*
X003916Y039238D01*
X003984Y039170D01*
X004017Y039091D01*
X004049Y039170D01*
X004117Y039238D01*
X004205Y039274D01*
X004931Y039274D01*
X005019Y039238D01*
X005086Y039170D01*
X005123Y039082D01*
X005123Y038278D01*
X005090Y038200D01*
X005123Y038121D01*
X005123Y037239D01*
X005099Y037180D01*
X005123Y037121D01*
X005123Y036438D01*
X005133Y036448D01*
X005133Y036992D01*
X005170Y037080D01*
X005237Y037147D01*
X005316Y037180D01*
X005237Y037213D01*
X005170Y037280D01*
X005133Y037368D01*
X005133Y038094D01*
X005170Y038182D01*
X005196Y038209D01*
X005172Y038266D01*
X005172Y038992D01*
X005209Y039080D01*
X005276Y039147D01*
X005355Y039180D01*
X005276Y039213D01*
X005209Y039280D01*
X005172Y039368D01*
X005172Y040094D01*
X005209Y040182D01*
X005276Y040250D01*
X005365Y040286D01*
X005906Y040286D01*
X005935Y040312D01*
X005857Y040499D01*
X005857Y040640D01*
X005686Y040525D01*
X005141Y040299D01*
X004562Y040184D01*
X003972Y040184D01*
X003393Y040299D01*
X002848Y040525D01*
X002357Y040853D01*
X001940Y041270D01*
X001612Y041761D01*
X001386Y042306D01*
X001271Y042885D01*
X001271Y043475D01*
X001386Y044054D01*
X001612Y044599D01*
X001940Y045090D01*
X002357Y045507D01*
X002848Y045835D01*
X003393Y046061D01*
X003972Y046176D01*
X004562Y046176D01*
X005141Y046061D01*
X005686Y045835D01*
X006176Y045507D01*
X006594Y045090D01*
X006922Y044599D01*
X007147Y044054D01*
X007263Y043475D01*
X007263Y042885D01*
X007147Y042306D01*
X006922Y041761D01*
X006807Y041589D01*
X006948Y041589D01*
X007282Y041451D01*
X007538Y041195D01*
X007676Y040861D01*
X007676Y040499D01*
X007538Y040165D01*
X007282Y039909D01*
X006948Y039771D01*
X006586Y039771D01*
X006383Y039855D01*
X006361Y039835D01*
X006361Y039476D01*
X006689Y039476D01*
X006689Y039059D01*
X006844Y039059D01*
X006844Y039476D01*
X007184Y039476D01*
X007230Y039464D01*
X007271Y039440D01*
X007304Y039407D01*
X007328Y039366D01*
X007340Y039320D01*
X007340Y039059D01*
X006844Y039059D01*
X006844Y038904D01*
X007340Y038904D01*
X007340Y038643D01*
X007328Y038597D01*
X007304Y038556D01*
X007271Y038522D01*
X007230Y038498D01*
X007184Y038486D01*
X006844Y038486D01*
X006844Y038904D01*
X006689Y038904D01*
X006689Y038486D01*
X006361Y038486D01*
X006361Y038434D01*
X007208Y038434D01*
X007296Y038397D01*
X007364Y038330D01*
X007400Y038242D01*
X007400Y037516D01*
X007364Y037428D01*
X007296Y037360D01*
X007212Y037325D01*
X007266Y037303D01*
X007390Y037179D01*
X007457Y037018D01*
X007457Y036842D01*
X007456Y036842D02*
X007770Y036842D01*
X007788Y036885D02*
X007751Y036797D01*
X007751Y035678D01*
X007788Y035589D01*
X007855Y035522D01*
X007943Y035485D01*
X008590Y035485D01*
X008678Y035522D01*
X008746Y035589D01*
X008782Y035678D01*
X008782Y036300D01*
X008842Y036360D01*
X009411Y036360D01*
X009411Y036239D01*
X009447Y036150D01*
X009515Y036083D01*
X009603Y036046D01*
X010197Y036046D01*
X010197Y035866D01*
X010245Y035749D01*
X010407Y035587D01*
X010407Y034977D01*
X010409Y034972D01*
X010395Y034976D01*
X010094Y034976D01*
X010094Y034559D01*
X009939Y034559D01*
X009939Y034976D01*
X009639Y034976D01*
X009593Y034964D01*
X009552Y034940D01*
X009518Y034907D01*
X009495Y034866D01*
X009482Y034820D01*
X009482Y034559D01*
X009939Y034559D01*
X009939Y034404D01*
X009482Y034404D01*
X009482Y034143D01*
X009495Y034097D01*
X009518Y034056D01*
X009552Y034022D01*
X009593Y033998D01*
X009639Y033986D01*
X009939Y033986D01*
X009939Y034404D01*
X010094Y034404D01*
X010094Y033986D01*
X010395Y033986D01*
X010440Y033998D01*
X010482Y034022D01*
X010515Y034056D01*
X010539Y034097D01*
X010551Y034143D01*
X010551Y034193D01*
X010669Y034075D01*
X010599Y034075D01*
X010511Y034038D01*
X010443Y033971D01*
X010426Y033931D01*
X010419Y033934D01*
X009615Y033934D01*
X009526Y033897D01*
X009459Y033830D01*
X009422Y033742D01*
X009422Y033016D01*
X009459Y032928D01*
X009526Y032860D01*
X009615Y032824D01*
X009751Y032824D01*
X009767Y032807D01*
X009929Y032740D01*
X010104Y032740D01*
X010266Y032807D01*
X010283Y032824D01*
X010419Y032824D01*
X010441Y032833D01*
X010443Y032829D01*
X010505Y032767D01*
X010447Y032710D01*
X010411Y032621D01*
X010411Y032482D01*
X010335Y032451D01*
X009585Y031701D01*
X009495Y031611D01*
X009464Y031536D01*
X009325Y031536D01*
X009237Y031500D01*
X009170Y031432D01*
X009133Y031344D01*
X009133Y030618D01*
X009170Y030530D01*
X009237Y030463D01*
X009316Y030430D01*
X009237Y030397D01*
X009170Y030330D01*
X009133Y030242D01*
X009133Y029698D01*
X008725Y029290D01*
X008064Y029290D01*
X008059Y029288D01*
X008063Y029302D01*
X008063Y029603D01*
X007645Y029603D01*
X007645Y029146D01*
X007892Y029146D01*
X007872Y029098D01*
X007872Y028762D01*
X007906Y028680D01*
X007872Y028598D01*
X007872Y028262D01*
X007906Y028180D01*
X007872Y028098D01*
X007872Y027762D01*
X007906Y027680D01*
X007872Y027598D01*
X007872Y027262D01*
X007908Y027174D01*
X007976Y027107D01*
X008016Y027090D01*
X008013Y027082D01*
X008013Y026278D01*
X008049Y026190D01*
X008117Y026122D01*
X008205Y026086D01*
X008477Y026086D01*
X008488Y026081D01*
X008647Y026081D01*
X008658Y026086D01*
X008931Y026086D01*
X009019Y026122D01*
X009086Y026190D01*
X009123Y026278D01*
X009123Y026414D01*
X009140Y026431D01*
X009207Y026592D01*
X009207Y026768D01*
X009140Y026929D01*
X009123Y026946D01*
X009123Y027082D01*
X009113Y027105D01*
X009118Y027107D01*
X009185Y027174D01*
X009222Y027262D01*
X009222Y027598D01*
X009217Y027610D01*
X009384Y027610D01*
X009422Y027572D01*
X009422Y027266D01*
X009459Y027178D01*
X009526Y027110D01*
X009615Y027074D01*
X010419Y027074D01*
X010507Y027110D01*
X010518Y027121D01*
X010603Y027086D01*
X011328Y027086D01*
X011416Y027122D01*
X011447Y027152D01*
X011447Y027036D01*
X011115Y027036D01*
X011036Y027004D01*
X010958Y027036D01*
X010075Y027036D01*
X009987Y027000D01*
X009920Y026932D01*
X009883Y026844D01*
X009883Y026118D01*
X009920Y026030D01*
X009987Y025963D01*
X010066Y025930D01*
X009987Y025897D01*
X009920Y025830D01*
X009883Y025742D01*
X009883Y025016D01*
X009920Y024928D01*
X009987Y024860D01*
X010075Y024824D01*
X010197Y024824D01*
X010197Y024534D01*
X010193Y024531D01*
X010157Y024443D01*
X010157Y024280D01*
X009184Y024280D01*
X009169Y024286D01*
X008365Y024286D01*
X008276Y024250D01*
X008209Y024182D01*
X008172Y024094D01*
X008172Y023368D01*
X008209Y023280D01*
X008276Y023213D01*
X008355Y023180D01*
X008276Y023147D01*
X008209Y023080D01*
X008172Y022992D01*
X008172Y022456D01*
X008145Y022391D01*
X008145Y021915D01*
X008140Y021929D01*
X008016Y022053D01*
X007854Y022120D01*
X007679Y022120D01*
X007517Y022053D01*
X007394Y021929D01*
X007327Y021768D01*
X007327Y021592D01*
X007367Y021496D01*
X007367Y021004D01*
X007145Y021004D01*
X007145Y020507D01*
X006990Y020507D01*
X006990Y020353D01*
X006573Y020353D01*
X006573Y020013D01*
X006585Y019967D01*
X006609Y019926D01*
X006642Y019892D01*
X006683Y019869D01*
X006729Y019856D01*
X006896Y019856D01*
X006767Y019803D01*
X006644Y019679D01*
X006623Y019629D01*
X006623Y019832D01*
X006586Y019920D01*
X006520Y019987D01*
X006520Y019989D01*
X006520Y020871D01*
X006484Y020960D01*
X006416Y021027D01*
X006337Y021060D01*
X006337Y021324D01*
X006419Y021324D01*
X006507Y021360D01*
X006574Y021428D01*
X006611Y021516D01*
X006611Y022242D01*
X006574Y022330D01*
X006507Y022397D01*
X006428Y022430D01*
X006507Y022463D01*
X006574Y022530D01*
X006611Y022618D01*
X006611Y023344D01*
X006574Y023432D01*
X006507Y023500D01*
X006419Y023536D01*
X006337Y023536D01*
X006337Y024244D01*
X006288Y024361D01*
X006198Y024451D01*
X005619Y025030D01*
X007351Y025030D01*
X007354Y025027D01*
X007394Y024931D01*
X007494Y024830D01*
X007201Y024830D01*
X007104Y024870D01*
X006929Y024870D01*
X006767Y024803D01*
X006644Y024679D01*
X006577Y024518D01*
X006577Y024342D01*
X006644Y024181D01*
X006767Y024057D01*
X006929Y023990D01*
X007104Y023990D01*
X007201Y024030D01*
X007846Y024030D01*
X007993Y024091D01*
X008419Y024517D01*
X008516Y024557D01*
X008640Y024681D01*
X008707Y024842D01*
X008707Y025018D01*
X008640Y025179D01*
X008516Y025303D01*
X008354Y025370D01*
X008179Y025370D01*
X008166Y025365D01*
X008140Y025429D01*
X008016Y025553D01*
X007919Y025593D01*
X007743Y025769D01*
X007596Y025830D01*
X005201Y025830D01*
X005104Y025870D01*
X004929Y025870D01*
X004767Y025803D01*
X004644Y025679D01*
X004577Y025518D01*
X004577Y025342D01*
X004615Y025250D01*
X004203Y025250D01*
X004150Y025228D01*
X004150Y025742D01*
X004114Y025830D01*
X004046Y025897D01*
X003967Y025930D01*
X004046Y025963D01*
X004114Y026030D01*
X004150Y026118D01*
X004150Y026844D01*
X004114Y026932D01*
X004046Y027000D01*
X003958Y027036D01*
X003075Y027036D01*
X003035Y027020D01*
X003035Y027086D01*
X003078Y027086D01*
X003166Y027122D01*
X003234Y027190D01*
X003267Y027269D01*
X003299Y027190D01*
X003367Y027122D01*
X003455Y027086D01*
X004181Y027086D01*
X004266Y027121D01*
X004276Y027110D01*
X004365Y027074D01*
X005169Y027074D01*
X005256Y027110D01*
X005912Y027110D01*
X005916Y027107D01*
X006004Y027070D01*
X006969Y027070D01*
X006974Y027072D01*
X006971Y027058D01*
X006971Y026757D01*
X007388Y026757D01*
X007388Y026603D01*
X006971Y026603D01*
X006971Y026302D01*
X006983Y026256D01*
X007006Y026215D01*
X007040Y026182D01*
X007081Y026158D01*
X007127Y026146D01*
X007388Y026146D01*
X007388Y026603D01*
X007543Y026603D01*
X007543Y026757D01*
X007960Y026757D01*
X007960Y027058D01*
X007948Y027104D01*
X007924Y027145D01*
X007891Y027178D01*
X007850Y027202D01*
X007804Y027214D01*
X007543Y027214D01*
X007543Y026757D01*
X007388Y026757D01*
X007388Y027214D01*
X007142Y027214D01*
X007162Y027262D01*
X007162Y027598D01*
X007128Y027680D01*
X007162Y027762D01*
X007162Y028098D01*
X007128Y028180D01*
X007162Y028262D01*
X007162Y028598D01*
X007128Y028680D01*
X007162Y028762D01*
X007162Y029098D01*
X007125Y029186D01*
X007058Y029253D01*
X007017Y029270D01*
X007020Y029278D01*
X007020Y030082D01*
X006984Y030170D01*
X006916Y030238D01*
X006828Y030274D01*
X006103Y030274D01*
X006015Y030238D01*
X005947Y030170D01*
X005911Y030082D01*
X005911Y029946D01*
X005894Y029929D01*
X005827Y029768D01*
X005827Y029592D01*
X005894Y029431D01*
X005911Y029414D01*
X005911Y029278D01*
X005920Y029255D01*
X005916Y029253D01*
X005848Y029186D01*
X005837Y029158D01*
X005837Y029192D01*
X005788Y029310D01*
X005150Y029948D01*
X005150Y030492D01*
X005114Y030580D01*
X005046Y030647D01*
X004967Y030680D01*
X005046Y030713D01*
X005114Y030780D01*
X005150Y030868D01*
X005150Y031569D01*
X005205Y031546D01*
X005248Y031546D01*
X005248Y031510D01*
X005197Y031460D01*
X005161Y031371D01*
X005161Y030489D01*
X005197Y030400D01*
X005265Y030333D01*
X005353Y030296D01*
X006078Y030296D01*
X006166Y030333D01*
X006234Y030400D01*
X006267Y030479D01*
X006299Y030400D01*
X006367Y030333D01*
X006455Y030296D01*
X007181Y030296D01*
X007269Y030333D01*
X007336Y030400D01*
X007373Y030489D01*
X007373Y031371D01*
X007336Y031460D01*
X007269Y031527D01*
X007181Y031564D01*
X007138Y031564D01*
X007138Y032164D01*
X007519Y032164D01*
X007607Y032201D01*
X007675Y032268D01*
X007711Y032357D01*
X007711Y033003D01*
X007675Y033092D01*
X007607Y033159D01*
X007519Y033196D01*
X006400Y033196D01*
X006312Y033159D01*
X006244Y033092D01*
X006208Y033003D01*
X006208Y032357D01*
X006244Y032268D01*
X006312Y032201D01*
X006400Y032164D01*
X006498Y032164D01*
X006498Y031564D01*
X006455Y031564D01*
X006367Y031527D01*
X006299Y031460D01*
X006267Y031381D01*
X006234Y031460D01*
X006166Y031527D01*
X006078Y031564D01*
X005973Y031564D01*
X006019Y031583D01*
X006086Y031650D01*
X006123Y031739D01*
X006123Y032621D01*
X006086Y032710D01*
X006028Y032767D01*
X006090Y032829D01*
X006127Y032917D01*
X006127Y033883D01*
X006125Y033888D01*
X006139Y033884D01*
X006439Y033884D01*
X006439Y034301D01*
X006594Y034301D01*
X006594Y033884D01*
X006895Y033884D01*
X006940Y033896D01*
X006982Y033920D01*
X007015Y033953D01*
X007039Y033994D01*
X007051Y034040D01*
X007051Y034301D01*
X006594Y034301D01*
X006594Y034456D01*
X007051Y034456D01*
X007051Y034717D01*
X007039Y034763D01*
X007015Y034804D01*
X006982Y034838D01*
X006940Y034862D01*
X006895Y034874D01*
X006594Y034874D01*
X006594Y034456D01*
X006439Y034456D01*
X006439Y034301D01*
X005982Y034301D01*
X005982Y034167D01*
X005948Y034201D01*
X005698Y034451D01*
X005580Y034500D01*
X004649Y034500D01*
X004587Y034563D01*
X004587Y034790D01*
X004599Y034785D01*
X004934Y034785D01*
X005017Y034819D01*
X005099Y034785D01*
X005434Y034785D01*
X005517Y034819D01*
X005599Y034785D01*
X005934Y034785D01*
X006023Y034822D01*
X006090Y034889D01*
X006107Y034929D01*
X006115Y034926D01*
X006919Y034926D01*
X007007Y034963D01*
X007074Y035030D01*
X007111Y035118D01*
X007111Y035152D01*
X007140Y035181D01*
X007180Y035277D01*
X007356Y035453D01*
X007417Y035600D01*
X007417Y036746D01*
X007457Y036842D01*
X007457Y037001D02*
X009411Y037001D01*
X009411Y037000D02*
X008646Y037000D01*
X008605Y036983D01*
X008590Y036989D01*
X007943Y036989D01*
X007855Y036952D01*
X007788Y036885D01*
X007751Y036684D02*
X007417Y036684D01*
X007417Y036525D02*
X007751Y036525D01*
X007751Y036367D02*
X007417Y036367D01*
X007417Y036208D02*
X007751Y036208D01*
X007751Y036050D02*
X007417Y036050D01*
X007417Y035891D02*
X007751Y035891D01*
X007751Y035733D02*
X007417Y035733D01*
X007406Y035574D02*
X007803Y035574D01*
X007922Y035302D02*
X007881Y035279D01*
X007847Y035245D01*
X007823Y035204D01*
X007811Y035158D01*
X007811Y034681D01*
X008209Y034681D01*
X008209Y035315D01*
X007967Y035315D01*
X007922Y035302D01*
X007859Y035257D02*
X007171Y035257D01*
X007103Y035099D02*
X007811Y035099D01*
X007811Y034940D02*
X006952Y034940D01*
X007028Y034782D02*
X007811Y034782D01*
X007811Y034565D02*
X007811Y034087D01*
X007823Y034042D01*
X007847Y034001D01*
X007881Y033967D01*
X007922Y033943D01*
X007967Y033931D01*
X008209Y033931D01*
X008209Y034565D01*
X008324Y034565D01*
X008324Y033931D01*
X008566Y033931D01*
X008612Y033943D01*
X008653Y033967D01*
X008686Y034001D01*
X008710Y034042D01*
X008722Y034087D01*
X008722Y034565D01*
X008324Y034565D01*
X008324Y034681D01*
X008209Y034681D01*
X008209Y034565D01*
X007811Y034565D01*
X007811Y034465D02*
X007051Y034465D01*
X007051Y034623D02*
X008209Y034623D01*
X008324Y034623D02*
X009482Y034623D01*
X009482Y034782D02*
X008722Y034782D01*
X008722Y034681D02*
X008722Y035158D01*
X008710Y035204D01*
X008686Y035245D01*
X008653Y035279D01*
X008612Y035302D01*
X008566Y035315D01*
X008324Y035315D01*
X008324Y034681D01*
X008722Y034681D01*
X008722Y034465D02*
X009939Y034465D01*
X009939Y034623D02*
X010094Y034623D01*
X010094Y034782D02*
X009939Y034782D01*
X009939Y034940D02*
X010094Y034940D01*
X010094Y034306D02*
X009939Y034306D01*
X009939Y034148D02*
X010094Y034148D01*
X010094Y033989D02*
X009939Y033989D01*
X010038Y033400D02*
X010017Y033379D01*
X010038Y033400D02*
X010767Y033400D01*
X010461Y033989D02*
X010405Y033989D01*
X010551Y034148D02*
X010597Y034148D01*
X010767Y034430D02*
X011017Y034180D01*
X012017Y034180D01*
X012267Y033930D01*
X012267Y033400D01*
X012627Y033355D02*
X014412Y033355D01*
X014412Y033197D02*
X012627Y033197D01*
X012627Y033038D02*
X014412Y033038D01*
X014412Y032880D02*
X012611Y032880D01*
X012627Y032917D02*
X012627Y033883D01*
X012625Y033888D01*
X012639Y033884D01*
X012939Y033884D01*
X012939Y034301D01*
X013094Y034301D01*
X013094Y033884D01*
X013395Y033884D01*
X013440Y033896D01*
X013482Y033920D01*
X013515Y033953D01*
X013539Y033994D01*
X013551Y034040D01*
X013551Y034301D01*
X013094Y034301D01*
X013094Y034456D01*
X013551Y034456D01*
X013551Y034717D01*
X013539Y034763D01*
X013515Y034804D01*
X013482Y034838D01*
X013440Y034862D01*
X013395Y034874D01*
X013094Y034874D01*
X013094Y034456D01*
X012939Y034456D01*
X012939Y034301D01*
X012482Y034301D01*
X012482Y034167D01*
X012448Y034201D01*
X012198Y034451D01*
X012080Y034500D01*
X011149Y034500D01*
X011087Y034563D01*
X011087Y034790D01*
X011099Y034785D01*
X011434Y034785D01*
X011517Y034819D01*
X011599Y034785D01*
X011934Y034785D01*
X012017Y034819D01*
X012099Y034785D01*
X012434Y034785D01*
X012523Y034822D01*
X012590Y034889D01*
X012607Y034929D01*
X012615Y034926D01*
X013419Y034926D01*
X013507Y034963D01*
X013574Y035030D01*
X013611Y035118D01*
X013611Y035844D01*
X013574Y035932D01*
X013507Y036000D01*
X013419Y036036D01*
X013283Y036036D01*
X013266Y036053D01*
X013104Y036120D01*
X012929Y036120D01*
X012767Y036053D01*
X012751Y036036D01*
X012615Y036036D01*
X012592Y036027D01*
X012590Y036031D01*
X012547Y036074D01*
X012708Y036074D01*
X012796Y036110D01*
X012864Y036178D01*
X012900Y036266D01*
X012900Y036992D01*
X012864Y037080D01*
X012796Y037147D01*
X012717Y037180D01*
X012796Y037213D01*
X012864Y037280D01*
X012882Y037324D01*
X013708Y037324D01*
X013796Y037360D01*
X013864Y037428D01*
X013900Y037516D01*
X013900Y038242D01*
X013864Y038330D01*
X013796Y038397D01*
X013708Y038434D01*
X012861Y038434D01*
X012861Y038486D01*
X013189Y038486D01*
X013189Y038904D01*
X013344Y038904D01*
X013344Y039059D01*
X013189Y039059D01*
X013189Y039476D01*
X012861Y039476D01*
X012861Y039864D01*
X013086Y039771D01*
X013448Y039771D01*
X013782Y039909D01*
X014038Y040165D01*
X014176Y040499D01*
X014176Y040861D01*
X014038Y041195D01*
X013782Y041451D01*
X013448Y041589D01*
X013307Y041589D01*
X013422Y041761D01*
X013647Y042306D01*
X013763Y042885D01*
X013763Y043475D01*
X013647Y044054D01*
X013422Y044599D01*
X013094Y045090D01*
X012676Y045507D01*
X012186Y045835D01*
X011641Y046061D01*
X011062Y046176D01*
X010472Y046176D01*
X009893Y046061D01*
X009348Y045835D01*
X008857Y045507D01*
X008440Y045090D01*
X008112Y044599D01*
X007886Y044054D01*
X007771Y043475D01*
X007771Y042885D01*
X007886Y042306D01*
X008112Y041761D01*
X008440Y041270D01*
X008857Y040853D01*
X009348Y040525D01*
X009893Y040299D01*
X010472Y040184D01*
X011062Y040184D01*
X011641Y040299D01*
X012186Y040525D01*
X012357Y040640D01*
X012357Y040499D01*
X012423Y040340D01*
X012369Y040286D01*
X011865Y040286D01*
X011776Y040250D01*
X011709Y040182D01*
X011672Y040094D01*
X011672Y039368D01*
X011709Y039280D01*
X011776Y039213D01*
X011855Y039180D01*
X011776Y039147D01*
X011709Y039080D01*
X011672Y038992D01*
X011672Y038266D01*
X011696Y038209D01*
X011670Y038182D01*
X011633Y038094D01*
X011633Y037368D01*
X011670Y037280D01*
X011737Y037213D01*
X011816Y037180D01*
X011737Y037147D01*
X011670Y037080D01*
X011633Y036992D01*
X011633Y036448D01*
X011623Y036438D01*
X011623Y037121D01*
X011599Y037180D01*
X011623Y037239D01*
X011623Y038121D01*
X011590Y038200D01*
X011623Y038278D01*
X011623Y039082D01*
X011586Y039170D01*
X011519Y039238D01*
X011431Y039274D01*
X010705Y039274D01*
X010617Y039238D01*
X010549Y039170D01*
X010517Y039091D01*
X010484Y039170D01*
X010416Y039238D01*
X010328Y039274D01*
X009603Y039274D01*
X009545Y039250D01*
X009458Y039286D01*
X008575Y039286D01*
X008487Y039250D01*
X008420Y039182D01*
X008383Y039094D01*
X008383Y038368D01*
X008420Y038280D01*
X008487Y038213D01*
X008566Y038180D01*
X008487Y038147D01*
X008420Y038080D01*
X008383Y037992D01*
X008383Y037266D01*
X008420Y037178D01*
X008487Y037110D01*
X008575Y037074D01*
X009411Y037074D01*
X009411Y037000D01*
X009423Y036208D02*
X008782Y036208D01*
X008782Y036050D02*
X009595Y036050D01*
X009552Y034940D02*
X008722Y034940D01*
X008722Y035099D02*
X010407Y035099D01*
X010407Y035257D02*
X008675Y035257D01*
X008730Y035574D02*
X010407Y035574D01*
X010407Y035416D02*
X007318Y035416D01*
X007051Y034148D02*
X007811Y034148D01*
X007811Y034306D02*
X006594Y034306D01*
X006439Y034306D02*
X005843Y034306D01*
X005982Y034456D02*
X005982Y034717D01*
X005995Y034763D01*
X006018Y034804D01*
X006052Y034838D01*
X006093Y034862D01*
X006139Y034874D01*
X006439Y034874D01*
X006439Y034456D01*
X005982Y034456D01*
X005982Y034465D02*
X005666Y034465D01*
X005517Y034180D02*
X005767Y033930D01*
X005767Y033400D01*
X006111Y032880D02*
X006208Y032880D01*
X006222Y033038D02*
X006127Y033038D01*
X006127Y033197D02*
X009422Y033197D01*
X009422Y033355D02*
X006127Y033355D01*
X006127Y033514D02*
X009422Y033514D01*
X009422Y033672D02*
X006127Y033672D01*
X006127Y033831D02*
X009460Y033831D01*
X009482Y034148D02*
X008722Y034148D01*
X008722Y034306D02*
X009482Y034306D01*
X009628Y033989D02*
X008675Y033989D01*
X008632Y033136D02*
X009109Y033136D01*
X009155Y033123D01*
X009196Y033100D01*
X009230Y033066D01*
X009253Y033025D01*
X009266Y032979D01*
X009266Y032738D01*
X008632Y032738D01*
X008632Y032622D01*
X009266Y032622D01*
X009266Y032381D01*
X009253Y032335D01*
X009230Y032294D01*
X009196Y032260D01*
X009155Y032237D01*
X009109Y032224D01*
X008632Y032224D01*
X008632Y032622D01*
X008516Y032622D01*
X008516Y032224D01*
X008038Y032224D01*
X007992Y032237D01*
X007951Y032260D01*
X007918Y032294D01*
X007894Y032335D01*
X007882Y032381D01*
X007882Y032622D01*
X008516Y032622D01*
X008516Y032738D01*
X008516Y033136D01*
X008038Y033136D01*
X007992Y033123D01*
X007951Y033100D01*
X007918Y033066D01*
X007894Y033025D01*
X007882Y032979D01*
X007882Y032738D01*
X008516Y032738D01*
X008632Y032738D01*
X008632Y033136D01*
X008632Y033038D02*
X008516Y033038D01*
X008516Y032880D02*
X008632Y032880D01*
X008632Y032721D02*
X010458Y032721D01*
X010411Y032563D02*
X009266Y032563D01*
X009266Y032404D02*
X010288Y032404D01*
X010130Y032246D02*
X009170Y032246D01*
X009266Y032880D02*
X009507Y032880D01*
X009422Y033038D02*
X009246Y033038D01*
X009496Y031612D02*
X007138Y031612D01*
X007138Y031770D02*
X009654Y031770D01*
X009813Y031929D02*
X007138Y031929D01*
X007138Y032087D02*
X009971Y032087D01*
X010517Y032180D02*
X009767Y031430D01*
X009767Y030981D01*
X009767Y029879D02*
X008818Y028930D01*
X008547Y028930D01*
X008547Y028430D02*
X008547Y027930D01*
X009517Y027930D01*
X009767Y027680D01*
X009965Y027680D01*
X010017Y027629D01*
X010024Y027015D02*
X009123Y027015D01*
X009170Y026857D02*
X009888Y026857D01*
X009883Y026698D02*
X009207Y026698D01*
X009185Y026540D02*
X009883Y026540D01*
X009883Y026381D02*
X009123Y026381D01*
X009100Y026223D02*
X009883Y026223D01*
X009906Y026064D02*
X004128Y026064D01*
X004150Y026223D02*
X007002Y026223D01*
X006971Y026381D02*
X004150Y026381D01*
X004150Y026540D02*
X006971Y026540D01*
X006971Y026857D02*
X004145Y026857D01*
X004150Y026698D02*
X007388Y026698D01*
X007543Y026698D02*
X008013Y026698D01*
X007960Y026603D02*
X007543Y026603D01*
X007543Y026146D01*
X007804Y026146D01*
X007850Y026158D01*
X007891Y026182D01*
X007924Y026215D01*
X007948Y026256D01*
X007960Y026302D01*
X007960Y026603D01*
X007960Y026540D02*
X008013Y026540D01*
X008013Y026381D02*
X007960Y026381D01*
X007929Y026223D02*
X008036Y026223D01*
X008013Y026857D02*
X007960Y026857D01*
X007960Y027015D02*
X008013Y027015D01*
X007909Y027174D02*
X007896Y027174D01*
X007872Y027332D02*
X007162Y027332D01*
X007162Y027491D02*
X007872Y027491D01*
X007893Y027649D02*
X007140Y027649D01*
X007162Y027808D02*
X007872Y027808D01*
X007872Y027966D02*
X007162Y027966D01*
X007151Y028125D02*
X007883Y028125D01*
X007872Y028283D02*
X007162Y028283D01*
X007162Y028442D02*
X007872Y028442D01*
X007873Y028600D02*
X007161Y028600D01*
X007160Y028759D02*
X007873Y028759D01*
X007872Y028917D02*
X007162Y028917D01*
X007162Y029076D02*
X007872Y029076D01*
X007645Y029234D02*
X007490Y029234D01*
X007490Y029146D02*
X007490Y029603D01*
X007073Y029603D01*
X007073Y029302D01*
X007085Y029256D01*
X007109Y029215D01*
X007142Y029182D01*
X007183Y029158D01*
X007229Y029146D01*
X007490Y029146D01*
X007490Y029393D02*
X007645Y029393D01*
X007645Y029551D02*
X007490Y029551D01*
X007490Y029603D02*
X007645Y029603D01*
X007645Y029757D01*
X008063Y029757D01*
X008063Y030058D01*
X008051Y030104D01*
X008027Y030145D01*
X007993Y030178D01*
X007952Y030202D01*
X007907Y030214D01*
X007645Y030214D01*
X007645Y029757D01*
X007490Y029757D01*
X007490Y029603D01*
X007490Y029710D02*
X007020Y029710D01*
X007073Y029757D02*
X007073Y030058D01*
X007085Y030104D01*
X007109Y030145D01*
X007142Y030178D01*
X007183Y030202D01*
X007229Y030214D01*
X007490Y030214D01*
X007490Y029757D01*
X007073Y029757D01*
X007073Y029868D02*
X007020Y029868D01*
X007020Y030027D02*
X007073Y030027D01*
X007154Y030185D02*
X006969Y030185D01*
X007020Y029551D02*
X007073Y029551D01*
X007073Y029393D02*
X007020Y029393D01*
X007077Y029234D02*
X007098Y029234D01*
X007279Y030344D02*
X009183Y030344D01*
X009198Y030502D02*
X007373Y030502D01*
X007373Y030661D02*
X009133Y030661D01*
X009133Y030819D02*
X007373Y030819D01*
X007373Y030978D02*
X009133Y030978D01*
X009133Y031136D02*
X007373Y031136D01*
X007373Y031295D02*
X009133Y031295D01*
X009190Y031453D02*
X007339Y031453D01*
X007652Y032246D02*
X007977Y032246D01*
X007882Y032404D02*
X007711Y032404D01*
X007711Y032563D02*
X007882Y032563D01*
X007711Y032721D02*
X008516Y032721D01*
X008516Y032563D02*
X008632Y032563D01*
X008632Y032404D02*
X008516Y032404D01*
X008516Y032246D02*
X008632Y032246D01*
X008324Y033989D02*
X008209Y033989D01*
X008209Y034148D02*
X008324Y034148D01*
X008324Y034306D02*
X008209Y034306D01*
X008209Y034465D02*
X008324Y034465D01*
X008324Y034782D02*
X008209Y034782D01*
X008209Y034940D02*
X008324Y034940D01*
X008324Y035099D02*
X008209Y035099D01*
X008209Y035257D02*
X008324Y035257D01*
X008267Y036237D02*
X008710Y036680D01*
X009965Y036680D01*
X010197Y035891D02*
X008782Y035891D01*
X008782Y035733D02*
X010262Y035733D01*
X010517Y035930D02*
X010767Y035680D01*
X010767Y035460D01*
X010767Y034430D01*
X011087Y034623D02*
X012482Y034623D01*
X012482Y034717D02*
X012482Y034456D01*
X012939Y034456D01*
X012939Y034874D01*
X012639Y034874D01*
X012593Y034862D01*
X012552Y034838D01*
X012518Y034804D01*
X012495Y034763D01*
X012482Y034717D01*
X012505Y034782D02*
X011087Y034782D01*
X011267Y035460D02*
X011267Y036481D01*
X011068Y036680D01*
X011068Y037680D01*
X011068Y038680D01*
X011537Y039220D02*
X011770Y039220D01*
X011701Y039061D02*
X011623Y039061D01*
X011623Y038903D02*
X011672Y038903D01*
X011672Y038744D02*
X011623Y038744D01*
X011623Y038586D02*
X011672Y038586D01*
X011672Y038427D02*
X011623Y038427D01*
X011619Y038269D02*
X011672Y038269D01*
X011640Y038110D02*
X011623Y038110D01*
X011623Y037952D02*
X011633Y037952D01*
X011623Y037793D02*
X011633Y037793D01*
X011623Y037635D02*
X011633Y037635D01*
X011623Y037476D02*
X011633Y037476D01*
X011623Y037318D02*
X011654Y037318D01*
X011607Y037159D02*
X011765Y037159D01*
X011637Y037001D02*
X011623Y037001D01*
X011623Y036842D02*
X011633Y036842D01*
X011623Y036684D02*
X011633Y036684D01*
X011623Y036525D02*
X011633Y036525D01*
X011767Y036129D02*
X012267Y036629D01*
X012572Y036050D02*
X012764Y036050D01*
X012876Y036208D02*
X014412Y036208D01*
X014412Y036050D02*
X013269Y036050D01*
X013591Y035891D02*
X014412Y035891D01*
X014412Y035733D02*
X013611Y035733D01*
X013611Y035574D02*
X014412Y035574D01*
X014412Y035416D02*
X013611Y035416D01*
X013611Y035257D02*
X014412Y035257D01*
X014412Y035099D02*
X013603Y035099D01*
X013452Y034940D02*
X014412Y034940D01*
X014412Y034782D02*
X013528Y034782D01*
X013551Y034623D02*
X014412Y034623D01*
X014412Y034465D02*
X013551Y034465D01*
X013551Y034148D02*
X014412Y034148D01*
X014412Y034306D02*
X013094Y034306D01*
X012939Y034306D02*
X012343Y034306D01*
X012482Y034465D02*
X012166Y034465D01*
X011767Y035460D02*
X011767Y036129D01*
X012267Y037731D02*
X012414Y037879D01*
X013267Y037879D01*
X013344Y038486D02*
X013684Y038486D01*
X013730Y038498D01*
X013771Y038522D01*
X013804Y038556D01*
X013828Y038597D01*
X013840Y038643D01*
X013840Y038904D01*
X013344Y038904D01*
X013344Y038486D01*
X013344Y038586D02*
X013189Y038586D01*
X013189Y038744D02*
X013344Y038744D01*
X013344Y038903D02*
X013189Y038903D01*
X013189Y039061D02*
X013344Y039061D01*
X013344Y039059D02*
X013344Y039476D01*
X013684Y039476D01*
X013730Y039464D01*
X013771Y039440D01*
X013804Y039407D01*
X013828Y039366D01*
X013840Y039320D01*
X013840Y039059D01*
X013344Y039059D01*
X013344Y039220D02*
X013189Y039220D01*
X013189Y039378D02*
X013344Y039378D01*
X013647Y039854D02*
X014412Y039854D01*
X014412Y040012D02*
X013885Y040012D01*
X014040Y040171D02*
X014412Y040171D01*
X014412Y040329D02*
X014105Y040329D01*
X014171Y040488D02*
X014412Y040488D01*
X014412Y040646D02*
X014176Y040646D01*
X014176Y040805D02*
X014412Y040805D01*
X014412Y040963D02*
X014134Y040963D01*
X014068Y041122D02*
X014412Y041122D01*
X014412Y041280D02*
X013953Y041280D01*
X013794Y041439D02*
X014412Y041439D01*
X014412Y041597D02*
X013312Y041597D01*
X013418Y041756D02*
X014412Y041756D01*
X014412Y041914D02*
X013485Y041914D01*
X013551Y042073D02*
X014412Y042073D01*
X014412Y042231D02*
X013616Y042231D01*
X013664Y042390D02*
X014412Y042390D01*
X014412Y042548D02*
X013696Y042548D01*
X013727Y042707D02*
X014412Y042707D01*
X014412Y042865D02*
X013759Y042865D01*
X013763Y043024D02*
X014412Y043024D01*
X014412Y043182D02*
X013763Y043182D01*
X013763Y043341D02*
X014412Y043341D01*
X014412Y043499D02*
X013758Y043499D01*
X013726Y043658D02*
X014412Y043658D01*
X014412Y043816D02*
X013695Y043816D01*
X013663Y043975D02*
X014412Y043975D01*
X014412Y044133D02*
X013615Y044133D01*
X013549Y044292D02*
X014412Y044292D01*
X014412Y044450D02*
X013483Y044450D01*
X013415Y044609D02*
X014412Y044609D01*
X014412Y044767D02*
X013309Y044767D01*
X013203Y044926D02*
X014412Y044926D01*
X014412Y045084D02*
X013098Y045084D01*
X012941Y045243D02*
X014412Y045243D01*
X014412Y045401D02*
X012782Y045401D01*
X012598Y045560D02*
X014412Y045560D01*
X014412Y045718D02*
X012361Y045718D01*
X012085Y045877D02*
X014412Y045877D01*
X014412Y046035D02*
X011703Y046035D01*
X010767Y043180D02*
X010767Y041430D01*
X009517Y040180D01*
X009438Y040488D02*
X007671Y040488D01*
X007676Y040646D02*
X009167Y040646D01*
X008929Y040805D02*
X007676Y040805D01*
X007634Y040963D02*
X008747Y040963D01*
X008588Y041122D02*
X007568Y041122D01*
X007453Y041280D02*
X008433Y041280D01*
X008327Y041439D02*
X007294Y041439D01*
X007051Y042073D02*
X007983Y042073D01*
X007917Y042231D02*
X007116Y042231D01*
X007164Y042390D02*
X007869Y042390D01*
X007838Y042548D02*
X007196Y042548D01*
X007227Y042707D02*
X007806Y042707D01*
X007775Y042865D02*
X007259Y042865D01*
X007263Y043024D02*
X007771Y043024D01*
X007771Y043182D02*
X007263Y043182D01*
X007263Y043341D02*
X007771Y043341D01*
X007776Y043499D02*
X007258Y043499D01*
X007226Y043658D02*
X007807Y043658D01*
X007839Y043816D02*
X007195Y043816D01*
X007163Y043975D02*
X007870Y043975D01*
X007919Y044133D02*
X007115Y044133D01*
X007049Y044292D02*
X007984Y044292D01*
X008050Y044450D02*
X006983Y044450D01*
X006915Y044609D02*
X008118Y044609D01*
X008224Y044767D02*
X006809Y044767D01*
X006703Y044926D02*
X008330Y044926D01*
X008436Y045084D02*
X006598Y045084D01*
X006441Y045243D02*
X008592Y045243D01*
X008751Y045401D02*
X006282Y045401D01*
X006098Y045560D02*
X008935Y045560D01*
X009173Y045718D02*
X005861Y045718D01*
X005585Y045877D02*
X009448Y045877D01*
X009831Y046035D02*
X005203Y046035D01*
X004267Y043180D02*
X004267Y041430D01*
X003017Y040180D01*
X002938Y040488D02*
X000622Y040488D01*
X000622Y040646D02*
X002667Y040646D01*
X002429Y040805D02*
X000622Y040805D01*
X000622Y040963D02*
X002247Y040963D01*
X002088Y041122D02*
X000622Y041122D01*
X000622Y041280D02*
X001933Y041280D01*
X001827Y041439D02*
X000622Y041439D01*
X000622Y041597D02*
X001721Y041597D01*
X001615Y041756D02*
X000622Y041756D01*
X000622Y041914D02*
X001548Y041914D01*
X001483Y042073D02*
X000622Y042073D01*
X000622Y042231D02*
X001417Y042231D01*
X001369Y042390D02*
X000622Y042390D01*
X000622Y042548D02*
X001338Y042548D01*
X001306Y042707D02*
X000622Y042707D01*
X000622Y042865D02*
X001275Y042865D01*
X001271Y043024D02*
X000622Y043024D01*
X000622Y043182D02*
X001271Y043182D01*
X001271Y043341D02*
X000622Y043341D01*
X000622Y043499D02*
X001276Y043499D01*
X001307Y043658D02*
X000622Y043658D01*
X000622Y043816D02*
X001339Y043816D01*
X001370Y043975D02*
X000622Y043975D01*
X000622Y044133D02*
X001419Y044133D01*
X001484Y044292D02*
X000622Y044292D01*
X000622Y044450D02*
X001550Y044450D01*
X001618Y044609D02*
X000622Y044609D01*
X000622Y044767D02*
X001724Y044767D01*
X001830Y044926D02*
X000622Y044926D01*
X000622Y045084D02*
X001936Y045084D01*
X002092Y045243D02*
X000622Y045243D01*
X000622Y045401D02*
X002251Y045401D01*
X002435Y045560D02*
X000622Y045560D01*
X000622Y045718D02*
X002673Y045718D01*
X002948Y045877D02*
X000622Y045877D01*
X000622Y046035D02*
X003331Y046035D01*
X003321Y040329D02*
X000622Y040329D01*
X000622Y040171D02*
X005204Y040171D01*
X005212Y040329D02*
X005928Y040329D01*
X005862Y040488D02*
X005595Y040488D01*
X005767Y039731D02*
X006767Y040629D01*
X006767Y040680D01*
X007147Y039854D02*
X011672Y039854D01*
X011672Y040012D02*
X007385Y040012D01*
X007540Y040171D02*
X011704Y040171D01*
X011712Y040329D02*
X012412Y040329D01*
X012362Y040488D02*
X012095Y040488D01*
X012267Y039731D02*
X013215Y040680D01*
X013267Y040680D01*
X012886Y039854D02*
X012861Y039854D01*
X012861Y039695D02*
X014412Y039695D01*
X014412Y039537D02*
X012861Y039537D01*
X012267Y038629D02*
X012267Y037731D01*
X012768Y037159D02*
X014412Y037159D01*
X014412Y037001D02*
X012897Y037001D01*
X012900Y036842D02*
X014412Y036842D01*
X014412Y036684D02*
X012900Y036684D01*
X012900Y036525D02*
X014412Y036525D01*
X014412Y036367D02*
X012900Y036367D01*
X012879Y037318D02*
X014412Y037318D01*
X014412Y037476D02*
X013884Y037476D01*
X013900Y037635D02*
X014412Y037635D01*
X014412Y037793D02*
X013900Y037793D01*
X013900Y037952D02*
X014412Y037952D01*
X014412Y038110D02*
X013900Y038110D01*
X013889Y038269D02*
X014412Y038269D01*
X014412Y038427D02*
X013724Y038427D01*
X013822Y038586D02*
X014412Y038586D01*
X014412Y038744D02*
X013840Y038744D01*
X013840Y038903D02*
X014412Y038903D01*
X014412Y039061D02*
X013840Y039061D01*
X013840Y039220D02*
X014412Y039220D01*
X014412Y039378D02*
X013821Y039378D01*
X013094Y034782D02*
X012939Y034782D01*
X012939Y034623D02*
X013094Y034623D01*
X013094Y034465D02*
X012939Y034465D01*
X012939Y034148D02*
X013094Y034148D01*
X013094Y033989D02*
X012939Y033989D01*
X012627Y033831D02*
X014412Y033831D01*
X014412Y033989D02*
X013536Y033989D01*
X013705Y032814D02*
X013617Y032777D01*
X013549Y032710D01*
X013517Y032631D01*
X013484Y032710D01*
X013416Y032777D01*
X013328Y032814D01*
X012603Y032814D01*
X012555Y032794D01*
X012590Y032829D01*
X012627Y032917D01*
X012627Y033514D02*
X014412Y033514D01*
X014412Y033672D02*
X012627Y033672D01*
X012965Y032180D02*
X012068Y032180D01*
X011767Y032481D01*
X011767Y033400D01*
X011517Y031729D02*
X011549Y031650D01*
X011617Y031583D01*
X011705Y031546D01*
X012431Y031546D01*
X012517Y031582D01*
X012603Y031546D01*
X013328Y031546D01*
X013416Y031583D01*
X013484Y031650D01*
X013517Y031729D01*
X013549Y031650D01*
X013617Y031583D01*
X013705Y031546D01*
X013748Y031546D01*
X013748Y031057D01*
X013637Y030946D01*
X013014Y030946D01*
X012926Y030909D01*
X012858Y030842D01*
X012822Y030753D01*
X012822Y030107D01*
X012858Y030018D01*
X012926Y029951D01*
X013014Y029914D01*
X014133Y029914D01*
X014222Y029951D01*
X014289Y030018D01*
X014326Y030107D01*
X014326Y030729D01*
X014339Y030743D01*
X014388Y030860D01*
X014388Y031546D01*
X014412Y031546D01*
X014412Y004430D01*
X010897Y004430D01*
X010903Y004436D01*
X010940Y004524D01*
X010940Y005328D01*
X010903Y005416D01*
X010836Y005484D01*
X010747Y005520D01*
X009849Y005520D01*
X009824Y005580D01*
X009757Y005647D01*
X009669Y005684D01*
X008865Y005684D01*
X008776Y005647D01*
X008709Y005580D01*
X008701Y005561D01*
X008667Y005596D01*
X008667Y007010D01*
X008606Y007157D01*
X008332Y007430D01*
X008493Y007591D01*
X008606Y007703D01*
X008667Y007850D01*
X008667Y009459D01*
X008672Y009453D01*
X008672Y009368D01*
X008709Y009280D01*
X008776Y009213D01*
X008865Y009176D01*
X009669Y009176D01*
X009757Y009213D01*
X009824Y009280D01*
X009849Y009340D01*
X010747Y009340D01*
X010836Y009376D01*
X010903Y009444D01*
X010940Y009532D01*
X010940Y010336D01*
X010903Y010424D01*
X010836Y010492D01*
X010747Y010528D01*
X009786Y010528D01*
X009698Y010492D01*
X009630Y010424D01*
X009594Y010336D01*
X009594Y010334D01*
X009140Y010334D01*
X009024Y010286D01*
X008865Y010286D01*
X008776Y010250D01*
X008709Y010182D01*
X008672Y010094D01*
X008672Y010009D01*
X008667Y010003D01*
X008667Y011543D01*
X008857Y011353D01*
X009348Y011025D01*
X009893Y010799D01*
X010472Y010684D01*
X011062Y010684D01*
X011641Y010799D01*
X012186Y011025D01*
X012676Y011353D01*
X013094Y011770D01*
X013422Y012261D01*
X013647Y012806D01*
X013763Y013385D01*
X013763Y013975D01*
X013647Y014554D01*
X013422Y015099D01*
X013307Y015271D01*
X013448Y015271D01*
X013782Y015409D01*
X014038Y015665D01*
X014176Y015999D01*
X014176Y016361D01*
X014038Y016695D01*
X013782Y016951D01*
X013448Y017089D01*
X013086Y017089D01*
X012867Y016999D01*
X012035Y017856D01*
X012046Y017860D01*
X012114Y017928D01*
X012150Y018016D01*
X012150Y018610D01*
X012330Y018610D01*
X012448Y018659D01*
X012538Y018749D01*
X012613Y018824D01*
X013169Y018824D01*
X013257Y018860D01*
X013297Y018900D01*
X013303Y018896D01*
X013349Y018884D01*
X013689Y018884D01*
X013689Y019301D01*
X013844Y019301D01*
X013844Y018884D01*
X014184Y018884D01*
X014230Y018896D01*
X014271Y018920D01*
X014304Y018953D01*
X014328Y018994D01*
X014340Y019040D01*
X014340Y019301D01*
X013844Y019301D01*
X013844Y019456D01*
X014340Y019456D01*
X014340Y019717D01*
X014328Y019763D01*
X014304Y019804D01*
X014271Y019838D01*
X014230Y019862D01*
X014184Y019874D01*
X013844Y019874D01*
X013844Y019456D01*
X013689Y019456D01*
X013689Y019874D01*
X013349Y019874D01*
X013303Y019862D01*
X013297Y019858D01*
X013257Y019897D01*
X013178Y019930D01*
X013247Y019959D01*
X013325Y019926D01*
X014208Y019926D01*
X014296Y019963D01*
X014364Y020030D01*
X014400Y020118D01*
X014400Y020844D01*
X014364Y020932D01*
X014296Y021000D01*
X014208Y021036D01*
X013325Y021036D01*
X013247Y021004D01*
X013169Y021036D01*
X012863Y021036D01*
X012377Y021523D01*
X012377Y022383D01*
X012375Y022388D01*
X012389Y022384D01*
X012689Y022384D01*
X012689Y022801D01*
X012844Y022801D01*
X012844Y022384D01*
X013145Y022384D01*
X013190Y022396D01*
X013232Y022420D01*
X013265Y022453D01*
X013289Y022494D01*
X013301Y022540D01*
X013301Y022801D01*
X012844Y022801D01*
X012844Y022956D01*
X013301Y022956D01*
X013301Y023217D01*
X013289Y023263D01*
X013265Y023304D01*
X013232Y023338D01*
X013190Y023362D01*
X013145Y023374D01*
X012844Y023374D01*
X012844Y022956D01*
X012689Y022956D01*
X012689Y022801D01*
X012232Y022801D01*
X012232Y022555D01*
X012184Y022575D01*
X011849Y022575D01*
X011767Y022541D01*
X011684Y022575D01*
X011349Y022575D01*
X011267Y022541D01*
X011184Y022575D01*
X010849Y022575D01*
X010767Y022541D01*
X010684Y022575D01*
X010349Y022575D01*
X010261Y022538D01*
X010193Y022471D01*
X010176Y022431D01*
X010169Y022434D01*
X009365Y022434D01*
X009361Y022432D01*
X009361Y022494D01*
X009389Y022486D01*
X009689Y022486D01*
X009689Y022904D01*
X009844Y022904D01*
X009844Y023059D01*
X009689Y023059D01*
X009689Y023476D01*
X009389Y023476D01*
X009361Y023469D01*
X009361Y023640D01*
X010157Y023640D01*
X010157Y023477D01*
X010159Y023472D01*
X010145Y023476D01*
X009844Y023476D01*
X009844Y023059D01*
X010301Y023059D01*
X010301Y023305D01*
X010349Y023285D01*
X010684Y023285D01*
X010767Y023319D01*
X010849Y023285D01*
X011184Y023285D01*
X011267Y023319D01*
X011349Y023285D01*
X011684Y023285D01*
X011767Y023319D01*
X011849Y023285D01*
X012184Y023285D01*
X012273Y023322D01*
X012340Y023389D01*
X012357Y023429D01*
X012365Y023426D01*
X013169Y023426D01*
X013257Y023463D01*
X013324Y023530D01*
X013361Y023618D01*
X013361Y024344D01*
X013324Y024432D01*
X013257Y024500D01*
X013205Y024521D01*
X013140Y024679D01*
X013016Y024803D01*
X012962Y024825D01*
X013046Y024860D01*
X013114Y024928D01*
X013150Y025016D01*
X013150Y025742D01*
X013114Y025830D01*
X013046Y025897D01*
X012958Y025934D01*
X012075Y025934D01*
X011997Y025901D01*
X011928Y025930D01*
X012007Y025963D01*
X012047Y026002D01*
X012053Y025998D01*
X012099Y025986D01*
X012439Y025986D01*
X012439Y026404D01*
X012594Y026404D01*
X012594Y026559D01*
X012439Y026559D01*
X012439Y026976D01*
X012099Y026976D01*
X012087Y026973D01*
X012087Y027047D01*
X012125Y027086D01*
X012431Y027086D01*
X012519Y027122D01*
X012586Y027190D01*
X012623Y027278D01*
X012623Y028082D01*
X012586Y028170D01*
X012547Y028210D01*
X012551Y028217D01*
X012563Y028263D01*
X012563Y028603D01*
X012145Y028603D01*
X012145Y028757D01*
X012563Y028757D01*
X012563Y029097D01*
X012551Y029143D01*
X012527Y029184D01*
X012493Y029218D01*
X012452Y029241D01*
X012407Y029254D01*
X012145Y029254D01*
X012145Y028757D01*
X011990Y028757D01*
X011990Y028603D01*
X011573Y028603D01*
X011573Y028263D01*
X011585Y028217D01*
X011589Y028210D01*
X011549Y028170D01*
X011517Y028091D01*
X011488Y028160D01*
X011520Y028239D01*
X011520Y029121D01*
X011484Y029210D01*
X011416Y029277D01*
X011328Y029314D01*
X010603Y029314D01*
X010515Y029277D01*
X010493Y029255D01*
X010419Y029286D01*
X009627Y029286D01*
X009664Y029324D01*
X010208Y029324D01*
X010286Y029356D01*
X010365Y029324D01*
X011169Y029324D01*
X011257Y029360D01*
X011324Y029428D01*
X011361Y029516D01*
X011361Y029997D01*
X011378Y029987D01*
X011424Y029974D01*
X011902Y029974D01*
X011902Y030372D01*
X012017Y030372D01*
X012017Y029974D01*
X012495Y029974D01*
X012541Y029987D01*
X012582Y030010D01*
X012615Y030044D01*
X012639Y030085D01*
X012651Y030131D01*
X012651Y030372D01*
X012017Y030372D01*
X012017Y030488D01*
X011902Y030488D01*
X011902Y030886D01*
X011424Y030886D01*
X011378Y030873D01*
X011337Y030850D01*
X011304Y030816D01*
X011301Y030811D01*
X011301Y030904D01*
X010844Y030904D01*
X010844Y031059D01*
X010689Y031059D01*
X010689Y031476D01*
X010389Y031476D01*
X010343Y031464D01*
X010336Y031460D01*
X010296Y031500D01*
X010291Y031502D01*
X010445Y031656D01*
X010447Y031650D01*
X010515Y031583D01*
X010603Y031546D01*
X011328Y031546D01*
X011416Y031583D01*
X011484Y031650D01*
X011517Y031729D01*
X011588Y031612D02*
X011445Y031612D01*
X011265Y031407D02*
X011232Y031440D01*
X011190Y031464D01*
X011145Y031476D01*
X010844Y031476D01*
X010844Y031059D01*
X011301Y031059D01*
X011301Y031320D01*
X011289Y031366D01*
X011265Y031407D01*
X011209Y031453D02*
X013748Y031453D01*
X013748Y031295D02*
X011301Y031295D01*
X011301Y031136D02*
X013748Y031136D01*
X013669Y030978D02*
X010844Y030978D01*
X010844Y030904D02*
X010844Y030486D01*
X011145Y030486D01*
X011190Y030498D01*
X011232Y030522D01*
X011265Y030556D01*
X011268Y030560D01*
X011268Y030488D01*
X011902Y030488D01*
X011902Y030372D01*
X011282Y030372D01*
X011257Y030397D01*
X011169Y030434D01*
X010365Y030434D01*
X010286Y030401D01*
X010217Y030430D01*
X010296Y030463D01*
X010336Y030502D01*
X010337Y030502D01*
X010336Y030502D02*
X010343Y030498D01*
X010389Y030486D01*
X010689Y030486D01*
X010689Y030904D01*
X010844Y030904D01*
X010844Y030819D02*
X010689Y030819D01*
X010689Y030661D02*
X010844Y030661D01*
X010844Y030502D02*
X010689Y030502D01*
X010767Y029879D02*
X009767Y029879D01*
X010017Y028731D02*
X010068Y028680D01*
X010965Y028680D01*
X010965Y027680D01*
X011009Y027015D02*
X011064Y027015D01*
X011517Y026481D02*
X010517Y026481D01*
X010007Y025906D02*
X004026Y025906D01*
X004148Y025747D02*
X004711Y025747D01*
X004606Y025589D02*
X004150Y025589D01*
X004150Y025430D02*
X004577Y025430D01*
X004606Y025271D02*
X004150Y025271D01*
X004267Y024930D02*
X005267Y024930D01*
X006017Y024180D01*
X006017Y022981D01*
X006337Y023686D02*
X008172Y023686D01*
X008172Y023528D02*
X006438Y023528D01*
X006600Y023369D02*
X008172Y023369D01*
X008281Y023211D02*
X006611Y023211D01*
X006611Y023052D02*
X008198Y023052D01*
X008172Y022894D02*
X006611Y022894D01*
X006611Y022735D02*
X008172Y022735D01*
X008172Y022577D02*
X006594Y022577D01*
X006456Y022418D02*
X008157Y022418D01*
X008145Y022260D02*
X006603Y022260D01*
X006611Y022101D02*
X007634Y022101D01*
X007407Y021943D02*
X006611Y021943D01*
X006611Y021784D02*
X007334Y021784D01*
X007327Y021626D02*
X006611Y021626D01*
X006591Y021467D02*
X007367Y021467D01*
X007367Y021309D02*
X006337Y021309D01*
X006337Y021150D02*
X007367Y021150D01*
X007145Y020992D02*
X006990Y020992D01*
X006990Y021004D02*
X006729Y021004D01*
X006683Y020991D01*
X006642Y020968D01*
X006609Y020934D01*
X006585Y020893D01*
X006573Y020847D01*
X006573Y020507D01*
X006990Y020507D01*
X006990Y021004D01*
X006990Y020833D02*
X007145Y020833D01*
X007145Y020675D02*
X006990Y020675D01*
X006990Y020516D02*
X007145Y020516D01*
X007145Y020353D02*
X007145Y019856D01*
X007367Y019856D01*
X007367Y019702D01*
X007266Y019803D01*
X007104Y019870D01*
X006990Y019870D01*
X006990Y020353D01*
X007145Y020353D01*
X007145Y020199D02*
X006990Y020199D01*
X006990Y020041D02*
X007145Y020041D01*
X007145Y019882D02*
X006990Y019882D01*
X006990Y020358D02*
X006520Y020358D01*
X006520Y020516D02*
X006573Y020516D01*
X006573Y020675D02*
X006520Y020675D01*
X006520Y020833D02*
X006573Y020833D01*
X006685Y020992D02*
X006452Y020992D01*
X006520Y020199D02*
X006573Y020199D01*
X006573Y020041D02*
X006520Y020041D01*
X006602Y019882D02*
X006659Y019882D01*
X006688Y019724D02*
X006623Y019724D01*
X006617Y019013D02*
X006617Y017850D01*
X006678Y017703D01*
X006790Y017591D01*
X006867Y017514D01*
X006867Y015181D01*
X006594Y015590D01*
X006176Y016007D01*
X006087Y016067D01*
X006087Y016146D01*
X006240Y016146D01*
X006240Y016603D01*
X006395Y016603D01*
X006395Y016757D01*
X006813Y016757D01*
X006813Y017058D01*
X006801Y017104D01*
X006777Y017145D01*
X006743Y017178D01*
X006702Y017202D01*
X006657Y017214D01*
X006395Y017214D01*
X006395Y016757D01*
X006240Y016757D01*
X006240Y017214D01*
X005979Y017214D01*
X005944Y017205D01*
X005788Y017361D01*
X005698Y017451D01*
X005580Y017500D01*
X004953Y017500D01*
X004835Y017451D01*
X004585Y017201D01*
X004495Y017111D01*
X004447Y016994D01*
X004447Y016676D01*
X003972Y016676D01*
X003393Y016561D01*
X002848Y016335D01*
X002676Y016220D01*
X002676Y016361D01*
X002595Y016556D01*
X003686Y017647D01*
X003881Y017824D01*
X004458Y017824D01*
X004546Y017860D01*
X004614Y017928D01*
X004650Y018016D01*
X004650Y018639D01*
X004698Y018659D01*
X004875Y018836D01*
X005328Y018836D01*
X005416Y018872D01*
X005484Y018940D01*
X005517Y019019D01*
X005549Y018940D01*
X005617Y018872D01*
X005705Y018836D01*
X006431Y018836D01*
X006519Y018872D01*
X006586Y018940D01*
X006617Y019013D01*
X006617Y018931D02*
X006578Y018931D01*
X006617Y018773D02*
X004812Y018773D01*
X004650Y018614D02*
X006617Y018614D01*
X006617Y018456D02*
X004650Y018456D01*
X004650Y018297D02*
X006617Y018297D01*
X006617Y018139D02*
X004650Y018139D01*
X004636Y017980D02*
X006617Y017980D01*
X006628Y017822D02*
X003879Y017822D01*
X003704Y017663D02*
X006717Y017663D01*
X006867Y017505D02*
X003544Y017505D01*
X003386Y017346D02*
X004731Y017346D01*
X004572Y017188D02*
X003227Y017188D01*
X003069Y017029D02*
X004462Y017029D01*
X004447Y016871D02*
X002910Y016871D01*
X002752Y016712D02*
X004447Y016712D01*
X005215Y016680D02*
X004267Y015731D01*
X004267Y013680D01*
X003376Y016554D02*
X002596Y016554D01*
X002662Y016395D02*
X002994Y016395D01*
X002701Y016237D02*
X002676Y016237D01*
X002322Y017188D02*
X000622Y017188D01*
X000622Y017346D02*
X002481Y017346D01*
X002639Y017505D02*
X000622Y017505D01*
X000622Y017663D02*
X002798Y017663D01*
X002956Y017822D02*
X000622Y017822D01*
X000622Y017980D02*
X003115Y017980D01*
X003200Y018066D02*
X002143Y017008D01*
X001948Y017089D01*
X001586Y017089D01*
X001252Y016951D01*
X000996Y016695D01*
X000857Y016361D01*
X000857Y015999D01*
X000996Y015665D01*
X001252Y015409D01*
X001586Y015271D01*
X001726Y015271D01*
X001612Y015099D01*
X001386Y014554D01*
X001271Y013975D01*
X001271Y013385D01*
X001386Y012806D01*
X001612Y012261D01*
X001940Y011770D01*
X002357Y011353D01*
X002848Y011025D01*
X002908Y011000D01*
X001203Y011000D01*
X001085Y010951D01*
X000995Y010861D01*
X000745Y010611D01*
X000697Y010494D01*
X000697Y004982D01*
X000644Y004929D01*
X000622Y004876D01*
X000622Y046430D01*
X014412Y046430D01*
X014412Y032814D01*
X013705Y032814D01*
X013561Y032721D02*
X013473Y032721D01*
X013445Y031612D02*
X013588Y031612D01*
X014068Y030924D02*
X013574Y030430D01*
X014068Y030924D02*
X014068Y032180D01*
X014388Y031453D02*
X014412Y031453D01*
X014412Y031295D02*
X014388Y031295D01*
X014388Y031136D02*
X014412Y031136D01*
X014412Y030978D02*
X014388Y030978D01*
X014371Y030819D02*
X014412Y030819D01*
X014412Y030661D02*
X014326Y030661D01*
X014326Y030502D02*
X014412Y030502D01*
X014412Y030344D02*
X014326Y030344D01*
X014326Y030185D02*
X014412Y030185D01*
X014412Y030027D02*
X014292Y030027D01*
X014412Y029868D02*
X011361Y029868D01*
X011361Y029710D02*
X014412Y029710D01*
X014412Y029551D02*
X011361Y029551D01*
X011289Y029393D02*
X014412Y029393D01*
X014412Y029234D02*
X012465Y029234D01*
X012563Y029076D02*
X014412Y029076D01*
X014412Y028917D02*
X012563Y028917D01*
X012563Y028759D02*
X014412Y028759D01*
X014412Y028600D02*
X012563Y028600D01*
X012563Y028442D02*
X014412Y028442D01*
X014412Y028283D02*
X012563Y028283D01*
X012605Y028125D02*
X014412Y028125D01*
X014412Y027966D02*
X012623Y027966D01*
X012623Y027808D02*
X014412Y027808D01*
X014412Y027649D02*
X012623Y027649D01*
X012623Y027491D02*
X014412Y027491D01*
X014412Y027332D02*
X012623Y027332D01*
X012570Y027174D02*
X014412Y027174D01*
X014412Y027015D02*
X012087Y027015D01*
X011767Y027180D02*
X012068Y027481D01*
X012068Y027680D01*
X011767Y027180D02*
X011767Y026731D01*
X011517Y026481D01*
X011987Y025906D02*
X012007Y025906D01*
X012439Y026064D02*
X012594Y026064D01*
X012594Y025986D02*
X012934Y025986D01*
X012980Y025998D01*
X013021Y026022D01*
X013054Y026056D01*
X013078Y026097D01*
X013090Y026143D01*
X013090Y026404D01*
X012594Y026404D01*
X012594Y025986D01*
X012594Y026223D02*
X012439Y026223D01*
X012439Y026381D02*
X012594Y026381D01*
X012594Y026540D02*
X014412Y026540D01*
X014412Y026698D02*
X013090Y026698D01*
X013090Y026820D02*
X013078Y026866D01*
X013054Y026907D01*
X013021Y026940D01*
X012980Y026964D01*
X012934Y026976D01*
X012594Y026976D01*
X012594Y026559D01*
X013090Y026559D01*
X013090Y026820D01*
X013081Y026857D02*
X014412Y026857D01*
X014412Y026381D02*
X013090Y026381D01*
X013090Y026223D02*
X014412Y026223D01*
X014412Y026064D02*
X013059Y026064D01*
X013026Y025906D02*
X014412Y025906D01*
X014412Y025747D02*
X013148Y025747D01*
X013150Y025589D02*
X014412Y025589D01*
X014412Y025430D02*
X013150Y025430D01*
X013150Y025271D02*
X014412Y025271D01*
X014412Y025113D02*
X013150Y025113D01*
X013125Y024954D02*
X014412Y024954D01*
X014412Y024796D02*
X013023Y024796D01*
X013157Y024637D02*
X014412Y024637D01*
X014412Y024479D02*
X013278Y024479D01*
X013361Y024320D02*
X014412Y024320D01*
X014412Y024162D02*
X013361Y024162D01*
X013361Y024003D02*
X014412Y024003D01*
X014412Y023845D02*
X013361Y023845D01*
X013361Y023686D02*
X014412Y023686D01*
X014412Y023528D02*
X013322Y023528D01*
X013161Y023369D02*
X014412Y023369D01*
X014412Y023211D02*
X013301Y023211D01*
X013301Y023052D02*
X014412Y023052D01*
X014412Y022894D02*
X012844Y022894D01*
X012689Y022894D02*
X010301Y022894D01*
X010301Y022904D02*
X009844Y022904D01*
X009844Y022486D01*
X010145Y022486D01*
X010190Y022498D01*
X010232Y022522D01*
X010265Y022556D01*
X010289Y022597D01*
X010301Y022643D01*
X010301Y022904D01*
X010301Y022735D02*
X012232Y022735D01*
X012232Y022577D02*
X010277Y022577D01*
X010301Y023211D02*
X012232Y023211D01*
X012232Y023217D02*
X012232Y022956D01*
X012689Y022956D01*
X012689Y023374D01*
X012389Y023374D01*
X012343Y023362D01*
X012302Y023338D01*
X012268Y023304D01*
X012245Y023263D01*
X012232Y023217D01*
X012232Y023052D02*
X009844Y023052D01*
X009844Y022894D02*
X009689Y022894D01*
X009689Y022735D02*
X009844Y022735D01*
X009844Y022577D02*
X009689Y022577D01*
X009689Y023211D02*
X009844Y023211D01*
X009844Y023369D02*
X009689Y023369D01*
X009361Y023528D02*
X010157Y023528D01*
X010157Y024320D02*
X008223Y024320D01*
X008201Y024162D02*
X008064Y024162D01*
X008172Y024003D02*
X007137Y024003D01*
X006897Y024003D02*
X006337Y024003D01*
X006337Y023845D02*
X008172Y023845D01*
X008381Y024479D02*
X010172Y024479D01*
X010197Y024637D02*
X008596Y024637D01*
X008687Y024796D02*
X010197Y024796D01*
X009908Y024954D02*
X008707Y024954D01*
X008667Y025113D02*
X009883Y025113D01*
X009883Y025271D02*
X008547Y025271D01*
X008139Y025430D02*
X009883Y025430D01*
X009883Y025589D02*
X007930Y025589D01*
X007765Y025747D02*
X009885Y025747D01*
X009463Y027174D02*
X009185Y027174D01*
X009222Y027332D02*
X009422Y027332D01*
X009422Y027491D02*
X009222Y027491D01*
X008828Y029393D02*
X008063Y029393D01*
X008063Y029551D02*
X008986Y029551D01*
X009133Y029710D02*
X007645Y029710D01*
X007645Y029868D02*
X007490Y029868D01*
X007490Y030027D02*
X007645Y030027D01*
X007645Y030185D02*
X007490Y030185D01*
X007982Y030185D02*
X009133Y030185D01*
X009133Y030027D02*
X008063Y030027D01*
X008063Y029868D02*
X009133Y029868D01*
X008547Y027430D02*
X008547Y026701D01*
X008568Y026680D01*
X008788Y023960D02*
X010517Y023960D01*
X010517Y025379D01*
X010517Y023960D02*
X011017Y023960D01*
X011517Y023960D02*
X011517Y025379D01*
X012517Y025379D01*
X012767Y023981D02*
X012745Y023960D01*
X012017Y023960D01*
X012321Y023369D02*
X012373Y023369D01*
X012377Y022260D02*
X014412Y022260D01*
X014412Y022418D02*
X013229Y022418D01*
X013301Y022577D02*
X014412Y022577D01*
X014412Y022735D02*
X013301Y022735D01*
X012844Y022735D02*
X012689Y022735D01*
X012689Y022577D02*
X012844Y022577D01*
X012844Y022418D02*
X012689Y022418D01*
X012689Y023052D02*
X012844Y023052D01*
X012844Y023211D02*
X012689Y023211D01*
X012689Y023369D02*
X012844Y023369D01*
X012377Y022101D02*
X014412Y022101D01*
X014412Y021943D02*
X012377Y021943D01*
X012377Y021784D02*
X014412Y021784D01*
X014412Y021626D02*
X012377Y021626D01*
X012432Y021467D02*
X014412Y021467D01*
X014412Y021309D02*
X012590Y021309D01*
X012749Y021150D02*
X014412Y021150D01*
X014412Y020992D02*
X014304Y020992D01*
X014400Y020833D02*
X014412Y020833D01*
X014400Y020675D02*
X014412Y020675D01*
X014400Y020516D02*
X014412Y020516D01*
X014400Y020358D02*
X014412Y020358D01*
X014400Y020199D02*
X014412Y020199D01*
X014412Y020041D02*
X014368Y020041D01*
X014412Y019882D02*
X013272Y019882D01*
X013689Y019724D02*
X013844Y019724D01*
X013844Y019565D02*
X013689Y019565D01*
X013844Y019407D02*
X014412Y019407D01*
X014412Y019565D02*
X014340Y019565D01*
X014339Y019724D02*
X014412Y019724D01*
X014412Y019248D02*
X014340Y019248D01*
X014340Y019090D02*
X014412Y019090D01*
X014412Y018931D02*
X014283Y018931D01*
X014412Y018773D02*
X012562Y018773D01*
X012341Y018614D02*
X014412Y018614D01*
X014412Y018456D02*
X012150Y018456D01*
X012150Y018297D02*
X014412Y018297D01*
X014412Y018139D02*
X012150Y018139D01*
X012136Y017980D02*
X014412Y017980D01*
X014412Y017822D02*
X012067Y017822D01*
X012221Y017663D02*
X014412Y017663D01*
X014412Y017505D02*
X012375Y017505D01*
X012099Y016871D02*
X010587Y016871D01*
X010587Y016994D02*
X010538Y017111D01*
X010288Y017361D01*
X010198Y017451D01*
X010080Y017500D01*
X009453Y017500D01*
X009335Y017451D01*
X009089Y017205D01*
X009054Y017214D01*
X008793Y017214D01*
X008793Y016757D01*
X008638Y016757D01*
X008638Y016603D01*
X008221Y016603D01*
X008221Y016302D01*
X008233Y016256D01*
X008256Y016215D01*
X008290Y016182D01*
X008331Y016158D01*
X008377Y016146D01*
X008638Y016146D01*
X008638Y016603D01*
X008793Y016603D01*
X008793Y016146D01*
X008947Y016146D01*
X008947Y016067D01*
X008857Y016007D01*
X008440Y015590D01*
X008167Y015181D01*
X008167Y018796D01*
X008828Y018796D01*
X008916Y018833D01*
X008984Y018900D01*
X009020Y018989D01*
X009020Y019871D01*
X008988Y019950D01*
X009017Y020019D01*
X009049Y019940D01*
X009089Y019900D01*
X009085Y019893D01*
X009073Y019847D01*
X009073Y019507D01*
X009490Y019507D01*
X009490Y019353D01*
X009073Y019353D01*
X009073Y019013D01*
X009085Y018967D01*
X009109Y018926D01*
X009142Y018892D01*
X009183Y018869D01*
X009229Y018856D01*
X009490Y018856D01*
X009490Y019353D01*
X009645Y019353D01*
X009645Y019507D01*
X010063Y019507D01*
X010063Y019813D01*
X010103Y019796D01*
X010197Y019796D01*
X010197Y019366D01*
X010245Y019249D01*
X010335Y019159D01*
X010835Y018659D01*
X010883Y018639D01*
X010883Y018016D01*
X010920Y017928D01*
X010987Y017860D01*
X011075Y017824D01*
X011214Y017824D01*
X011220Y017810D01*
X011243Y017753D01*
X011244Y017751D01*
X011245Y017749D01*
X011289Y017705D01*
X012428Y016532D01*
X012357Y016361D01*
X012357Y016220D01*
X012186Y016335D01*
X011641Y016561D01*
X011062Y016676D01*
X010587Y016676D01*
X010587Y016994D01*
X010572Y017029D02*
X011945Y017029D01*
X011791Y017188D02*
X010461Y017188D01*
X010303Y017346D02*
X011637Y017346D01*
X011483Y017505D02*
X008167Y017505D01*
X008167Y017663D02*
X011329Y017663D01*
X011215Y017822D02*
X008167Y017822D01*
X008167Y017980D02*
X010898Y017980D01*
X010883Y018139D02*
X008167Y018139D01*
X008167Y018297D02*
X010883Y018297D01*
X010883Y018456D02*
X008167Y018456D01*
X008167Y018614D02*
X010883Y018614D01*
X010721Y018773D02*
X008167Y018773D01*
X008465Y019430D02*
X008465Y020430D01*
X008465Y022328D01*
X008767Y022629D01*
X008145Y022101D02*
X007899Y022101D01*
X008126Y021943D02*
X008145Y021943D01*
X007367Y019724D02*
X007345Y019724D01*
X006867Y017346D02*
X005803Y017346D01*
X006240Y017188D02*
X006395Y017188D01*
X006395Y017029D02*
X006240Y017029D01*
X006240Y016871D02*
X006395Y016871D01*
X006395Y016712D02*
X006867Y016712D01*
X006813Y016603D02*
X006395Y016603D01*
X006395Y016146D01*
X006657Y016146D01*
X006702Y016158D01*
X006743Y016182D01*
X006777Y016215D01*
X006801Y016256D01*
X006813Y016302D01*
X006813Y016603D01*
X006813Y016554D02*
X006867Y016554D01*
X006867Y016395D02*
X006813Y016395D01*
X006789Y016237D02*
X006867Y016237D01*
X006867Y016078D02*
X006087Y016078D01*
X006240Y016237D02*
X006395Y016237D01*
X006395Y016395D02*
X006240Y016395D01*
X006240Y016554D02*
X006395Y016554D01*
X006264Y015920D02*
X006867Y015920D01*
X006867Y015761D02*
X006422Y015761D01*
X006581Y015603D02*
X006867Y015603D01*
X006867Y015444D02*
X006691Y015444D01*
X006797Y015286D02*
X006867Y015286D01*
X006813Y016871D02*
X006867Y016871D01*
X006867Y017029D02*
X006813Y017029D01*
X006867Y017188D02*
X006727Y017188D01*
X006068Y019430D02*
X006068Y020328D01*
X005965Y020430D01*
X006017Y020481D01*
X006017Y021879D01*
X005697Y021324D02*
X005697Y021064D01*
X005603Y021064D01*
X005517Y021028D01*
X005431Y021064D01*
X004705Y021064D01*
X004617Y021027D01*
X004549Y020960D01*
X004517Y020881D01*
X004484Y020960D01*
X004416Y021027D01*
X004328Y021064D01*
X004087Y021064D01*
X004087Y021230D01*
X004099Y021225D01*
X004434Y021225D01*
X004523Y021262D01*
X004590Y021329D01*
X004627Y021417D01*
X004627Y022383D01*
X004625Y022388D01*
X004639Y022384D01*
X004939Y022384D01*
X004939Y022801D01*
X005094Y022801D01*
X005094Y022384D01*
X005395Y022384D01*
X005440Y022396D01*
X005482Y022420D01*
X005515Y022453D01*
X005523Y022467D01*
X005526Y022463D01*
X005605Y022430D01*
X005526Y022397D01*
X005459Y022330D01*
X005422Y022242D01*
X005422Y021516D01*
X005459Y021428D01*
X005526Y021360D01*
X005615Y021324D01*
X005697Y021324D01*
X005697Y021309D02*
X004570Y021309D01*
X004627Y021467D02*
X005442Y021467D01*
X005422Y021626D02*
X004627Y021626D01*
X004627Y021784D02*
X005422Y021784D01*
X005422Y021943D02*
X004627Y021943D01*
X004627Y022101D02*
X005422Y022101D01*
X005430Y022260D02*
X004627Y022260D01*
X004482Y022555D02*
X004434Y022575D01*
X004099Y022575D01*
X004017Y022541D01*
X003934Y022575D01*
X003599Y022575D01*
X003517Y022541D01*
X003434Y022575D01*
X003099Y022575D01*
X003017Y022541D01*
X002934Y022575D01*
X002599Y022575D01*
X002511Y022538D01*
X002443Y022471D01*
X002426Y022431D01*
X002419Y022434D01*
X001615Y022434D01*
X001526Y022397D01*
X001459Y022330D01*
X001422Y022242D01*
X001422Y021516D01*
X001459Y021428D01*
X001526Y021360D01*
X001578Y021339D01*
X001644Y021181D01*
X001767Y021057D01*
X001818Y021036D01*
X001575Y021036D01*
X001487Y021000D01*
X001420Y020932D01*
X001383Y020844D01*
X001383Y020118D01*
X001420Y020030D01*
X001487Y019963D01*
X001575Y019926D01*
X002458Y019926D01*
X002536Y019959D01*
X002605Y019930D01*
X002526Y019897D01*
X002487Y019858D01*
X002480Y019862D01*
X002434Y019874D01*
X002094Y019874D01*
X002094Y019456D01*
X001939Y019456D01*
X001939Y019301D01*
X002094Y019301D01*
X002094Y018884D01*
X002434Y018884D01*
X002480Y018896D01*
X002487Y018900D01*
X002526Y018860D01*
X002615Y018824D01*
X003119Y018824D01*
X003194Y018749D01*
X003284Y018659D01*
X003383Y018618D01*
X003383Y018236D01*
X003292Y018153D01*
X003284Y018150D01*
X003245Y018111D01*
X003203Y018073D01*
X003200Y018066D01*
X003273Y018139D02*
X000622Y018139D01*
X000622Y018297D02*
X003383Y018297D01*
X003383Y018456D02*
X000622Y018456D01*
X000622Y018614D02*
X003383Y018614D01*
X003465Y018930D02*
X004517Y018930D01*
X004965Y019379D01*
X004965Y019430D01*
X004965Y020328D01*
X005068Y020430D01*
X005476Y018931D02*
X005558Y018931D01*
X005697Y021150D02*
X004087Y021150D01*
X003767Y020629D02*
X003965Y020430D01*
X004017Y020379D01*
X004017Y019481D01*
X004017Y018379D02*
X003465Y017879D01*
X001767Y016180D01*
X001549Y015286D02*
X000622Y015286D01*
X000622Y015444D02*
X001216Y015444D01*
X001058Y015603D02*
X000622Y015603D01*
X000622Y015761D02*
X000956Y015761D01*
X000890Y015920D02*
X000622Y015920D01*
X000622Y016078D02*
X000857Y016078D01*
X000857Y016237D02*
X000622Y016237D01*
X000622Y016395D02*
X000872Y016395D01*
X000937Y016554D02*
X000622Y016554D01*
X000622Y016712D02*
X001013Y016712D01*
X001172Y016871D02*
X000622Y016871D01*
X000622Y017029D02*
X001441Y017029D01*
X002092Y017029D02*
X002164Y017029D01*
X001939Y018884D02*
X001599Y018884D01*
X001553Y018896D01*
X001512Y018920D01*
X001479Y018953D01*
X001455Y018994D01*
X001443Y019040D01*
X001443Y019301D01*
X001939Y019301D01*
X001939Y018884D01*
X001939Y018931D02*
X002094Y018931D01*
X002094Y019090D02*
X001939Y019090D01*
X001939Y019248D02*
X002094Y019248D01*
X001939Y019407D02*
X000622Y019407D01*
X000622Y019565D02*
X001443Y019565D01*
X001443Y019456D02*
X001939Y019456D01*
X001939Y019874D01*
X001599Y019874D01*
X001553Y019862D01*
X001512Y019838D01*
X001479Y019804D01*
X001455Y019763D01*
X001443Y019717D01*
X001443Y019456D01*
X001443Y019248D02*
X000622Y019248D01*
X000622Y019090D02*
X001443Y019090D01*
X001501Y018931D02*
X000622Y018931D01*
X000622Y018773D02*
X003170Y018773D01*
X003465Y018930D02*
X003017Y019379D01*
X003017Y020481D02*
X002017Y020481D01*
X002094Y019724D02*
X001939Y019724D01*
X001939Y019565D02*
X002094Y019565D01*
X002512Y019882D02*
X000622Y019882D01*
X000622Y019724D02*
X001445Y019724D01*
X001415Y020041D02*
X000622Y020041D01*
X000622Y020199D02*
X001383Y020199D01*
X001383Y020358D02*
X000622Y020358D01*
X000622Y020516D02*
X001383Y020516D01*
X001383Y020675D02*
X000622Y020675D01*
X000622Y020833D02*
X001383Y020833D01*
X001479Y020992D02*
X000622Y020992D01*
X000622Y021150D02*
X001674Y021150D01*
X001591Y021309D02*
X000622Y021309D01*
X000622Y021467D02*
X001442Y021467D01*
X001422Y021626D02*
X000622Y021626D01*
X000622Y021784D02*
X001422Y021784D01*
X001422Y021943D02*
X000622Y021943D01*
X000622Y022101D02*
X001422Y022101D01*
X001430Y022260D02*
X000622Y022260D01*
X000622Y022418D02*
X001578Y022418D01*
X001593Y022498D02*
X001639Y022486D01*
X001939Y022486D01*
X001939Y022904D01*
X001482Y022904D01*
X001482Y022643D01*
X001495Y022597D01*
X001518Y022556D01*
X001552Y022522D01*
X001593Y022498D01*
X001506Y022577D02*
X000622Y022577D01*
X000622Y022735D02*
X001482Y022735D01*
X001482Y022894D02*
X000622Y022894D01*
X000622Y023052D02*
X001939Y023052D01*
X001939Y023059D02*
X001939Y022904D01*
X002094Y022904D01*
X002094Y023059D01*
X001939Y023059D01*
X001939Y023476D01*
X001639Y023476D01*
X001593Y023464D01*
X001552Y023440D01*
X001518Y023407D01*
X001495Y023366D01*
X001482Y023320D01*
X001482Y023059D01*
X001939Y023059D01*
X001939Y023211D02*
X002094Y023211D01*
X002094Y023059D02*
X002094Y023476D01*
X002395Y023476D01*
X002409Y023472D01*
X002407Y023477D01*
X002407Y024443D01*
X002443Y024531D01*
X002447Y024534D01*
X002447Y024824D01*
X002115Y024824D01*
X002036Y024856D01*
X001958Y024824D01*
X001075Y024824D01*
X000987Y024860D01*
X000920Y024928D01*
X000883Y025016D01*
X000883Y025742D01*
X000920Y025830D01*
X000987Y025897D01*
X001075Y025934D01*
X001958Y025934D01*
X002036Y025901D01*
X002105Y025930D01*
X002026Y025963D01*
X001987Y026002D01*
X001980Y025998D01*
X001934Y025986D01*
X001594Y025986D01*
X001594Y026404D01*
X001439Y026404D01*
X000943Y026404D01*
X000943Y026143D01*
X000955Y026097D01*
X000979Y026056D01*
X001012Y026022D01*
X001053Y025998D01*
X001099Y025986D01*
X001439Y025986D01*
X001439Y026404D01*
X001439Y026559D01*
X001439Y026976D01*
X001099Y026976D01*
X001053Y026964D01*
X001012Y026940D01*
X000979Y026907D01*
X000955Y026866D01*
X000943Y026820D01*
X000943Y026559D01*
X001439Y026559D01*
X001594Y026559D01*
X001594Y026976D01*
X001934Y026976D01*
X001980Y026964D01*
X001987Y026960D01*
X002026Y027000D01*
X002115Y027036D01*
X002395Y027036D01*
X002395Y027086D01*
X002353Y027086D01*
X002265Y027122D01*
X002197Y027190D01*
X002161Y027278D01*
X002161Y028082D01*
X002197Y028170D01*
X002237Y028210D01*
X002233Y028217D01*
X002221Y028263D01*
X002221Y028603D01*
X002638Y028603D01*
X002638Y028757D01*
X002221Y028757D01*
X002221Y029097D01*
X002233Y029143D01*
X002256Y029184D01*
X002290Y029218D01*
X002331Y029241D01*
X002377Y029254D01*
X002638Y029254D01*
X002638Y028757D01*
X002793Y028757D01*
X003210Y028757D01*
X003210Y029097D01*
X003198Y029143D01*
X003174Y029184D01*
X003141Y029218D01*
X003100Y029241D01*
X003054Y029254D01*
X002793Y029254D01*
X002793Y028757D01*
X002793Y028603D01*
X003210Y028603D01*
X003210Y028263D01*
X003198Y028217D01*
X003194Y028210D01*
X003234Y028170D01*
X003267Y028091D01*
X003295Y028160D01*
X003263Y028239D01*
X003263Y029121D01*
X003299Y029210D01*
X003367Y029277D01*
X003455Y029314D01*
X004181Y029314D01*
X004269Y029277D01*
X004290Y029255D01*
X004365Y029286D01*
X004907Y029286D01*
X004619Y029574D01*
X004075Y029574D01*
X003997Y029606D01*
X003919Y029574D01*
X003115Y029574D01*
X003026Y029610D01*
X002959Y029678D01*
X002922Y029766D01*
X002922Y030492D01*
X002959Y030580D01*
X003026Y030647D01*
X003115Y030684D01*
X003919Y030684D01*
X003997Y030651D01*
X004066Y030680D01*
X003987Y030713D01*
X003947Y030752D01*
X003940Y030748D01*
X003895Y030736D01*
X003594Y030736D01*
X003594Y031154D01*
X003439Y031154D01*
X002982Y031154D01*
X002982Y030893D01*
X002995Y030847D01*
X003018Y030806D01*
X003052Y030772D01*
X003093Y030748D01*
X003139Y030736D01*
X003439Y030736D01*
X003439Y031154D01*
X003439Y031309D01*
X003439Y031726D01*
X003139Y031726D01*
X003093Y031714D01*
X003052Y031690D01*
X003018Y031657D01*
X002995Y031616D01*
X002982Y031570D01*
X002982Y031309D01*
X003439Y031309D01*
X003594Y031309D01*
X003594Y031726D01*
X003895Y031726D01*
X003918Y031720D01*
X003911Y031739D01*
X003911Y032621D01*
X003947Y032710D01*
X004005Y032767D01*
X003943Y032829D01*
X003941Y032833D01*
X003919Y032824D01*
X003115Y032824D01*
X003026Y032860D01*
X002959Y032928D01*
X002922Y033016D01*
X002922Y033742D01*
X002959Y033830D01*
X003026Y033897D01*
X003115Y033934D01*
X003919Y033934D01*
X003926Y033931D01*
X003943Y033971D01*
X003961Y033989D02*
X003905Y033989D01*
X004051Y034148D02*
X004097Y034148D01*
X004267Y034430D02*
X004517Y034180D01*
X005517Y034180D01*
X005267Y033400D02*
X005267Y032481D01*
X005568Y032180D01*
X005568Y031078D01*
X005715Y030930D01*
X005911Y030027D02*
X005150Y030027D01*
X005150Y030185D02*
X005962Y030185D01*
X006177Y030344D02*
X006356Y030344D01*
X006465Y029680D02*
X006487Y029659D01*
X006487Y028930D01*
X006487Y028430D02*
X005767Y028430D01*
X005517Y028680D01*
X005517Y029129D01*
X004517Y030129D01*
X003517Y030129D01*
X003439Y030819D02*
X003594Y030819D01*
X003594Y030978D02*
X003439Y030978D01*
X003439Y031136D02*
X003594Y031136D01*
X003439Y031295D02*
X000622Y031295D01*
X000622Y031453D02*
X002982Y031453D01*
X002994Y031612D02*
X000622Y031612D01*
X000622Y031770D02*
X003911Y031770D01*
X003911Y031929D02*
X000622Y031929D01*
X000622Y032087D02*
X003911Y032087D01*
X003911Y032246D02*
X000622Y032246D01*
X000622Y032404D02*
X003911Y032404D01*
X003911Y032563D02*
X000622Y032563D01*
X000622Y032721D02*
X003958Y032721D01*
X003594Y031612D02*
X003439Y031612D01*
X003439Y031453D02*
X003594Y031453D01*
X003975Y030661D02*
X004019Y030661D01*
X004517Y031231D02*
X004517Y032129D01*
X004465Y032180D01*
X004767Y032481D01*
X004767Y033400D01*
X004587Y034623D02*
X005982Y034623D01*
X006005Y034782D02*
X004587Y034782D01*
X004767Y035460D02*
X004767Y036481D01*
X004568Y036680D01*
X004568Y037680D01*
X004568Y038680D01*
X005037Y039220D02*
X005270Y039220D01*
X005201Y039061D02*
X005123Y039061D01*
X005123Y038903D02*
X005172Y038903D01*
X005172Y038744D02*
X005123Y038744D01*
X005123Y038586D02*
X005172Y038586D01*
X005172Y038427D02*
X005123Y038427D01*
X005119Y038269D02*
X005172Y038269D01*
X005140Y038110D02*
X005123Y038110D01*
X005123Y037952D02*
X005133Y037952D01*
X005123Y037793D02*
X005133Y037793D01*
X005123Y037635D02*
X005133Y037635D01*
X005123Y037476D02*
X005133Y037476D01*
X005123Y037318D02*
X005154Y037318D01*
X005107Y037159D02*
X005265Y037159D01*
X005137Y037001D02*
X005123Y037001D01*
X005123Y036842D02*
X005133Y036842D01*
X005123Y036684D02*
X005133Y036684D01*
X005123Y036525D02*
X005133Y036525D01*
X005267Y036129D02*
X005767Y036629D01*
X005767Y037731D02*
X005767Y037930D01*
X006715Y037930D01*
X006767Y037879D01*
X006689Y038586D02*
X006844Y038586D01*
X006844Y038744D02*
X006689Y038744D01*
X006689Y038903D02*
X006844Y038903D01*
X006844Y039061D02*
X006689Y039061D01*
X006689Y039220D02*
X006844Y039220D01*
X006844Y039378D02*
X006689Y039378D01*
X006361Y039537D02*
X011672Y039537D01*
X011672Y039695D02*
X006361Y039695D01*
X006382Y039854D02*
X006386Y039854D01*
X006812Y041597D02*
X008221Y041597D01*
X008115Y041756D02*
X006918Y041756D01*
X006985Y041914D02*
X008048Y041914D01*
X007605Y040329D02*
X009821Y040329D01*
X009965Y038680D02*
X009068Y038680D01*
X009017Y038731D01*
X009068Y037680D02*
X009017Y037629D01*
X009068Y037680D02*
X009965Y037680D01*
X010267Y037680D01*
X010517Y037430D01*
X010517Y035930D01*
X011267Y033400D02*
X011267Y032481D01*
X010965Y032180D01*
X010517Y032180D01*
X010486Y031612D02*
X010401Y031612D01*
X010689Y031453D02*
X010844Y031453D01*
X010844Y031295D02*
X010689Y031295D01*
X010689Y031136D02*
X010844Y031136D01*
X011301Y030819D02*
X011307Y030819D01*
X011268Y030502D02*
X011197Y030502D01*
X011460Y029234D02*
X011671Y029234D01*
X011683Y029241D02*
X011642Y029218D01*
X011609Y029184D01*
X011585Y029143D01*
X011573Y029097D01*
X011573Y028757D01*
X011990Y028757D01*
X011990Y029254D01*
X011729Y029254D01*
X011683Y029241D01*
X011573Y029076D02*
X011520Y029076D01*
X011520Y028917D02*
X011573Y028917D01*
X011573Y028759D02*
X011520Y028759D01*
X011520Y028600D02*
X011573Y028600D01*
X011573Y028442D02*
X011520Y028442D01*
X011520Y028283D02*
X011573Y028283D01*
X011530Y028125D02*
X011503Y028125D01*
X011990Y028759D02*
X012145Y028759D01*
X012145Y028917D02*
X011990Y028917D01*
X011990Y029076D02*
X012145Y029076D01*
X012145Y029234D02*
X011990Y029234D01*
X012017Y030027D02*
X011902Y030027D01*
X011902Y030185D02*
X012017Y030185D01*
X012017Y030344D02*
X011902Y030344D01*
X011902Y030502D02*
X012017Y030502D01*
X012017Y030488D02*
X012017Y030886D01*
X012495Y030886D01*
X012541Y030873D01*
X012582Y030850D01*
X012615Y030816D01*
X012639Y030775D01*
X012651Y030729D01*
X012651Y030488D01*
X012017Y030488D01*
X012017Y030661D02*
X011902Y030661D01*
X011902Y030819D02*
X012017Y030819D01*
X012613Y030819D02*
X012849Y030819D01*
X012822Y030661D02*
X012651Y030661D01*
X012651Y030502D02*
X012822Y030502D01*
X012822Y030344D02*
X012651Y030344D01*
X012651Y030185D02*
X012822Y030185D01*
X012855Y030027D02*
X012598Y030027D01*
X012594Y026857D02*
X012439Y026857D01*
X012439Y026698D02*
X012594Y026698D01*
X012017Y021900D02*
X012017Y021430D01*
X012767Y020680D01*
X012767Y020481D01*
X013767Y020481D01*
X013689Y019248D02*
X013844Y019248D01*
X013844Y019090D02*
X013689Y019090D01*
X013689Y018931D02*
X013844Y018931D01*
X014412Y017346D02*
X012529Y017346D01*
X012683Y017188D02*
X014412Y017188D01*
X014412Y017029D02*
X013592Y017029D01*
X013862Y016871D02*
X014412Y016871D01*
X014412Y016712D02*
X014020Y016712D01*
X014096Y016554D02*
X014412Y016554D01*
X014412Y016395D02*
X014162Y016395D01*
X014176Y016237D02*
X014412Y016237D01*
X014412Y016078D02*
X014176Y016078D01*
X014143Y015920D02*
X014412Y015920D01*
X014412Y015761D02*
X014078Y015761D01*
X013976Y015603D02*
X014412Y015603D01*
X014412Y015444D02*
X013817Y015444D01*
X013484Y015286D02*
X014412Y015286D01*
X014412Y015127D02*
X013403Y015127D01*
X013475Y014969D02*
X014412Y014969D01*
X014412Y014810D02*
X013541Y014810D01*
X013607Y014652D02*
X014412Y014652D01*
X014412Y014493D02*
X013659Y014493D01*
X013691Y014335D02*
X014412Y014335D01*
X014412Y014176D02*
X013723Y014176D01*
X013754Y014018D02*
X014412Y014018D01*
X014412Y013859D02*
X013763Y013859D01*
X013763Y013701D02*
X014412Y013701D01*
X014412Y013542D02*
X013763Y013542D01*
X013762Y013384D02*
X014412Y013384D01*
X014412Y013225D02*
X013731Y013225D01*
X013699Y013067D02*
X014412Y013067D01*
X014412Y012908D02*
X013668Y012908D01*
X013624Y012750D02*
X014412Y012750D01*
X014412Y012591D02*
X013559Y012591D01*
X013493Y012433D02*
X014412Y012433D01*
X014412Y012274D02*
X013427Y012274D01*
X013325Y012116D02*
X014412Y012116D01*
X014412Y011957D02*
X013219Y011957D01*
X013113Y011799D02*
X014412Y011799D01*
X014412Y011640D02*
X012964Y011640D01*
X012805Y011482D02*
X014412Y011482D01*
X014412Y011323D02*
X012632Y011323D01*
X012395Y011165D02*
X014412Y011165D01*
X014412Y011006D02*
X012141Y011006D01*
X011895Y009976D02*
X011594Y009976D01*
X011594Y009559D01*
X011439Y009559D01*
X011439Y009976D01*
X011139Y009976D01*
X011093Y009964D01*
X011052Y009940D01*
X011018Y009907D01*
X010995Y009866D01*
X010982Y009820D01*
X010982Y009559D01*
X011439Y009559D01*
X011439Y009404D01*
X010982Y009404D01*
X010982Y009143D01*
X010995Y009097D01*
X011018Y009056D01*
X011052Y009022D01*
X011093Y008998D01*
X011139Y008986D01*
X011439Y008986D01*
X011439Y009404D01*
X011594Y009404D01*
X011594Y009559D01*
X012051Y009559D01*
X012051Y009820D01*
X012039Y009866D01*
X012015Y009907D01*
X011982Y009940D01*
X011940Y009964D01*
X011895Y009976D01*
X012021Y009897D02*
X014412Y009897D01*
X014412Y010055D02*
X010940Y010055D01*
X010940Y009897D02*
X011013Y009897D01*
X010982Y009738D02*
X010940Y009738D01*
X010940Y009580D02*
X010982Y009580D01*
X010881Y009421D02*
X011439Y009421D01*
X011594Y009421D02*
X012221Y009421D01*
X012221Y009564D02*
X012221Y008445D01*
X012257Y008357D01*
X012292Y008322D01*
X012139Y008322D01*
X012111Y008350D01*
X012111Y008742D01*
X012074Y008830D01*
X012007Y008897D01*
X011919Y008934D01*
X011115Y008934D01*
X011026Y008897D01*
X010959Y008830D01*
X010922Y008742D01*
X010922Y008370D01*
X010903Y008416D01*
X010836Y008484D01*
X010747Y008520D01*
X009801Y008520D01*
X009801Y008551D01*
X009344Y008551D01*
X009344Y008134D01*
X009594Y008134D01*
X009594Y007524D01*
X009630Y007436D01*
X009636Y007430D01*
X009630Y007424D01*
X009594Y007336D01*
X009594Y006726D01*
X009344Y006726D01*
X009344Y006309D01*
X009189Y006309D01*
X009189Y006726D01*
X008889Y006726D01*
X008843Y006714D01*
X008802Y006690D01*
X008768Y006657D01*
X008745Y006616D01*
X008732Y006570D01*
X008732Y006309D01*
X009189Y006309D01*
X009189Y006154D01*
X008732Y006154D01*
X008732Y005893D01*
X008745Y005847D01*
X008768Y005806D01*
X008802Y005772D01*
X008843Y005748D01*
X008889Y005736D01*
X009189Y005736D01*
X009189Y006154D01*
X009344Y006154D01*
X009344Y006309D01*
X009801Y006309D01*
X009801Y006340D01*
X010747Y006340D01*
X010836Y006376D01*
X010903Y006444D01*
X010922Y006490D01*
X010922Y006118D01*
X010959Y006030D01*
X011026Y005963D01*
X011115Y005926D01*
X011919Y005926D01*
X012007Y005963D01*
X012074Y006030D01*
X012111Y006118D01*
X012111Y006510D01*
X012139Y006538D01*
X012292Y006538D01*
X012257Y006503D01*
X012221Y006415D01*
X012221Y005296D01*
X012257Y005207D01*
X012325Y005140D01*
X012413Y005103D01*
X014083Y005103D01*
X014171Y005140D01*
X014239Y005207D01*
X014275Y005296D01*
X014275Y006415D01*
X014239Y006503D01*
X014171Y006570D01*
X014083Y006607D01*
X013603Y006607D01*
X013640Y006644D01*
X013677Y006733D01*
X013677Y007143D01*
X013640Y007231D01*
X013617Y007255D01*
X013617Y007430D01*
X013617Y007605D01*
X013640Y007629D01*
X013677Y007717D01*
X013677Y008127D01*
X013640Y008216D01*
X013603Y008253D01*
X014083Y008253D01*
X014171Y008290D01*
X014239Y008357D01*
X014275Y008445D01*
X014275Y009564D01*
X014239Y009653D01*
X014171Y009720D01*
X014083Y009757D01*
X012413Y009757D01*
X012325Y009720D01*
X012257Y009653D01*
X012221Y009564D01*
X012227Y009580D02*
X012051Y009580D01*
X012051Y009738D02*
X012369Y009738D01*
X012221Y009263D02*
X012051Y009263D01*
X012051Y009143D02*
X012051Y009404D01*
X011594Y009404D01*
X011594Y008986D01*
X011895Y008986D01*
X011940Y008998D01*
X011982Y009022D01*
X012015Y009056D01*
X012039Y009097D01*
X012051Y009143D01*
X012041Y009104D02*
X012221Y009104D01*
X012221Y008946D02*
X009801Y008946D01*
X009801Y008967D02*
X009789Y009013D01*
X009765Y009054D01*
X009732Y009088D01*
X009690Y009112D01*
X009645Y009124D01*
X009344Y009124D01*
X009344Y008706D01*
X009801Y008706D01*
X009801Y008967D01*
X009703Y009104D02*
X010993Y009104D01*
X010982Y009263D02*
X009807Y009263D01*
X009801Y008787D02*
X010941Y008787D01*
X010922Y008629D02*
X009344Y008629D01*
X009344Y008706D02*
X009344Y008551D01*
X009189Y008551D01*
X009189Y008134D01*
X008889Y008134D01*
X008843Y008146D01*
X008802Y008170D01*
X008768Y008203D01*
X008745Y008244D01*
X008732Y008290D01*
X008732Y008551D01*
X009189Y008551D01*
X009189Y008706D01*
X008732Y008706D01*
X008732Y008967D01*
X008745Y009013D01*
X008768Y009054D01*
X008802Y009088D01*
X008843Y009112D01*
X008889Y009124D01*
X009189Y009124D01*
X009189Y008706D01*
X009344Y008706D01*
X009344Y008787D02*
X009189Y008787D01*
X009189Y008629D02*
X008667Y008629D01*
X008667Y008787D02*
X008732Y008787D01*
X008732Y008946D02*
X008667Y008946D01*
X008667Y009104D02*
X008831Y009104D01*
X008726Y009263D02*
X008667Y009263D01*
X008667Y009421D02*
X008672Y009421D01*
X008667Y010055D02*
X008672Y010055D01*
X008667Y010214D02*
X008741Y010214D01*
X008667Y010372D02*
X009609Y010372D01*
X009775Y010848D02*
X008667Y010848D01*
X008667Y011006D02*
X009392Y011006D01*
X009138Y011165D02*
X008667Y011165D01*
X008667Y011323D02*
X008901Y011323D01*
X008728Y011482D02*
X008667Y011482D01*
X008667Y010689D02*
X010445Y010689D01*
X010925Y010372D02*
X014412Y010372D01*
X014412Y010214D02*
X010940Y010214D01*
X011089Y010689D02*
X014412Y010689D01*
X014412Y010531D02*
X008667Y010531D01*
X009189Y009104D02*
X009344Y009104D01*
X009344Y008946D02*
X009189Y008946D01*
X009189Y008470D02*
X009344Y008470D01*
X009344Y008312D02*
X009189Y008312D01*
X009189Y008153D02*
X009344Y008153D01*
X009594Y007995D02*
X008667Y007995D01*
X008667Y008153D02*
X008830Y008153D01*
X008732Y008312D02*
X008667Y008312D01*
X008667Y008470D02*
X008732Y008470D01*
X008661Y007836D02*
X009594Y007836D01*
X009594Y007678D02*
X008580Y007678D01*
X008422Y007519D02*
X009595Y007519D01*
X009604Y007361D02*
X008401Y007361D01*
X008560Y007202D02*
X009594Y007202D01*
X009594Y007044D02*
X008652Y007044D01*
X008667Y006885D02*
X009594Y006885D01*
X009594Y006727D02*
X008667Y006727D01*
X008667Y006568D02*
X008732Y006568D01*
X008732Y006410D02*
X008667Y006410D01*
X008667Y006251D02*
X009189Y006251D01*
X009344Y006251D02*
X010922Y006251D01*
X010933Y006093D02*
X009801Y006093D01*
X009801Y006154D02*
X009801Y005893D01*
X009789Y005847D01*
X009765Y005806D01*
X009732Y005772D01*
X009690Y005748D01*
X009645Y005736D01*
X009344Y005736D01*
X009344Y006154D01*
X009801Y006154D01*
X009801Y005934D02*
X011095Y005934D01*
X011093Y005862D02*
X011052Y005838D01*
X011018Y005804D01*
X010995Y005763D01*
X010982Y005717D01*
X010982Y005456D01*
X011439Y005456D01*
X011439Y005301D01*
X011594Y005301D01*
X011594Y004884D01*
X011895Y004884D01*
X011940Y004896D01*
X011982Y004920D01*
X012015Y004953D01*
X012039Y004994D01*
X012051Y005040D01*
X012051Y005301D01*
X011594Y005301D01*
X011594Y005456D01*
X012051Y005456D01*
X012051Y005717D01*
X012039Y005763D01*
X012015Y005804D01*
X011982Y005838D01*
X011940Y005862D01*
X011895Y005874D01*
X011594Y005874D01*
X011594Y005456D01*
X011439Y005456D01*
X011439Y005874D01*
X011139Y005874D01*
X011093Y005862D01*
X011002Y005776D02*
X009735Y005776D01*
X009787Y005617D02*
X010982Y005617D01*
X010982Y005459D02*
X010861Y005459D01*
X010940Y005300D02*
X010982Y005300D01*
X010982Y005301D02*
X010982Y005040D01*
X010995Y004994D01*
X011018Y004953D01*
X011052Y004920D01*
X011093Y004896D01*
X011139Y004884D01*
X011439Y004884D01*
X011439Y005301D01*
X010982Y005301D01*
X010982Y005142D02*
X010940Y005142D01*
X010940Y004983D02*
X011001Y004983D01*
X010940Y004825D02*
X014412Y004825D01*
X014412Y004983D02*
X012032Y004983D01*
X012051Y005142D02*
X012323Y005142D01*
X012221Y005300D02*
X012051Y005300D01*
X012051Y005459D02*
X012221Y005459D01*
X012221Y005617D02*
X012051Y005617D01*
X012031Y005776D02*
X012221Y005776D01*
X012221Y005934D02*
X011939Y005934D01*
X012100Y006093D02*
X012221Y006093D01*
X012221Y006251D02*
X012111Y006251D01*
X012111Y006410D02*
X012221Y006410D01*
X012354Y007338D02*
X012354Y007430D01*
X011092Y007430D01*
X011092Y007526D01*
X010940Y007526D01*
X010940Y007524D01*
X010903Y007436D01*
X010897Y007430D01*
X010903Y007424D01*
X010940Y007336D01*
X010940Y007334D01*
X011092Y007334D01*
X011092Y007430D01*
X012354Y007430D01*
X012354Y007430D01*
X012354Y007522D01*
X012354Y007522D01*
X012354Y007430D01*
X012354Y007430D01*
X012354Y007430D01*
X012354Y007338D01*
X012354Y007338D01*
X012354Y007361D02*
X012354Y007361D01*
X012354Y007430D02*
X012354Y007430D01*
X013617Y007430D01*
X012354Y007430D01*
X012354Y007519D02*
X012354Y007519D01*
X012221Y008470D02*
X012111Y008470D01*
X012111Y008629D02*
X012221Y008629D01*
X012221Y008787D02*
X012092Y008787D01*
X011594Y009104D02*
X011439Y009104D01*
X011439Y009263D02*
X011594Y009263D01*
X011594Y009580D02*
X011439Y009580D01*
X011439Y009738D02*
X011594Y009738D01*
X011594Y009897D02*
X011439Y009897D01*
X011758Y010848D02*
X014412Y010848D01*
X014412Y009738D02*
X014127Y009738D01*
X014269Y009580D02*
X014412Y009580D01*
X014412Y009421D02*
X014275Y009421D01*
X014275Y009263D02*
X014412Y009263D01*
X014412Y009104D02*
X014275Y009104D01*
X014275Y008946D02*
X014412Y008946D01*
X014412Y008787D02*
X014275Y008787D01*
X014275Y008629D02*
X014412Y008629D01*
X014412Y008470D02*
X014275Y008470D01*
X014194Y008312D02*
X014412Y008312D01*
X014412Y008153D02*
X013666Y008153D01*
X013677Y007995D02*
X014412Y007995D01*
X014412Y007836D02*
X013677Y007836D01*
X013661Y007678D02*
X014412Y007678D01*
X014412Y007519D02*
X013617Y007519D01*
X013617Y007361D02*
X014412Y007361D01*
X014412Y007202D02*
X013652Y007202D01*
X013677Y007044D02*
X014412Y007044D01*
X014412Y006885D02*
X013677Y006885D01*
X013675Y006727D02*
X014412Y006727D01*
X014412Y006568D02*
X014173Y006568D01*
X014275Y006410D02*
X014412Y006410D01*
X014412Y006251D02*
X014275Y006251D01*
X014275Y006093D02*
X014412Y006093D01*
X014412Y005934D02*
X014275Y005934D01*
X014275Y005776D02*
X014412Y005776D01*
X014412Y005617D02*
X014275Y005617D01*
X014275Y005459D02*
X014412Y005459D01*
X014412Y005300D02*
X014275Y005300D01*
X014173Y005142D02*
X014412Y005142D01*
X014412Y004666D02*
X010940Y004666D01*
X010933Y004508D02*
X014412Y004508D01*
X011594Y004983D02*
X011439Y004983D01*
X011439Y005142D02*
X011594Y005142D01*
X011594Y005300D02*
X011439Y005300D01*
X011439Y005459D02*
X011594Y005459D01*
X011594Y005617D02*
X011439Y005617D01*
X011439Y005776D02*
X011594Y005776D01*
X011092Y007361D02*
X010929Y007361D01*
X010938Y007519D02*
X011092Y007519D01*
X010922Y008470D02*
X010849Y008470D01*
X010870Y006410D02*
X010922Y006410D01*
X009344Y006410D02*
X009189Y006410D01*
X009189Y006568D02*
X009344Y006568D01*
X009344Y006093D02*
X009189Y006093D01*
X009189Y005934D02*
X009344Y005934D01*
X009344Y005776D02*
X009189Y005776D01*
X008798Y005776D02*
X008667Y005776D01*
X008667Y005934D02*
X008732Y005934D01*
X008732Y006093D02*
X008667Y006093D01*
X008667Y005617D02*
X008747Y005617D01*
X007612Y007019D02*
X006847Y007019D01*
X006847Y005738D01*
X006687Y005738D01*
X006687Y005578D01*
X006847Y005578D01*
X006847Y004430D01*
X006687Y004430D01*
X006687Y005578D01*
X005602Y005578D01*
X005602Y005544D01*
X005593Y005548D01*
X005593Y006940D01*
X005682Y007030D01*
X007601Y007030D01*
X007612Y007019D01*
X006847Y006885D02*
X006687Y006885D01*
X006687Y007019D02*
X005759Y007019D01*
X005713Y007007D01*
X005672Y006983D01*
X005638Y006950D01*
X005615Y006909D01*
X005602Y006863D01*
X005602Y005738D01*
X006687Y005738D01*
X006687Y007019D01*
X006687Y006727D02*
X006847Y006727D01*
X006847Y006568D02*
X006687Y006568D01*
X006687Y006410D02*
X006847Y006410D01*
X006847Y006251D02*
X006687Y006251D01*
X006687Y006093D02*
X006847Y006093D01*
X006847Y005934D02*
X006687Y005934D01*
X006687Y005776D02*
X006847Y005776D01*
X006687Y005617D02*
X005593Y005617D01*
X005593Y005776D02*
X005602Y005776D01*
X005593Y005934D02*
X005602Y005934D01*
X005593Y006093D02*
X005602Y006093D01*
X005593Y006251D02*
X005602Y006251D01*
X005593Y006410D02*
X005602Y006410D01*
X005593Y006568D02*
X005602Y006568D01*
X005593Y006727D02*
X005602Y006727D01*
X005593Y006885D02*
X005608Y006885D01*
X004793Y006885D02*
X003675Y006885D01*
X003681Y006863D02*
X003669Y006909D01*
X003645Y006950D01*
X003611Y006983D01*
X003570Y007007D01*
X003525Y007019D01*
X002597Y007019D01*
X002597Y005738D01*
X003681Y005738D01*
X003681Y006863D01*
X003681Y006727D02*
X004793Y006727D01*
X004793Y006568D02*
X003681Y006568D01*
X003681Y006410D02*
X004793Y006410D01*
X004793Y006251D02*
X003681Y006251D01*
X003681Y006093D02*
X004793Y006093D01*
X004793Y005934D02*
X003681Y005934D01*
X003681Y005776D02*
X004793Y005776D01*
X004793Y005617D02*
X002597Y005617D01*
X002597Y005578D02*
X002597Y005738D01*
X002437Y005738D01*
X002437Y005578D01*
X002597Y005578D01*
X003681Y005578D01*
X003681Y005544D01*
X003728Y005564D01*
X004453Y005564D01*
X004541Y005527D01*
X004609Y005460D01*
X004642Y005381D01*
X004674Y005460D01*
X004742Y005527D01*
X004793Y005548D01*
X004793Y007030D01*
X004209Y007030D01*
X004062Y007091D01*
X003372Y007781D01*
X001485Y007781D01*
X001396Y007817D01*
X001337Y007877D01*
X001337Y004982D01*
X001352Y004967D01*
X001352Y005578D01*
X002437Y005578D01*
X002437Y004430D01*
X002597Y004430D01*
X002597Y005578D01*
X002597Y005459D02*
X002437Y005459D01*
X002437Y005617D02*
X001337Y005617D01*
X001352Y005738D02*
X002437Y005738D01*
X002437Y007019D01*
X001509Y007019D01*
X001463Y007007D01*
X001422Y006983D01*
X001388Y006950D01*
X001365Y006909D01*
X001352Y006863D01*
X001352Y005738D01*
X001352Y005776D02*
X001337Y005776D01*
X001337Y005934D02*
X001352Y005934D01*
X001337Y006093D02*
X001352Y006093D01*
X001337Y006251D02*
X001352Y006251D01*
X001337Y006410D02*
X001352Y006410D01*
X001337Y006568D02*
X001352Y006568D01*
X001337Y006727D02*
X001352Y006727D01*
X001337Y006885D02*
X001358Y006885D01*
X001337Y007044D02*
X004175Y007044D01*
X003950Y007202D02*
X001337Y007202D01*
X001337Y007361D02*
X003792Y007361D01*
X003633Y007519D02*
X001337Y007519D01*
X001337Y007678D02*
X003475Y007678D01*
X002597Y006885D02*
X002437Y006885D01*
X002437Y006727D02*
X002597Y006727D01*
X002597Y006568D02*
X002437Y006568D01*
X002437Y006410D02*
X002597Y006410D01*
X002597Y006251D02*
X002437Y006251D01*
X002437Y006093D02*
X002597Y006093D01*
X002597Y005934D02*
X002437Y005934D01*
X002437Y005776D02*
X002597Y005776D01*
X002597Y005300D02*
X002437Y005300D01*
X002437Y005142D02*
X002597Y005142D01*
X002597Y004983D02*
X002437Y004983D01*
X002437Y004825D02*
X002597Y004825D01*
X002597Y004666D02*
X002437Y004666D01*
X002437Y004508D02*
X002597Y004508D01*
X001377Y007836D02*
X001337Y007836D01*
X000697Y007836D02*
X000622Y007836D01*
X000622Y007678D02*
X000697Y007678D01*
X000697Y007519D02*
X000622Y007519D01*
X000622Y007361D02*
X000697Y007361D01*
X000697Y007202D02*
X000622Y007202D01*
X000622Y007044D02*
X000697Y007044D01*
X000697Y006885D02*
X000622Y006885D01*
X000622Y006727D02*
X000697Y006727D01*
X000697Y006568D02*
X000622Y006568D01*
X000622Y006410D02*
X000697Y006410D01*
X000697Y006251D02*
X000622Y006251D01*
X000622Y006093D02*
X000697Y006093D01*
X000697Y005934D02*
X000622Y005934D01*
X000622Y005776D02*
X000697Y005776D01*
X000697Y005617D02*
X000622Y005617D01*
X000622Y005459D02*
X000697Y005459D01*
X000697Y005300D02*
X000622Y005300D01*
X000622Y005142D02*
X000697Y005142D01*
X000697Y004983D02*
X000622Y004983D01*
X001017Y004680D02*
X001017Y010430D01*
X001267Y010680D01*
X005517Y010680D01*
X006767Y009430D01*
X006687Y005459D02*
X006847Y005459D01*
X006847Y005300D02*
X006687Y005300D01*
X006687Y005142D02*
X006847Y005142D01*
X006847Y004983D02*
X006687Y004983D01*
X006687Y004825D02*
X006847Y004825D01*
X006847Y004666D02*
X006687Y004666D01*
X006687Y004508D02*
X006847Y004508D01*
X004674Y005459D02*
X004609Y005459D01*
X004090Y004930D02*
X004017Y004930D01*
X002892Y011006D02*
X000622Y011006D01*
X000622Y010848D02*
X000982Y010848D01*
X000824Y010689D02*
X000622Y010689D01*
X000622Y010531D02*
X000712Y010531D01*
X000697Y010372D02*
X000622Y010372D01*
X000622Y010214D02*
X000697Y010214D01*
X000697Y010055D02*
X000622Y010055D01*
X000622Y009897D02*
X000697Y009897D01*
X000697Y009738D02*
X000622Y009738D01*
X000622Y009580D02*
X000697Y009580D01*
X000697Y009421D02*
X000622Y009421D01*
X000622Y009263D02*
X000697Y009263D01*
X000697Y009104D02*
X000622Y009104D01*
X000622Y008946D02*
X000697Y008946D01*
X000697Y008787D02*
X000622Y008787D01*
X000622Y008629D02*
X000697Y008629D01*
X000697Y008470D02*
X000622Y008470D01*
X000622Y008312D02*
X000697Y008312D01*
X000697Y008153D02*
X000622Y008153D01*
X000622Y007995D02*
X000697Y007995D01*
X001337Y005459D02*
X001352Y005459D01*
X001337Y005300D02*
X001352Y005300D01*
X001337Y005142D02*
X001352Y005142D01*
X001337Y004983D02*
X001352Y004983D01*
X000622Y011165D02*
X002638Y011165D01*
X002401Y011323D02*
X000622Y011323D01*
X000622Y011482D02*
X002228Y011482D01*
X002069Y011640D02*
X000622Y011640D01*
X000622Y011799D02*
X001920Y011799D01*
X001814Y011957D02*
X000622Y011957D01*
X000622Y012116D02*
X001709Y012116D01*
X001606Y012274D02*
X000622Y012274D01*
X000622Y012433D02*
X001540Y012433D01*
X001475Y012591D02*
X000622Y012591D01*
X000622Y012750D02*
X001409Y012750D01*
X001366Y012908D02*
X000622Y012908D01*
X000622Y013067D02*
X001334Y013067D01*
X001302Y013225D02*
X000622Y013225D01*
X000622Y013384D02*
X001271Y013384D01*
X001271Y013542D02*
X000622Y013542D01*
X000622Y013701D02*
X001271Y013701D01*
X001271Y013859D02*
X000622Y013859D01*
X000622Y014018D02*
X001279Y014018D01*
X001311Y014176D02*
X000622Y014176D01*
X000622Y014335D02*
X001342Y014335D01*
X001374Y014493D02*
X000622Y014493D01*
X000622Y014652D02*
X001427Y014652D01*
X001492Y014810D02*
X000622Y014810D01*
X000622Y014969D02*
X001558Y014969D01*
X001631Y015127D02*
X000622Y015127D01*
X002017Y021879D02*
X002745Y021879D01*
X002767Y021900D01*
X002440Y022498D02*
X002482Y022522D01*
X002515Y022556D01*
X002539Y022597D01*
X002551Y022643D01*
X002551Y022904D01*
X002094Y022904D01*
X002094Y022486D01*
X002395Y022486D01*
X002440Y022498D01*
X002527Y022577D02*
X004482Y022577D01*
X004482Y022555D02*
X004482Y022801D01*
X004939Y022801D01*
X004939Y022956D01*
X004482Y022956D01*
X004482Y023217D01*
X004495Y023263D01*
X004518Y023304D01*
X004552Y023338D01*
X004593Y023362D01*
X004639Y023374D01*
X004939Y023374D01*
X004939Y022956D01*
X005094Y022956D01*
X005094Y023374D01*
X005395Y023374D01*
X005431Y023364D01*
X005459Y023432D01*
X005477Y023450D01*
X005419Y023426D01*
X004615Y023426D01*
X004607Y023429D01*
X004590Y023389D01*
X004523Y023322D01*
X004434Y023285D01*
X004099Y023285D01*
X004017Y023319D01*
X003934Y023285D01*
X003599Y023285D01*
X003517Y023319D01*
X003434Y023285D01*
X003099Y023285D01*
X003017Y023319D01*
X002934Y023285D01*
X002599Y023285D01*
X002551Y023305D01*
X002551Y023059D01*
X002094Y023059D01*
X002094Y023052D02*
X004482Y023052D01*
X004482Y023211D02*
X002551Y023211D01*
X002551Y022894D02*
X004939Y022894D01*
X004939Y023052D02*
X005094Y023052D01*
X005094Y023211D02*
X004939Y023211D01*
X004939Y023369D02*
X005094Y023369D01*
X005094Y022735D02*
X004939Y022735D01*
X004939Y022577D02*
X005094Y022577D01*
X005094Y022418D02*
X004939Y022418D01*
X004623Y023369D02*
X004571Y023369D01*
X004482Y022735D02*
X002551Y022735D01*
X002407Y023528D02*
X000622Y023528D01*
X000622Y023686D02*
X002407Y023686D01*
X002407Y023845D02*
X000622Y023845D01*
X000622Y024003D02*
X002407Y024003D01*
X002407Y024162D02*
X000622Y024162D01*
X000622Y024320D02*
X002407Y024320D01*
X002422Y024479D02*
X000622Y024479D01*
X000622Y024637D02*
X002447Y024637D01*
X002447Y024796D02*
X000622Y024796D01*
X000622Y024954D02*
X000908Y024954D01*
X000883Y025113D02*
X000622Y025113D01*
X000622Y025271D02*
X000883Y025271D01*
X000883Y025430D02*
X000622Y025430D01*
X000622Y025589D02*
X000883Y025589D01*
X000885Y025747D02*
X000622Y025747D01*
X000622Y025906D02*
X001007Y025906D01*
X000974Y026064D02*
X000622Y026064D01*
X000622Y026223D02*
X000943Y026223D01*
X000943Y026381D02*
X000622Y026381D01*
X000622Y026540D02*
X001439Y026540D01*
X001439Y026698D02*
X001594Y026698D01*
X001594Y026857D02*
X001439Y026857D01*
X001439Y026381D02*
X001594Y026381D01*
X001594Y026223D02*
X001439Y026223D01*
X001439Y026064D02*
X001594Y026064D01*
X001517Y025379D02*
X002517Y025379D01*
X002767Y025129D01*
X002767Y023960D01*
X003267Y023960D02*
X003767Y023960D01*
X003767Y024430D01*
X004267Y024930D01*
X004267Y023960D02*
X004995Y023960D01*
X005017Y023981D01*
X005411Y023369D02*
X005433Y023369D01*
X005479Y022418D02*
X005578Y022418D01*
X006198Y024451D02*
X006198Y024451D01*
X006170Y024479D02*
X006577Y024479D01*
X006586Y024320D02*
X006305Y024320D01*
X006337Y024162D02*
X006662Y024162D01*
X006626Y024637D02*
X006012Y024637D01*
X005853Y024796D02*
X006760Y024796D01*
X007384Y024954D02*
X005695Y024954D01*
X004965Y027430D02*
X004767Y027629D01*
X004965Y027430D02*
X006487Y027430D01*
X006487Y027930D01*
X006971Y027015D02*
X004009Y027015D01*
X003818Y027680D02*
X003818Y028680D01*
X004715Y028680D01*
X004767Y028731D01*
X004800Y029393D02*
X000622Y029393D01*
X000622Y029551D02*
X004642Y029551D01*
X005014Y030661D02*
X005161Y030661D01*
X005161Y030819D02*
X005130Y030819D01*
X005150Y030978D02*
X005161Y030978D01*
X005150Y031136D02*
X005161Y031136D01*
X005150Y031295D02*
X005161Y031295D01*
X005150Y031453D02*
X005194Y031453D01*
X005161Y030502D02*
X005146Y030502D01*
X005150Y030344D02*
X005254Y030344D01*
X005230Y029868D02*
X005868Y029868D01*
X005827Y029710D02*
X005389Y029710D01*
X005547Y029551D02*
X005844Y029551D01*
X005911Y029393D02*
X005706Y029393D01*
X005819Y029234D02*
X005896Y029234D01*
X006237Y031453D02*
X006297Y031453D01*
X006498Y031612D02*
X006047Y031612D01*
X006123Y031770D02*
X006498Y031770D01*
X006498Y031929D02*
X006123Y031929D01*
X006123Y032087D02*
X006498Y032087D01*
X006267Y032246D02*
X006123Y032246D01*
X006123Y032404D02*
X006208Y032404D01*
X006208Y032563D02*
X006123Y032563D01*
X006075Y032721D02*
X006208Y032721D01*
X006439Y033989D02*
X006594Y033989D01*
X006594Y034148D02*
X006439Y034148D01*
X006439Y034465D02*
X006594Y034465D01*
X006594Y034623D02*
X006439Y034623D01*
X006439Y034782D02*
X006594Y034782D01*
X006517Y035481D02*
X005788Y035481D01*
X005767Y035460D01*
X005267Y035460D02*
X005267Y036129D01*
X005767Y037930D02*
X005767Y038629D01*
X005172Y039378D02*
X000622Y039378D01*
X000622Y039220D02*
X001957Y039220D01*
X001883Y039061D02*
X000622Y039061D01*
X000622Y038903D02*
X001883Y038903D01*
X001883Y038744D02*
X000622Y038744D01*
X000622Y038586D02*
X001883Y038586D01*
X001883Y038427D02*
X000622Y038427D01*
X000622Y038269D02*
X001931Y038269D01*
X001950Y038110D02*
X000622Y038110D01*
X000622Y037952D02*
X001883Y037952D01*
X001883Y037793D02*
X000622Y037793D01*
X000622Y037635D02*
X001883Y037635D01*
X001883Y037476D02*
X000622Y037476D01*
X000622Y037318D02*
X001883Y037318D01*
X001938Y037159D02*
X000622Y037159D01*
X000622Y037001D02*
X002911Y037001D01*
X002911Y036842D02*
X002263Y036842D01*
X001960Y036430D02*
X001767Y036237D01*
X001960Y036430D02*
X003267Y036430D01*
X003465Y036680D01*
X003095Y036050D02*
X002282Y036050D01*
X002282Y035891D02*
X003697Y035891D01*
X003762Y035733D02*
X002282Y035733D01*
X002230Y035574D02*
X003907Y035574D01*
X003907Y035416D02*
X000622Y035416D01*
X000622Y035574D02*
X001303Y035574D01*
X001251Y035733D02*
X000622Y035733D01*
X000622Y035891D02*
X001251Y035891D01*
X001251Y036050D02*
X000622Y036050D01*
X000622Y036208D02*
X001251Y036208D01*
X001251Y036367D02*
X000622Y036367D01*
X000622Y036525D02*
X001251Y036525D01*
X001251Y036684D02*
X000622Y036684D01*
X000622Y036842D02*
X001270Y036842D01*
X001467Y035315D02*
X001422Y035302D01*
X001381Y035279D01*
X001347Y035245D01*
X001323Y035204D01*
X001311Y035158D01*
X001311Y034681D01*
X001709Y034681D01*
X001709Y035315D01*
X001467Y035315D01*
X001359Y035257D02*
X000622Y035257D01*
X000622Y035099D02*
X001311Y035099D01*
X001311Y034940D02*
X000622Y034940D01*
X000622Y034782D02*
X001311Y034782D01*
X001311Y034565D02*
X001311Y034087D01*
X001323Y034042D01*
X001347Y034001D01*
X001381Y033967D01*
X001422Y033943D01*
X001467Y033931D01*
X001709Y033931D01*
X001709Y034565D01*
X001824Y034565D01*
X001824Y033931D01*
X002066Y033931D01*
X002112Y033943D01*
X002153Y033967D01*
X002186Y034001D01*
X002210Y034042D01*
X002222Y034087D01*
X002222Y034565D01*
X001824Y034565D01*
X001824Y034681D01*
X001709Y034681D01*
X001709Y034565D01*
X001311Y034565D01*
X001311Y034465D02*
X000622Y034465D01*
X000622Y034623D02*
X001709Y034623D01*
X001824Y034623D02*
X002982Y034623D01*
X002982Y034782D02*
X002222Y034782D01*
X002222Y034681D02*
X002222Y035158D01*
X002210Y035204D01*
X002186Y035245D01*
X002153Y035279D01*
X002112Y035302D01*
X002066Y035315D01*
X001824Y035315D01*
X001824Y034681D01*
X002222Y034681D01*
X002222Y034465D02*
X003439Y034465D01*
X003439Y034623D02*
X003594Y034623D01*
X003594Y034782D02*
X003439Y034782D01*
X003439Y034940D02*
X003594Y034940D01*
X003594Y034306D02*
X003439Y034306D01*
X003439Y034148D02*
X003594Y034148D01*
X003594Y033989D02*
X003439Y033989D01*
X003128Y033989D02*
X002175Y033989D01*
X002222Y034148D02*
X002982Y034148D01*
X002982Y034306D02*
X002222Y034306D01*
X002222Y034940D02*
X003052Y034940D01*
X002960Y033831D02*
X000622Y033831D01*
X000622Y033989D02*
X001359Y033989D01*
X001311Y034148D02*
X000622Y034148D01*
X000622Y034306D02*
X001311Y034306D01*
X001709Y034306D02*
X001824Y034306D01*
X001824Y034148D02*
X001709Y034148D01*
X001709Y033989D02*
X001824Y033989D01*
X001824Y034465D02*
X001709Y034465D01*
X001709Y034782D02*
X001824Y034782D01*
X001824Y034940D02*
X001709Y034940D01*
X001709Y035099D02*
X001824Y035099D01*
X001824Y035257D02*
X001709Y035257D01*
X002175Y035257D02*
X003907Y035257D01*
X003907Y035099D02*
X002222Y035099D01*
X002517Y037629D02*
X002568Y037680D01*
X003465Y037680D01*
X003767Y037680D01*
X004017Y037430D01*
X004017Y035930D01*
X004267Y035680D01*
X004267Y035460D01*
X004267Y034430D01*
X003058Y030661D02*
X000622Y030661D01*
X000622Y030819D02*
X003011Y030819D01*
X002982Y030978D02*
X000622Y030978D01*
X000622Y031136D02*
X002982Y031136D01*
X002927Y030502D02*
X000622Y030502D01*
X000622Y030344D02*
X002922Y030344D01*
X002922Y030185D02*
X000622Y030185D01*
X000622Y030027D02*
X002922Y030027D01*
X002922Y029868D02*
X000622Y029868D01*
X000622Y029710D02*
X002946Y029710D01*
X002793Y029234D02*
X002638Y029234D01*
X002638Y029076D02*
X002793Y029076D01*
X002793Y028917D02*
X002638Y028917D01*
X002638Y028759D02*
X002793Y028759D01*
X003113Y029234D02*
X003324Y029234D01*
X003263Y029076D02*
X003210Y029076D01*
X003210Y028917D02*
X003263Y028917D01*
X003263Y028759D02*
X003210Y028759D01*
X003210Y028600D02*
X003263Y028600D01*
X003263Y028442D02*
X003210Y028442D01*
X003210Y028283D02*
X003263Y028283D01*
X003253Y028125D02*
X003280Y028125D01*
X003316Y027174D02*
X003218Y027174D01*
X003517Y026481D02*
X002517Y026481D01*
X002715Y026680D01*
X002715Y027680D01*
X002161Y027649D02*
X000622Y027649D01*
X000622Y027491D02*
X002161Y027491D01*
X002161Y027332D02*
X000622Y027332D01*
X000622Y027174D02*
X002213Y027174D01*
X002064Y027015D02*
X000622Y027015D01*
X000622Y026857D02*
X000953Y026857D01*
X000943Y026698D02*
X000622Y026698D01*
X000622Y027808D02*
X002161Y027808D01*
X002161Y027966D02*
X000622Y027966D01*
X000622Y028125D02*
X002178Y028125D01*
X002221Y028283D02*
X000622Y028283D01*
X000622Y028442D02*
X002221Y028442D01*
X002221Y028600D02*
X000622Y028600D01*
X000622Y028759D02*
X002221Y028759D01*
X002221Y028917D02*
X000622Y028917D01*
X000622Y029076D02*
X002221Y029076D01*
X002318Y029234D02*
X000622Y029234D01*
X000622Y032880D02*
X003007Y032880D01*
X002922Y033038D02*
X000622Y033038D01*
X000622Y033197D02*
X002922Y033197D01*
X002922Y033355D02*
X000622Y033355D01*
X000622Y033514D02*
X002922Y033514D01*
X002922Y033672D02*
X000622Y033672D01*
X000622Y039537D02*
X005172Y039537D01*
X005172Y039695D02*
X000622Y039695D01*
X000622Y039854D02*
X005172Y039854D01*
X005172Y040012D02*
X000622Y040012D01*
X002517Y038731D02*
X002568Y038680D01*
X003465Y038680D01*
X003935Y039220D02*
X004099Y039220D01*
X006960Y032680D02*
X006818Y032538D01*
X006818Y030930D01*
X007711Y032880D02*
X007882Y032880D01*
X007902Y033038D02*
X007697Y033038D01*
X007859Y033989D02*
X007036Y033989D01*
X007398Y037159D02*
X008438Y037159D01*
X008383Y037318D02*
X007231Y037318D01*
X007384Y037476D02*
X008383Y037476D01*
X008383Y037635D02*
X007400Y037635D01*
X007400Y037793D02*
X008383Y037793D01*
X008383Y037952D02*
X007400Y037952D01*
X007400Y038110D02*
X008450Y038110D01*
X008431Y038269D02*
X007389Y038269D01*
X007224Y038427D02*
X008383Y038427D01*
X008383Y038586D02*
X007322Y038586D01*
X007340Y038744D02*
X008383Y038744D01*
X008383Y038903D02*
X007340Y038903D01*
X007340Y039061D02*
X008383Y039061D01*
X008457Y039220D02*
X007340Y039220D01*
X007321Y039378D02*
X011672Y039378D01*
X010599Y039220D02*
X010435Y039220D01*
X007543Y027174D02*
X007388Y027174D01*
X007388Y027015D02*
X007543Y027015D01*
X007543Y026857D02*
X007388Y026857D01*
X007388Y026540D02*
X007543Y026540D01*
X007543Y026381D02*
X007388Y026381D01*
X007388Y026223D02*
X007543Y026223D01*
X009016Y019882D02*
X009082Y019882D01*
X009073Y019724D02*
X009020Y019724D01*
X009020Y019565D02*
X009073Y019565D01*
X009020Y019407D02*
X009490Y019407D01*
X009645Y019407D02*
X010197Y019407D01*
X010063Y019353D02*
X010063Y019013D01*
X010051Y018967D01*
X010027Y018926D01*
X009993Y018892D01*
X009952Y018869D01*
X009907Y018856D01*
X009645Y018856D01*
X009645Y019353D01*
X010063Y019353D01*
X010063Y019248D02*
X010246Y019248D01*
X010404Y019090D02*
X010063Y019090D01*
X010030Y018931D02*
X010563Y018931D01*
X011017Y018930D02*
X010517Y019430D01*
X010517Y020379D01*
X010465Y020430D01*
X009568Y020430D01*
X010063Y019724D02*
X010197Y019724D01*
X010197Y019565D02*
X010063Y019565D01*
X009645Y019248D02*
X009490Y019248D01*
X009490Y019090D02*
X009645Y019090D01*
X009645Y018931D02*
X009490Y018931D01*
X009106Y018931D02*
X008997Y018931D01*
X009020Y019090D02*
X009073Y019090D01*
X009073Y019248D02*
X009020Y019248D01*
X009231Y017346D02*
X008167Y017346D01*
X008167Y017188D02*
X008307Y017188D01*
X008290Y017178D02*
X008256Y017145D01*
X008233Y017104D01*
X008221Y017058D01*
X008221Y016757D01*
X008638Y016757D01*
X008638Y017214D01*
X008377Y017214D01*
X008331Y017202D01*
X008290Y017178D01*
X008221Y017029D02*
X008167Y017029D01*
X008167Y016871D02*
X008221Y016871D01*
X008167Y016712D02*
X008638Y016712D01*
X008638Y016554D02*
X008793Y016554D01*
X008793Y016395D02*
X008638Y016395D01*
X008638Y016237D02*
X008793Y016237D01*
X008947Y016078D02*
X008167Y016078D01*
X008167Y015920D02*
X008770Y015920D01*
X008611Y015761D02*
X008167Y015761D01*
X008167Y015603D02*
X008453Y015603D01*
X008343Y015444D02*
X008167Y015444D01*
X008167Y015286D02*
X008237Y015286D01*
X008244Y016237D02*
X008167Y016237D01*
X008167Y016395D02*
X008221Y016395D01*
X008221Y016554D02*
X008167Y016554D01*
X008638Y016871D02*
X008793Y016871D01*
X008793Y017029D02*
X008638Y017029D01*
X008638Y017188D02*
X008793Y017188D01*
X009818Y016680D02*
X010767Y015731D01*
X010767Y013680D01*
X011657Y016554D02*
X012406Y016554D01*
X012372Y016395D02*
X012040Y016395D01*
X012332Y016237D02*
X012357Y016237D01*
X012253Y016712D02*
X010587Y016712D01*
X011017Y018930D02*
X012267Y018930D01*
X012715Y019379D01*
X012767Y019379D01*
X012837Y017029D02*
X012941Y017029D01*
X013215Y016180D02*
X011517Y017930D01*
X011517Y018379D01*
X011517Y019481D02*
X011517Y020379D01*
X011568Y020430D01*
X011517Y020481D01*
X011517Y021900D01*
X011017Y021900D01*
X010517Y021900D02*
X009788Y021900D01*
X009767Y021879D01*
X013215Y016180D02*
X013267Y016180D01*
X004582Y020992D02*
X004452Y020992D01*
X004267Y021900D02*
X003767Y021900D01*
X003767Y020629D01*
X003267Y020731D02*
X003267Y021900D01*
X003267Y020731D02*
X003017Y020481D01*
X002094Y022577D02*
X001939Y022577D01*
X001939Y022735D02*
X002094Y022735D01*
X002094Y022894D02*
X001939Y022894D01*
X001939Y023369D02*
X002094Y023369D01*
X001497Y023369D02*
X000622Y023369D01*
X000622Y023211D02*
X001482Y023211D01*
X002026Y025906D02*
X002046Y025906D01*
X003267Y025129D02*
X003517Y025379D01*
X003767Y025430D02*
X003767Y024430D01*
X000622Y046194D02*
X014412Y046194D01*
X014412Y046352D02*
X000622Y046352D01*
D27*
X001517Y045180D03*
X001517Y041430D03*
X003017Y040180D03*
X003517Y034930D03*
X003517Y033379D03*
X003517Y031680D03*
X002267Y028680D03*
X001517Y026930D03*
X002017Y023430D03*
X002017Y021430D03*
X002017Y018930D03*
X003017Y016680D03*
X001517Y015180D03*
X001517Y011430D03*
X002517Y005930D03*
X002517Y005180D03*
X001017Y004680D03*
X004090Y004930D03*
X006767Y005180D03*
X006767Y005930D03*
X007546Y009731D03*
X009017Y009731D03*
X009017Y010805D03*
X009267Y008180D03*
X009267Y006680D03*
X011017Y007430D03*
X011017Y009430D03*
X011517Y004930D03*
X013517Y011430D03*
X013517Y015180D03*
X013767Y018930D03*
X012767Y022430D03*
X012767Y024430D03*
X013267Y026555D03*
X012517Y028680D03*
X012017Y029680D03*
X011517Y031180D03*
X010017Y033180D03*
X010017Y034930D03*
X009267Y032680D03*
X008267Y033930D03*
X007767Y031805D03*
X008017Y029680D03*
X007517Y028180D03*
X007017Y026680D03*
X007017Y024430D03*
X007767Y025180D03*
X008267Y024930D03*
X008767Y026680D03*
X008892Y025430D03*
X009267Y024430D03*
X009767Y023430D03*
X009767Y021430D03*
X010517Y018430D03*
X011267Y022930D03*
X012017Y016680D03*
X013892Y004930D03*
X008267Y016680D03*
X007017Y019430D03*
X007017Y021180D03*
X007767Y021680D03*
X006767Y016680D03*
X005642Y017930D03*
X005017Y022430D03*
X005017Y024430D03*
X005017Y025430D03*
X005017Y026680D03*
X006267Y029680D03*
X006517Y033930D03*
X006767Y035430D03*
X007017Y036930D03*
X007517Y039055D03*
X007517Y041680D03*
X007517Y045930D03*
X009517Y040180D03*
X009142Y036180D03*
X013017Y035680D03*
X013017Y033930D03*
X014017Y039055D03*
X013517Y041680D03*
X013517Y045180D03*
X003517Y022930D03*
X001767Y033930D03*
M02*
