G75*
G70*
%OFA0B0*%
%FSLAX24Y24*%
%IPPOS*%
%LPD*%
%AMOC8*
5,1,8,0,0,1.08239X$1,22.5*
%
%ADD10C,0.0000*%
D10*
X000142Y000180D02*
X000142Y050680D01*
X014892Y050680D01*
X014892Y000180D01*
X000142Y000180D01*
X000986Y001330D02*
X000988Y001376D01*
X000994Y001421D01*
X001004Y001466D01*
X001017Y001509D01*
X001034Y001552D01*
X001055Y001592D01*
X001079Y001631D01*
X001107Y001667D01*
X001138Y001701D01*
X001171Y001733D01*
X001207Y001761D01*
X001245Y001786D01*
X001285Y001808D01*
X001327Y001826D01*
X001370Y001840D01*
X001415Y001851D01*
X001460Y001858D01*
X001506Y001861D01*
X001551Y001860D01*
X001597Y001855D01*
X001642Y001846D01*
X001685Y001834D01*
X001728Y001817D01*
X001769Y001797D01*
X001808Y001774D01*
X001846Y001747D01*
X001880Y001717D01*
X001912Y001685D01*
X001941Y001649D01*
X001967Y001612D01*
X001990Y001572D01*
X002009Y001531D01*
X002024Y001488D01*
X002036Y001443D01*
X002044Y001398D01*
X002048Y001353D01*
X002048Y001307D01*
X002044Y001262D01*
X002036Y001217D01*
X002024Y001172D01*
X002009Y001129D01*
X001990Y001088D01*
X001967Y001048D01*
X001941Y001011D01*
X001912Y000975D01*
X001880Y000943D01*
X001846Y000913D01*
X001808Y000886D01*
X001769Y000863D01*
X001728Y000843D01*
X001685Y000826D01*
X001642Y000814D01*
X001597Y000805D01*
X001551Y000800D01*
X001506Y000799D01*
X001460Y000802D01*
X001415Y000809D01*
X001370Y000820D01*
X001327Y000834D01*
X001285Y000852D01*
X001245Y000874D01*
X001207Y000899D01*
X001171Y000927D01*
X001138Y000959D01*
X001107Y000993D01*
X001079Y001029D01*
X001055Y001068D01*
X001034Y001108D01*
X001017Y001151D01*
X001004Y001194D01*
X000994Y001239D01*
X000988Y001284D01*
X000986Y001330D01*
X002692Y013680D02*
X002694Y013759D01*
X002700Y013838D01*
X002710Y013917D01*
X002724Y013995D01*
X002741Y014072D01*
X002763Y014148D01*
X002788Y014223D01*
X002818Y014296D01*
X002850Y014368D01*
X002887Y014439D01*
X002927Y014507D01*
X002970Y014573D01*
X003016Y014637D01*
X003066Y014699D01*
X003119Y014758D01*
X003174Y014814D01*
X003233Y014868D01*
X003294Y014918D01*
X003357Y014966D01*
X003423Y015010D01*
X003491Y015051D01*
X003561Y015088D01*
X003632Y015122D01*
X003706Y015152D01*
X003780Y015178D01*
X003856Y015200D01*
X003933Y015219D01*
X004011Y015234D01*
X004089Y015245D01*
X004168Y015252D01*
X004247Y015255D01*
X004326Y015254D01*
X004405Y015249D01*
X004484Y015240D01*
X004562Y015227D01*
X004639Y015210D01*
X004716Y015190D01*
X004791Y015165D01*
X004865Y015137D01*
X004938Y015105D01*
X005008Y015070D01*
X005077Y015031D01*
X005144Y014988D01*
X005209Y014942D01*
X005271Y014894D01*
X005331Y014842D01*
X005388Y014787D01*
X005442Y014729D01*
X005493Y014669D01*
X005541Y014606D01*
X005586Y014541D01*
X005628Y014473D01*
X005666Y014404D01*
X005700Y014333D01*
X005731Y014260D01*
X005759Y014185D01*
X005782Y014110D01*
X005802Y014033D01*
X005818Y013956D01*
X005830Y013877D01*
X005838Y013799D01*
X005842Y013720D01*
X005842Y013640D01*
X005838Y013561D01*
X005830Y013483D01*
X005818Y013404D01*
X005802Y013327D01*
X005782Y013250D01*
X005759Y013175D01*
X005731Y013100D01*
X005700Y013027D01*
X005666Y012956D01*
X005628Y012887D01*
X005586Y012819D01*
X005541Y012754D01*
X005493Y012691D01*
X005442Y012631D01*
X005388Y012573D01*
X005331Y012518D01*
X005271Y012466D01*
X005209Y012418D01*
X005144Y012372D01*
X005077Y012329D01*
X005008Y012290D01*
X004938Y012255D01*
X004865Y012223D01*
X004791Y012195D01*
X004716Y012170D01*
X004639Y012150D01*
X004562Y012133D01*
X004484Y012120D01*
X004405Y012111D01*
X004326Y012106D01*
X004247Y012105D01*
X004168Y012108D01*
X004089Y012115D01*
X004011Y012126D01*
X003933Y012141D01*
X003856Y012160D01*
X003780Y012182D01*
X003706Y012208D01*
X003632Y012238D01*
X003561Y012272D01*
X003491Y012309D01*
X003423Y012350D01*
X003357Y012394D01*
X003294Y012442D01*
X003233Y012492D01*
X003174Y012546D01*
X003119Y012602D01*
X003066Y012661D01*
X003016Y012723D01*
X002970Y012787D01*
X002927Y012853D01*
X002887Y012921D01*
X002850Y012992D01*
X002818Y013064D01*
X002788Y013137D01*
X002763Y013212D01*
X002741Y013288D01*
X002724Y013365D01*
X002710Y013443D01*
X002700Y013522D01*
X002694Y013601D01*
X002692Y013680D01*
X009192Y013680D02*
X009194Y013759D01*
X009200Y013838D01*
X009210Y013917D01*
X009224Y013995D01*
X009241Y014072D01*
X009263Y014148D01*
X009288Y014223D01*
X009318Y014296D01*
X009350Y014368D01*
X009387Y014439D01*
X009427Y014507D01*
X009470Y014573D01*
X009516Y014637D01*
X009566Y014699D01*
X009619Y014758D01*
X009674Y014814D01*
X009733Y014868D01*
X009794Y014918D01*
X009857Y014966D01*
X009923Y015010D01*
X009991Y015051D01*
X010061Y015088D01*
X010132Y015122D01*
X010206Y015152D01*
X010280Y015178D01*
X010356Y015200D01*
X010433Y015219D01*
X010511Y015234D01*
X010589Y015245D01*
X010668Y015252D01*
X010747Y015255D01*
X010826Y015254D01*
X010905Y015249D01*
X010984Y015240D01*
X011062Y015227D01*
X011139Y015210D01*
X011216Y015190D01*
X011291Y015165D01*
X011365Y015137D01*
X011438Y015105D01*
X011508Y015070D01*
X011577Y015031D01*
X011644Y014988D01*
X011709Y014942D01*
X011771Y014894D01*
X011831Y014842D01*
X011888Y014787D01*
X011942Y014729D01*
X011993Y014669D01*
X012041Y014606D01*
X012086Y014541D01*
X012128Y014473D01*
X012166Y014404D01*
X012200Y014333D01*
X012231Y014260D01*
X012259Y014185D01*
X012282Y014110D01*
X012302Y014033D01*
X012318Y013956D01*
X012330Y013877D01*
X012338Y013799D01*
X012342Y013720D01*
X012342Y013640D01*
X012338Y013561D01*
X012330Y013483D01*
X012318Y013404D01*
X012302Y013327D01*
X012282Y013250D01*
X012259Y013175D01*
X012231Y013100D01*
X012200Y013027D01*
X012166Y012956D01*
X012128Y012887D01*
X012086Y012819D01*
X012041Y012754D01*
X011993Y012691D01*
X011942Y012631D01*
X011888Y012573D01*
X011831Y012518D01*
X011771Y012466D01*
X011709Y012418D01*
X011644Y012372D01*
X011577Y012329D01*
X011508Y012290D01*
X011438Y012255D01*
X011365Y012223D01*
X011291Y012195D01*
X011216Y012170D01*
X011139Y012150D01*
X011062Y012133D01*
X010984Y012120D01*
X010905Y012111D01*
X010826Y012106D01*
X010747Y012105D01*
X010668Y012108D01*
X010589Y012115D01*
X010511Y012126D01*
X010433Y012141D01*
X010356Y012160D01*
X010280Y012182D01*
X010206Y012208D01*
X010132Y012238D01*
X010061Y012272D01*
X009991Y012309D01*
X009923Y012350D01*
X009857Y012394D01*
X009794Y012442D01*
X009733Y012492D01*
X009674Y012546D01*
X009619Y012602D01*
X009566Y012661D01*
X009516Y012723D01*
X009470Y012787D01*
X009427Y012853D01*
X009387Y012921D01*
X009350Y012992D01*
X009318Y013064D01*
X009288Y013137D01*
X009263Y013212D01*
X009241Y013288D01*
X009224Y013365D01*
X009210Y013443D01*
X009200Y013522D01*
X009194Y013601D01*
X009192Y013680D01*
X012986Y001330D02*
X012988Y001376D01*
X012994Y001421D01*
X013004Y001466D01*
X013017Y001509D01*
X013034Y001552D01*
X013055Y001592D01*
X013079Y001631D01*
X013107Y001667D01*
X013138Y001701D01*
X013171Y001733D01*
X013207Y001761D01*
X013245Y001786D01*
X013285Y001808D01*
X013327Y001826D01*
X013370Y001840D01*
X013415Y001851D01*
X013460Y001858D01*
X013506Y001861D01*
X013551Y001860D01*
X013597Y001855D01*
X013642Y001846D01*
X013685Y001834D01*
X013728Y001817D01*
X013769Y001797D01*
X013808Y001774D01*
X013846Y001747D01*
X013880Y001717D01*
X013912Y001685D01*
X013941Y001649D01*
X013967Y001612D01*
X013990Y001572D01*
X014009Y001531D01*
X014024Y001488D01*
X014036Y001443D01*
X014044Y001398D01*
X014048Y001353D01*
X014048Y001307D01*
X014044Y001262D01*
X014036Y001217D01*
X014024Y001172D01*
X014009Y001129D01*
X013990Y001088D01*
X013967Y001048D01*
X013941Y001011D01*
X013912Y000975D01*
X013880Y000943D01*
X013846Y000913D01*
X013808Y000886D01*
X013769Y000863D01*
X013728Y000843D01*
X013685Y000826D01*
X013642Y000814D01*
X013597Y000805D01*
X013551Y000800D01*
X013506Y000799D01*
X013460Y000802D01*
X013415Y000809D01*
X013370Y000820D01*
X013327Y000834D01*
X013285Y000852D01*
X013245Y000874D01*
X013207Y000899D01*
X013171Y000927D01*
X013138Y000959D01*
X013107Y000993D01*
X013079Y001029D01*
X013055Y001068D01*
X013034Y001108D01*
X013017Y001151D01*
X013004Y001194D01*
X012994Y001239D01*
X012988Y001284D01*
X012986Y001330D01*
X009192Y043180D02*
X009194Y043259D01*
X009200Y043338D01*
X009210Y043417D01*
X009224Y043495D01*
X009241Y043572D01*
X009263Y043648D01*
X009288Y043723D01*
X009318Y043796D01*
X009350Y043868D01*
X009387Y043939D01*
X009427Y044007D01*
X009470Y044073D01*
X009516Y044137D01*
X009566Y044199D01*
X009619Y044258D01*
X009674Y044314D01*
X009733Y044368D01*
X009794Y044418D01*
X009857Y044466D01*
X009923Y044510D01*
X009991Y044551D01*
X010061Y044588D01*
X010132Y044622D01*
X010206Y044652D01*
X010280Y044678D01*
X010356Y044700D01*
X010433Y044719D01*
X010511Y044734D01*
X010589Y044745D01*
X010668Y044752D01*
X010747Y044755D01*
X010826Y044754D01*
X010905Y044749D01*
X010984Y044740D01*
X011062Y044727D01*
X011139Y044710D01*
X011216Y044690D01*
X011291Y044665D01*
X011365Y044637D01*
X011438Y044605D01*
X011508Y044570D01*
X011577Y044531D01*
X011644Y044488D01*
X011709Y044442D01*
X011771Y044394D01*
X011831Y044342D01*
X011888Y044287D01*
X011942Y044229D01*
X011993Y044169D01*
X012041Y044106D01*
X012086Y044041D01*
X012128Y043973D01*
X012166Y043904D01*
X012200Y043833D01*
X012231Y043760D01*
X012259Y043685D01*
X012282Y043610D01*
X012302Y043533D01*
X012318Y043456D01*
X012330Y043377D01*
X012338Y043299D01*
X012342Y043220D01*
X012342Y043140D01*
X012338Y043061D01*
X012330Y042983D01*
X012318Y042904D01*
X012302Y042827D01*
X012282Y042750D01*
X012259Y042675D01*
X012231Y042600D01*
X012200Y042527D01*
X012166Y042456D01*
X012128Y042387D01*
X012086Y042319D01*
X012041Y042254D01*
X011993Y042191D01*
X011942Y042131D01*
X011888Y042073D01*
X011831Y042018D01*
X011771Y041966D01*
X011709Y041918D01*
X011644Y041872D01*
X011577Y041829D01*
X011508Y041790D01*
X011438Y041755D01*
X011365Y041723D01*
X011291Y041695D01*
X011216Y041670D01*
X011139Y041650D01*
X011062Y041633D01*
X010984Y041620D01*
X010905Y041611D01*
X010826Y041606D01*
X010747Y041605D01*
X010668Y041608D01*
X010589Y041615D01*
X010511Y041626D01*
X010433Y041641D01*
X010356Y041660D01*
X010280Y041682D01*
X010206Y041708D01*
X010132Y041738D01*
X010061Y041772D01*
X009991Y041809D01*
X009923Y041850D01*
X009857Y041894D01*
X009794Y041942D01*
X009733Y041992D01*
X009674Y042046D01*
X009619Y042102D01*
X009566Y042161D01*
X009516Y042223D01*
X009470Y042287D01*
X009427Y042353D01*
X009387Y042421D01*
X009350Y042492D01*
X009318Y042564D01*
X009288Y042637D01*
X009263Y042712D01*
X009241Y042788D01*
X009224Y042865D01*
X009210Y042943D01*
X009200Y043022D01*
X009194Y043101D01*
X009192Y043180D01*
X012986Y049530D02*
X012988Y049576D01*
X012994Y049621D01*
X013004Y049666D01*
X013017Y049709D01*
X013034Y049752D01*
X013055Y049792D01*
X013079Y049831D01*
X013107Y049867D01*
X013138Y049901D01*
X013171Y049933D01*
X013207Y049961D01*
X013245Y049986D01*
X013285Y050008D01*
X013327Y050026D01*
X013370Y050040D01*
X013415Y050051D01*
X013460Y050058D01*
X013506Y050061D01*
X013551Y050060D01*
X013597Y050055D01*
X013642Y050046D01*
X013685Y050034D01*
X013728Y050017D01*
X013769Y049997D01*
X013808Y049974D01*
X013846Y049947D01*
X013880Y049917D01*
X013912Y049885D01*
X013941Y049849D01*
X013967Y049812D01*
X013990Y049772D01*
X014009Y049731D01*
X014024Y049688D01*
X014036Y049643D01*
X014044Y049598D01*
X014048Y049553D01*
X014048Y049507D01*
X014044Y049462D01*
X014036Y049417D01*
X014024Y049372D01*
X014009Y049329D01*
X013990Y049288D01*
X013967Y049248D01*
X013941Y049211D01*
X013912Y049175D01*
X013880Y049143D01*
X013846Y049113D01*
X013808Y049086D01*
X013769Y049063D01*
X013728Y049043D01*
X013685Y049026D01*
X013642Y049014D01*
X013597Y049005D01*
X013551Y049000D01*
X013506Y048999D01*
X013460Y049002D01*
X013415Y049009D01*
X013370Y049020D01*
X013327Y049034D01*
X013285Y049052D01*
X013245Y049074D01*
X013207Y049099D01*
X013171Y049127D01*
X013138Y049159D01*
X013107Y049193D01*
X013079Y049229D01*
X013055Y049268D01*
X013034Y049308D01*
X013017Y049351D01*
X013004Y049394D01*
X012994Y049439D01*
X012988Y049484D01*
X012986Y049530D01*
X002692Y043180D02*
X002694Y043259D01*
X002700Y043338D01*
X002710Y043417D01*
X002724Y043495D01*
X002741Y043572D01*
X002763Y043648D01*
X002788Y043723D01*
X002818Y043796D01*
X002850Y043868D01*
X002887Y043939D01*
X002927Y044007D01*
X002970Y044073D01*
X003016Y044137D01*
X003066Y044199D01*
X003119Y044258D01*
X003174Y044314D01*
X003233Y044368D01*
X003294Y044418D01*
X003357Y044466D01*
X003423Y044510D01*
X003491Y044551D01*
X003561Y044588D01*
X003632Y044622D01*
X003706Y044652D01*
X003780Y044678D01*
X003856Y044700D01*
X003933Y044719D01*
X004011Y044734D01*
X004089Y044745D01*
X004168Y044752D01*
X004247Y044755D01*
X004326Y044754D01*
X004405Y044749D01*
X004484Y044740D01*
X004562Y044727D01*
X004639Y044710D01*
X004716Y044690D01*
X004791Y044665D01*
X004865Y044637D01*
X004938Y044605D01*
X005008Y044570D01*
X005077Y044531D01*
X005144Y044488D01*
X005209Y044442D01*
X005271Y044394D01*
X005331Y044342D01*
X005388Y044287D01*
X005442Y044229D01*
X005493Y044169D01*
X005541Y044106D01*
X005586Y044041D01*
X005628Y043973D01*
X005666Y043904D01*
X005700Y043833D01*
X005731Y043760D01*
X005759Y043685D01*
X005782Y043610D01*
X005802Y043533D01*
X005818Y043456D01*
X005830Y043377D01*
X005838Y043299D01*
X005842Y043220D01*
X005842Y043140D01*
X005838Y043061D01*
X005830Y042983D01*
X005818Y042904D01*
X005802Y042827D01*
X005782Y042750D01*
X005759Y042675D01*
X005731Y042600D01*
X005700Y042527D01*
X005666Y042456D01*
X005628Y042387D01*
X005586Y042319D01*
X005541Y042254D01*
X005493Y042191D01*
X005442Y042131D01*
X005388Y042073D01*
X005331Y042018D01*
X005271Y041966D01*
X005209Y041918D01*
X005144Y041872D01*
X005077Y041829D01*
X005008Y041790D01*
X004938Y041755D01*
X004865Y041723D01*
X004791Y041695D01*
X004716Y041670D01*
X004639Y041650D01*
X004562Y041633D01*
X004484Y041620D01*
X004405Y041611D01*
X004326Y041606D01*
X004247Y041605D01*
X004168Y041608D01*
X004089Y041615D01*
X004011Y041626D01*
X003933Y041641D01*
X003856Y041660D01*
X003780Y041682D01*
X003706Y041708D01*
X003632Y041738D01*
X003561Y041772D01*
X003491Y041809D01*
X003423Y041850D01*
X003357Y041894D01*
X003294Y041942D01*
X003233Y041992D01*
X003174Y042046D01*
X003119Y042102D01*
X003066Y042161D01*
X003016Y042223D01*
X002970Y042287D01*
X002927Y042353D01*
X002887Y042421D01*
X002850Y042492D01*
X002818Y042564D01*
X002788Y042637D01*
X002763Y042712D01*
X002741Y042788D01*
X002724Y042865D01*
X002710Y042943D01*
X002700Y043022D01*
X002694Y043101D01*
X002692Y043180D01*
X000986Y049530D02*
X000988Y049576D01*
X000994Y049621D01*
X001004Y049666D01*
X001017Y049709D01*
X001034Y049752D01*
X001055Y049792D01*
X001079Y049831D01*
X001107Y049867D01*
X001138Y049901D01*
X001171Y049933D01*
X001207Y049961D01*
X001245Y049986D01*
X001285Y050008D01*
X001327Y050026D01*
X001370Y050040D01*
X001415Y050051D01*
X001460Y050058D01*
X001506Y050061D01*
X001551Y050060D01*
X001597Y050055D01*
X001642Y050046D01*
X001685Y050034D01*
X001728Y050017D01*
X001769Y049997D01*
X001808Y049974D01*
X001846Y049947D01*
X001880Y049917D01*
X001912Y049885D01*
X001941Y049849D01*
X001967Y049812D01*
X001990Y049772D01*
X002009Y049731D01*
X002024Y049688D01*
X002036Y049643D01*
X002044Y049598D01*
X002048Y049553D01*
X002048Y049507D01*
X002044Y049462D01*
X002036Y049417D01*
X002024Y049372D01*
X002009Y049329D01*
X001990Y049288D01*
X001967Y049248D01*
X001941Y049211D01*
X001912Y049175D01*
X001880Y049143D01*
X001846Y049113D01*
X001808Y049086D01*
X001769Y049063D01*
X001728Y049043D01*
X001685Y049026D01*
X001642Y049014D01*
X001597Y049005D01*
X001551Y049000D01*
X001506Y048999D01*
X001460Y049002D01*
X001415Y049009D01*
X001370Y049020D01*
X001327Y049034D01*
X001285Y049052D01*
X001245Y049074D01*
X001207Y049099D01*
X001171Y049127D01*
X001138Y049159D01*
X001107Y049193D01*
X001079Y049229D01*
X001055Y049268D01*
X001034Y049308D01*
X001017Y049351D01*
X001004Y049394D01*
X000994Y049439D01*
X000988Y049484D01*
X000986Y049530D01*
M02*
