%
M48
M72
T01C0.0240
T02C0.1063
T03C0.3150
%
T01
X1017Y4680
X2517Y5180
X2517Y5930
X4090Y4930
X1517Y11430
X1517Y15180
X2017Y18930
X2017Y21430
X2017Y23430
X1517Y26930
X2267Y28680
X3517Y31680
X3517Y33379
X3517Y34930
X3017Y40180
X1517Y41430
X1517Y45180
X1767Y33930
X5017Y26680
X5017Y25430
X5017Y24430
X5017Y22430
X3517Y22930
X5642Y17930
X6767Y16680
X7017Y19430
X7017Y21180
X7767Y21680
X7017Y24430
X7017Y26680
X7517Y28180
X8017Y29680
X7767Y31805
X8267Y33930
X9142Y36180
X10017Y34930
X10017Y33180
X9267Y32680
X8767Y26680
X8892Y25430
X9267Y24430
X9767Y23430
X9767Y21430
X10517Y18430
X11267Y22930
X12767Y22430
X12767Y24430
X13267Y26555
X12517Y28680
X12017Y29680
X11517Y31180
X13017Y33930
X13017Y35680
X14017Y39055
X13517Y41680
X13517Y45180
X9517Y40180
X7517Y39055
X7017Y36930
X6767Y35430
X6517Y33930
X6267Y29680
X7767Y25180
X8267Y24930
X8267Y16680
X9017Y10805
X9017Y9731
X9267Y8180
X9267Y6680
X7546Y9731
X6767Y5930
X6767Y5180
X3017Y16680
X7517Y41680
X7517Y45930
X13767Y18930
X13517Y15180
X13517Y11430
X12017Y16680
X11017Y9430
X11017Y7430
X11517Y4930
X13892Y4930
T02
X1517Y1330
X13517Y1330
X13517Y49530
X1517Y49530
T03
X4267Y43180
X10767Y43180
X10767Y13680
X4267Y13680
M30
